<svg xmlns="http://www.w3.org/2000/svg" viewBox="0 0 500 500"><defs><clipPath id="a"><path transform="rotate(180 137.215 260.65)" style="fill:#198754;stroke:#263238;stroke-linecap:round;stroke-linejoin:round" d="M88.37 255.15h97.7v11h-97.7z"/></clipPath><clipPath id="b"><path d="M262.5 46.3a35.08 35.08 0 0 0-35.08 35.08h70.16A35.09 35.09 0 0 0 262.5 46.3Z" style="fill:#fff;stroke:#263238;stroke-linecap:round;stroke-linejoin:round"/></clipPath></defs><path style="fill:none;stroke:#263238;stroke-linecap:round;stroke-linejoin:round" d="M465.93 445.34H36.4M423.69 445.34V61.3H305.83a110.21 110.21 0 0 1-53.1 86.5l-1.57.94v296.6Z"/><path d="M121.42 215.27a125.32 125.32 0 0 0 35.58 2 2.43 2.43 0 0 0 1.87-.74c.59-.85-.1-2-.66-2.84a13.66 13.66 0 0 1-1.76-10.85 56.84 56.84 0 0 1-32.59 12.43Z" style="fill:#fff;stroke:#263238;stroke-linecap:round;stroke-linejoin:round"/><path transform="rotate(180 121.945 235.09)" style="fill:#999;stroke:#263238;stroke-linecap:round;stroke-linejoin:round" d="M96.68 215.3h50.54v39.58H96.68z"/><path style="fill:#fff;stroke:#263238;stroke-linecap:round;stroke-linejoin:round" d="M146.97 215.3h34.3v39.58h-34.3z"/><path style="fill:none;stroke:#263238;stroke-linecap:round;stroke-linejoin:round" d="M133.45 217.87h10.25M100.2 217.87h10.87M126.85 225.27h16.85M100.2 225.27h14.77M135.27 232.67h8.43M100.2 232.67h18.73M126.85 240.08h16.85M100.2 240.08h6.55M135.27 247.48h8.43M100.2 247.48h7.62M166.15 217.87h11.6M150.49 217.87h5.06M164.47 225.27h13.28M150.49 225.27h8.13M167.59 232.67h10.16M150.49 232.67h11.25M160.95 240.08h16.8M150.49 240.08h1.64M167.59 247.48h10.16M150.49 247.48h2.49"/><path style="fill:#fff;stroke:#263238;stroke-linecap:round;stroke-linejoin:round" d="m98.95 221.86 8.87-3.95h-7.62l-1.25 3.95z"/><path style="fill:#999;stroke:#263238;stroke-linecap:round;stroke-linejoin:round" d="m176.39 221.86-8.87-3.95h7.62l1.25 3.95zM168.9 244.03l-8.87-3.96h12.91l-4.04 3.96z"/><path style="fill:#fff;stroke:#263238;stroke-linecap:round;stroke-linejoin:round" d="m122.04 238.33 3.9-5.65h-18.36l14.46 5.65zM96.68 240.51l-5.13 7.04 5.13-.64v-6.4z"/><path transform="rotate(180 349.16 225.48)" style="fill:#999;stroke:#263238;stroke-linecap:round;stroke-linejoin:round" d="M323.89 195.88h50.54v59.21h-50.54z"/><path transform="rotate(180 391.33 225.48)" style="fill:#fff;stroke:#263238;stroke-linecap:round;stroke-linejoin:round" d="M374.18 195.88h34.3v59.21h-34.3z"/><path style="fill:none;stroke:#263238;stroke-linecap:round;stroke-linejoin:round" d="M364.16 203.28h6.75M327.41 203.28h21.75M354.06 210.68h16.85M327.41 210.68h10.87M360.66 218.08h10.25M327.41 218.08h10.87M354.06 225.48h16.85M327.41 225.48h14.77M362.48 232.88h8.43M327.41 232.88h18.73M354.06 240.28h16.85M327.41 240.28h6.55M362.48 247.68h8.43M327.41 247.68h7.62M396.12 203.28h8.84M377.7 203.28h13.63M388.16 210.68h16.8M377.7 210.68h5.06M393.36 218.08h11.6M377.7 218.08h5.06M391.68 225.48h13.28M377.7 225.48h8.13M394.8 232.88h10.16M377.7 232.88h11.25M388.16 240.28h16.8M377.7 240.28h1.64M394.8 247.68h10.16M377.7 247.68h2.49"/><path style="fill:#fff;stroke:#263238;stroke-linecap:round;stroke-linejoin:round" d="m354 216.33 12.69-5.65h-18.35l5.66 5.65zM326.16 222.07l8.87-3.95h-7.62l-1.25 3.95z"/><path style="fill:#999;stroke:#263238;stroke-linecap:round;stroke-linejoin:round" d="m403.6 222.07-8.87-3.95h7.62l1.25 3.95zM396.11 244.23l-8.87-3.95h12.9l-4.03 3.95z"/><path style="fill:#fff;stroke:#263238;stroke-linecap:round;stroke-linejoin:round" d="m349.25 238.54 3.9-5.66H334.8l14.45 5.66z"/><path style="fill:#999;stroke:#263238;stroke-linecap:round;stroke-linejoin:round" d="m408.48 210.68 5.14 5.28-5.14-.64v-4.64z"/><path style="fill:#fff;stroke:#263238;stroke-linecap:round;stroke-linejoin:round" d="m323.89 203.28-8.65 7.03 8.65-.63v-6.4zM323.89 240.71l-5.13 7.04 5.13-.64v-6.4z"/><path d="M338.81 249.91s.44-3.74-6.72-5.68c-12.9-3.49-20.57 3.87-20.64 3.93-3 2.71-1.44 7.13 2.37 7.12h8.26Z" style="fill:#fff;stroke:#263238;stroke-linecap:round;stroke-linejoin:round"/><path d="M323.85 248.85h13.22a1.73 1.73 0 0 1 1.73 1.73v4.57h0-16.68 0v-4.57a1.73 1.73 0 0 1 1.73-1.73Z" transform="rotate(180 330.46 252)" style="fill:#fff;stroke:#263238;stroke-linecap:round;stroke-linejoin:round"/><path d="M338.81 248.87c0-2.39-3.74-4.33-8.35-4.33s-8.34 1.94-8.34 4.33Z" style="fill:#fff;stroke:#263238;stroke-linecap:round;stroke-linejoin:round"/><path d="M322.12 248.87c0-2.39 3.73-4.33 8.34-4.33v4.33Z" style="fill:#fff;stroke:#263238;stroke-linecap:round;stroke-linejoin:round"/><path style="fill:#999;stroke:#263238;stroke-linecap:round;stroke-linejoin:round" d="M210.11 254.24h24.92v-6.09l-24.92 2.61v3.48z"/><path transform="rotate(180 262.735 251.195)" style="fill:#5c5c5c;stroke:#263238;stroke-linecap:round;stroke-linejoin:round" d="M235.04 248.15h55.4v6.1h-55.4z"/><path d="M242.47 166.43h7l-7.18 68.29h-7a2.59 2.59 0 0 1-2.62-2.93l6.57-62.44a3.32 3.32 0 0 1 3.23-2.92Z" style="fill:#fff;stroke:#263238;stroke-linecap:round;stroke-linejoin:round"/><path d="M238.57 234.72h88.53a3.32 3.32 0 0 0 3.23-2.93l6.57-62.44a2.59 2.59 0 0 0-2.62-2.92h-88.53a3.32 3.32 0 0 0-3.23 2.92L236 231.79a2.59 2.59 0 0 0 2.57 2.93Z" style="fill:#999;stroke:#263238;stroke-linecap:round;stroke-linejoin:round"/><path style="fill:none;stroke:#263238;stroke-linecap:round;stroke-linejoin:round" d="M269.33 171.59h7.21M244.74 194.69l1.8-15a9.16 9.16 0 0 1 9.09-8.07h9.71"/><path transform="rotate(180 291.345 252.285)" style="fill:#5c5c5c;stroke:#263238;stroke-linecap:round;stroke-linejoin:round" d="M269.33 248.77h44.03v7.03h-44.03z"/><path transform="rotate(180 262.89 252.285)" style="fill:#263238;stroke:#263238;stroke-linecap:round;stroke-linejoin:round" d="M256.45 248.77h12.88v7.03h-12.88z"/><path d="M291.72 219a7.9 7.9 0 0 0-6-6.7 6.38 6.38 0 0 1 1.65-.23 7.89 7.89 0 0 1 7.66 6.93 6.13 6.13 0 0 1-6.2 6.93 7.41 7.41 0 0 1-1.7-.23 6.07 6.07 0 0 0 4.59-6.7ZM276 207.07l4.39 41.7h-3.34l-4.39-41.7a1.6 1.6 0 0 1 1.63-1.81h3.34a1.61 1.61 0 0 0-1.63 1.81Z" style="fill:#263238;stroke:#263238;stroke-linecap:round;stroke-linejoin:round"/><path d="m276 207.07 4.39 41.7h21.71l-4.38-41.7a2.06 2.06 0 0 0-2-1.81h-18.07a1.61 1.61 0 0 0-1.65 1.81Zm11.39 5a7.89 7.89 0 0 1 7.66 6.93 6.13 6.13 0 0 1-6.2 6.93 7.88 7.88 0 0 1-7.66-6.93 6.12 6.12 0 0 1 6.22-6.92Z" style="fill:#5c5c5c;stroke:#263238;stroke-linecap:round;stroke-linejoin:round"/><path transform="rotate(180 290.295 275.885)" style="fill:#5c5c5c;stroke:#263238;stroke-linecap:round;stroke-linejoin:round" d="M176.61 266.15h227.37v19.47H176.61z"/><path transform="rotate(180 136.14 275.885)" style="fill:#5c5c5c;stroke:#263238;stroke-linecap:round;stroke-linejoin:round" d="M95.67 266.15h80.94v19.47H95.67z"/><path transform="rotate(180 298.675 260.65)" style="fill:#198754;stroke:#263238;stroke-linecap:round;stroke-linejoin:round" d="M186.07 255.15h225.22v11H186.07z"/><path transform="rotate(180 137.215 260.65)" style="fill:#198754" d="M88.37 255.15h97.7v11h-97.7z"/><g style="clip-path:url(#a)"><path transform="rotate(180 137.215 260.65)" style="opacity:.30000000000000004" d="M88.37 255.15h97.7v11h-97.7z"/></g><path transform="rotate(180 137.215 260.65)" style="fill:none;stroke:#263238;stroke-linecap:round;stroke-linejoin:round" d="M88.37 255.15h97.7v11h-97.7z"/><path style="fill:#999;stroke:#263238;stroke-linecap:round;stroke-linejoin:round" d="M391.64 445.05h4.93l1.75-159.43h-6.68v159.43z"/><path style="fill:#858585;stroke:#263238;stroke-linecap:round;stroke-linejoin:round" d="M386.72 445.05h4.92V285.62h-6.68l1.76 159.43z"/><path style="fill:#999;stroke:#263238;stroke-linecap:round;stroke-linejoin:round" d="M326.63 445.05h4.92l1.76-159.43h-6.68v159.43z"/><path style="fill:#858585;stroke:#263238;stroke-linecap:round;stroke-linejoin:round" d="M321.7 445.05h4.93V285.62h-6.69l1.76 159.43z"/><path style="fill:#999;stroke:#263238;stroke-linecap:round;stroke-linejoin:round" d="M173.03 445.05h4.92l1.76-159.43h-6.68v159.43z"/><path style="fill:#858585;stroke:#263238;stroke-linecap:round;stroke-linejoin:round" d="M168.1 445.05h4.93V285.62h-6.69l1.76 159.43z"/><path style="fill:#999;stroke:#263238;stroke-linecap:round;stroke-linejoin:round" d="M108 445.05h4.93l1.76-159.43H108v159.43z"/><path style="fill:#858585;stroke:#263238;stroke-linecap:round;stroke-linejoin:round" d="M103.08 445.05H108V285.62h-6.67l1.75 159.43z"/><path d="M201.83 224H206l3.1-17.93a2.06 2.06 0 0 0-2-2.41h0a2.05 2.05 0 0 0-2 1.71Z" style="fill:#263238;stroke:#263238;stroke-linecap:round;stroke-linejoin:round"/><path d="M189.52 224h4.38l-1.67-16.61a1.07 1.07 0 0 0-1.07-1H189a1.07 1.07 0 0 0-1.07 1.19Z" style="fill:#fff;stroke:#263238;stroke-linecap:round;stroke-linejoin:round"/><path style="fill:#999;stroke:#263238;stroke-linecap:round;stroke-linejoin:round" d="M197.29 224.02h2.78l1.76-19.71h-2.78l-1.76 19.71z"/><path d="M192.23 214.17H205a4 4 0 0 1 4 4v37.29h0-20.8 0v-37.27a4 4 0 0 1 4.03-4.02Z" transform="rotate(180 198.605 234.825)" style="fill:#fff;stroke:#263238;stroke-linecap:round;stroke-linejoin:round"/><path d="M205.49 225.27v25a1.94 1.94 0 0 1-1.93 1.94h-7.38M205.49 219.24v2.83" style="fill:none;stroke:#263238;stroke-linecap:round;stroke-linejoin:round"/><path transform="rotate(180 110.035 421.9)" style="fill:#999;stroke:#263238;stroke-linecap:round;stroke-linejoin:round" d="M89.63 399.11h40.81v45.57H89.63z"/><path style="fill:#fff;stroke:#263238;stroke-linecap:round;stroke-linejoin:round" d="M130.24 399.11h27.7v45.57h-27.7z"/><path d="M89.87 389.82a23 23 0 0 0 13.15 4 3.32 3.32 0 0 0 1.62-.32 1.63 1.63 0 0 0 .87-1.47 2.39 2.39 0 0 0-1.15-1.62 38.52 38.52 0 0 0-9.54-5.19 35.38 35.38 0 0 0-5.2-1.49c-1.42-.3-2.93-1-4.35-1-.27 3.1 2.53 5.7 4.6 7.09ZM145.93 372.12a11.58 11.58 0 0 1 7.77-4.48.63.63 0 0 1 .5.09.94.94 0 0 1 .23.71 18.61 18.61 0 0 1-3.35 11 8.47 8.47 0 0 1-3.82 3.23 4.24 4.24 0 0 1-3.5-.21c-1.06-.6-.86-1.47-.76-2.66a14.8 14.8 0 0 1 2.93-7.68Z" style="fill:#198754"/><path d="M145.93 372.12a11.58 11.58 0 0 1 7.77-4.48.63.63 0 0 1 .5.09.94.94 0 0 1 .23.71 18.61 18.61 0 0 1-3.35 11 8.47 8.47 0 0 1-3.82 3.23 4.24 4.24 0 0 1-3.5-.21c-1.06-.6-.86-1.47-.76-2.66a14.8 14.8 0 0 1 2.93-7.68Z" style="opacity:.2"/><path d="M126.91 375.72a10.89 10.89 0 0 0 2.58-6.53 11.47 11.47 0 0 0-1.61-5.77 31.12 31.12 0 0 0-3.49-4.68 102.66 102.66 0 0 0-.39 13.36 7.11 7.11 0 0 0 .49 2.76 2 2 0 0 0 2 1.26Z" style="fill:#198754"/><path d="M132.55 362.16a17.24 17.24 0 0 0-4.7 11 8.72 8.72 0 0 0 .67 4.31 3.44 3.44 0 0 0 3.18 2.15c1.35-.15 2.4-1.4 3.17-2.68 1.27-2.12 2.82-5.15 2.09-7.77a14 14 0 0 0-4.41-7.01Z" style="fill:#198754"/><path d="M132.55 362.16a17.24 17.24 0 0 0-4.7 11 8.72 8.72 0 0 0 .67 4.31 3.44 3.44 0 0 0 3.18 2.15c1.35-.15 2.4-1.4 3.17-2.68 1.27-2.12 2.82-5.15 2.09-7.77a14 14 0 0 0-4.41-7.01Z" style="opacity:.1"/><path d="M140.9 376.89c2.24-2.1 3.16-5.6 3.06-8.89a36.11 36.11 0 0 0-2.05-9.57 39.87 39.87 0 0 0-5.27 10 13.56 13.56 0 0 0-1 4.31 5.65 5.65 0 0 0 1.37 4 2.72 2.72 0 0 0 3.63.38l-.37.23Z" style="fill:#198754"/><path d="M140.9 376.89c2.24-2.1 3.16-5.6 3.06-8.89a36.11 36.11 0 0 0-2.05-9.57 39.87 39.87 0 0 0-5.27 10 13.56 13.56 0 0 0-1 4.31 5.65 5.65 0 0 0 1.37 4 2.72 2.72 0 0 0 3.63.38l-.37.23Z" style="opacity:.2"/><path d="M146 364c.56 4.07 1.11 8.24.42 12.28s-2.86 8-6.26 9.43c-1.42.59-3.24.6-4.19-.73a4.08 4.08 0 0 1-.42-3.29 11.34 11.34 0 0 1 1.46-3c2.72-4.42 8.38-15.12 8.95-14.67Z" style="fill:#198754"/><path d="M146 364c.56 4.07 1.11 8.24.42 12.28s-2.86 8-6.26 9.43c-1.42.59-3.24.6-4.19-.73a4.08 4.08 0 0 1-.42-3.29 11.34 11.34 0 0 1 1.46-3c2.72-4.42 8.38-15.12 8.95-14.67Z" style="fill:#198754"/><path d="M146 364c.56 4.07 1.11 8.24.42 12.28s-2.86 8-6.26 9.43c-1.42.59-3.24.6-4.19-.73a4.08 4.08 0 0 1-.42-3.29 11.34 11.34 0 0 1 1.46-3c2.72-4.42 8.38-15.12 8.95-14.67Z" style="opacity:.1"/><path d="M135.5 369.46a24.57 24.57 0 0 1 2.91 7.82 13.65 13.65 0 0 1-1 8.27c-1.25 2.46-3.59 4.28-6.1 4.3a5.73 5.73 0 0 1-4.88-3c-1.16-2-.32-3.88.57-5.87 2-4.54 5.28-8.1 8.5-11.52ZM160.48 377a4.69 4.69 0 0 1 .2 3.95 9.85 9.85 0 0 1-2.19 3.26 27 27 0 0 1-22.71 8.68A2.2 2.2 0 0 1 134 392a2 2 0 0 1 .56-2.27 4.73 4.73 0 0 1 2.12-.88 36.18 36.18 0 0 0 11.87-5.41c3.64-2.59 8.01-4.34 11.93-6.44Z" style="fill:#198754"/><path d="M160.48 377a4.69 4.69 0 0 1 .2 3.95 9.85 9.85 0 0 1-2.19 3.26 27 27 0 0 1-22.71 8.68A2.2 2.2 0 0 1 134 392a2 2 0 0 1 .56-2.27 4.73 4.73 0 0 1 2.12-.88 36.18 36.18 0 0 0 11.87-5.41c3.64-2.59 8.01-4.34 11.93-6.44Z" style="opacity:.1"/><path d="M146 377c.61-.9 1.37-1.94 2.37-1.83.77.09 1.34.87 1.66 1.67 1.3 3.26-.26 7.25-2.74 9.45s-5.67 3-8.74 3.81l-3.16.8c-1.26.31-3.78-.11-2.66-2.1.75-1.33 3.27-2.08 4.43-2.87A33 33 0 0 0 146 377ZM159 389.82a23 23 0 0 1-13.16 4 3.36 3.36 0 0 1-1.62-.32 1.62 1.62 0 0 1-.86-1.47 2.36 2.36 0 0 1 1.15-1.62 38.52 38.52 0 0 1 9.54-5.19 35.38 35.38 0 0 1 5.2-1.49c1.41-.3 2.92-1 4.35-1 .31 3.1-2.49 5.7-4.6 7.09Z" style="fill:#198754"/><path d="M146.29 402a20.19 20.19 0 0 0 10.8-4.56c.61-.48 1.27-1.25 1-2a1.77 1.77 0 0 0-1.25-.95c-3.67-1.23-7.42-2.47-11.24-2.31a12.87 12.87 0 0 0-5.27 1.36c-1.29.65-4 2.26-4.34 4s3 3.1 4.19 3.58a14.08 14.08 0 0 0 6.11.88Z" style="fill:#198754"/><path d="M146.29 402a20.19 20.19 0 0 0 10.8-4.56c.61-.48 1.27-1.25 1-2a1.77 1.77 0 0 0-1.25-.95c-3.67-1.23-7.42-2.47-11.24-2.31a12.87 12.87 0 0 0-5.27 1.36c-1.29.65-4 2.26-4.34 4s3 3.1 4.19 3.58a14.08 14.08 0 0 0 6.11.88Z" style="opacity:.1"/><path d="M131 392.41a33.4 33.4 0 0 1 11.49-.62 6.51 6.51 0 0 1 2.76.79 3.23 3.23 0 0 1 1.57 2.56 3.36 3.36 0 0 1-1.42 2.69 7.9 7.9 0 0 1-2.71 1.1c-2.76.73-5.6 1.43-8.42 1.05a8.63 8.63 0 0 1-5.85-3.21c-1.76-2.49.58-3.9 2.58-4.36Z" style="fill:#198754"/><path d="M131 392.41a33.4 33.4 0 0 1 11.49-.62 6.51 6.51 0 0 1 2.76.79 3.23 3.23 0 0 1 1.57 2.56 3.36 3.36 0 0 1-1.42 2.69 7.9 7.9 0 0 1-2.71 1.1c-2.76.73-5.6 1.43-8.42 1.05a8.63 8.63 0 0 1-5.85-3.21c-1.76-2.49.58-3.9 2.58-4.36Z" style="fill:#fff;opacity:.1"/><path d="M119.47 392.37a6 6 0 0 1-1.88-2.07 2.72 2.72 0 0 1 .18-2.8c.87-1 5.74-2.49 7-2.77a4.84 4.84 0 0 1 3 .64c1.4.65 2.77 1.35 4.13 2.09a6.34 6.34 0 0 1 1.87 1.39 2.79 2.79 0 0 1 .66 2.33 3.34 3.34 0 0 1-2.43 2.12 21.93 21.93 0 0 1-8.08 1.28c.22-.04-3.24-1.28-4.45-2.21Z" style="fill:#198754"/><path d="M119.47 392.37a6 6 0 0 1-1.88-2.07 2.72 2.72 0 0 1 .18-2.8c.87-1 5.74-2.49 7-2.77a4.84 4.84 0 0 1 3 .64c1.4.65 2.77 1.35 4.13 2.09a6.34 6.34 0 0 1 1.87 1.39 2.79 2.79 0 0 1 .66 2.33 3.34 3.34 0 0 1-2.43 2.12 21.93 21.93 0 0 1-8.08 1.28c.22-.04-3.24-1.28-4.45-2.21Z" style="opacity:.1"/><path d="M129.35 394.29a4.61 4.61 0 0 1 2.9 2.44 3.51 3.51 0 0 1-.56 3.85 4.26 4.26 0 0 1-2.56.85l-3.32.33a2.68 2.68 0 0 1-2-.35c-.78-.63-.85-1.88-.84-3a9.07 9.07 0 0 1 .37-3 2.17 2.17 0 0 1 2.41-1.65 26.17 26.17 0 0 1 3.6.53ZM103 372.12a11.56 11.56 0 0 0-7.77-4.48.63.63 0 0 0-.5.09.9.9 0 0 0-.22.71 18.6 18.6 0 0 0 3.34 11 8.58 8.58 0 0 0 3.82 3.23 4.24 4.24 0 0 0 3.5-.21c1.06-.6.87-1.47.76-2.66a14.8 14.8 0 0 0-2.93-7.68Z" style="fill:#198754"/><path d="M103 372.12a11.56 11.56 0 0 0-7.77-4.48.63.63 0 0 0-.5.09.9.9 0 0 0-.22.71 18.6 18.6 0 0 0 3.34 11 8.58 8.58 0 0 0 3.82 3.23 4.24 4.24 0 0 0 3.5-.21c1.06-.6.87-1.47.76-2.66a14.8 14.8 0 0 0-2.93-7.68Z" style="opacity:.2"/><path d="M122 375.72a10.89 10.89 0 0 1-2.58-6.53 11.38 11.38 0 0 1 1.62-5.77 30.39 30.39 0 0 1 3.48-4.68 102.66 102.66 0 0 1 .36 13.36 7.12 7.12 0 0 1-.5 2.76 1.94 1.94 0 0 1-2 1.26Z" style="fill:#198754"/><path d="M116.35 362.16a17.3 17.3 0 0 1 4.71 11 8.83 8.83 0 0 1-.67 4.31 3.44 3.44 0 0 1-3.18 2.15c-1.36-.15-2.41-1.4-3.17-2.68-1.27-2.12-2.82-5.15-2.1-7.77a14.09 14.09 0 0 1 4.41-7.01Z" style="fill:#198754"/><path d="M116.35 362.16a17.3 17.3 0 0 1 4.71 11 8.83 8.83 0 0 1-.67 4.31 3.44 3.44 0 0 1-3.18 2.15c-1.36-.15-2.41-1.4-3.17-2.68-1.27-2.12-2.82-5.15-2.1-7.77a14.09 14.09 0 0 1 4.41-7.01Z" style="opacity:.1"/><path d="M108 376.89c-2.25-2.1-3.16-5.6-3.06-8.89a36.11 36.11 0 0 1 2-9.57 39.87 39.87 0 0 1 5.27 10 13.54 13.54 0 0 1 1 4.31 5.65 5.65 0 0 1-1.37 4 2.72 2.72 0 0 1-3.63.38l.38.23Z" style="fill:#198754"/><path d="M108 376.89c-2.25-2.1-3.16-5.6-3.06-8.89a36.11 36.11 0 0 1 2-9.57 39.87 39.87 0 0 1 5.27 10 13.54 13.54 0 0 1 1 4.31 5.65 5.65 0 0 1-1.37 4 2.72 2.72 0 0 1-3.63.38l.38.23Z" style="opacity:.2"/><path d="M102.89 364c-.56 4.07-1.11 8.24-.43 12.28s2.87 8 6.27 9.43c1.41.59 3.24.6 4.19-.73a4.08 4.08 0 0 0 .41-3.29 11.34 11.34 0 0 0-1.46-3c-2.71-4.42-8.37-15.12-9-14.67Z" style="fill:#198754"/><path d="M102.89 364c-.56 4.07-1.11 8.24-.43 12.28s2.87 8 6.27 9.43c1.41.59 3.24.6 4.19-.73a4.08 4.08 0 0 0 .41-3.29 11.34 11.34 0 0 0-1.46-3c-2.71-4.42-8.37-15.12-9-14.67Z" style="fill:#198754"/><path d="M102.89 364c-.56 4.07-1.11 8.24-.43 12.28s2.87 8 6.27 9.43c1.41.59 3.24.6 4.19-.73a4.08 4.08 0 0 0 .41-3.29 11.34 11.34 0 0 0-1.46-3c-2.71-4.42-8.37-15.12-9-14.67Z" style="opacity:.1"/><path d="M113.4 369.46a24.55 24.55 0 0 0-2.9 7.82 13.65 13.65 0 0 0 1 8.27c1.25 2.46 3.6 4.28 6.1 4.3a5.74 5.74 0 0 0 4.89-3c1.16-2 .31-3.88-.57-5.87-1.92-4.54-5.3-8.1-8.52-11.52ZM88.42 377.3a4.55 4.55 0 0 0-.2 3.87 9.46 9.46 0 0 0 2.15 3.19 26.44 26.44 0 0 0 22.26 8.51 2.13 2.13 0 0 0 1.77-.9 1.94 1.94 0 0 0-.55-2.22 4.56 4.56 0 0 0-2.07-.86 35.42 35.42 0 0 1-11.64-5.31c-3.6-2.48-7.88-4.21-11.72-6.28Z" style="fill:#198754"/><path d="M88.42 377.3a4.55 4.55 0 0 0-.2 3.87 9.46 9.46 0 0 0 2.15 3.19 26.44 26.44 0 0 0 22.26 8.51 2.13 2.13 0 0 0 1.77-.9 1.94 1.94 0 0 0-.55-2.22 4.56 4.56 0 0 0-2.07-.86 35.42 35.42 0 0 1-11.64-5.31c-3.6-2.48-7.88-4.21-11.72-6.28Z" style="opacity:.1"/><path d="M102.23 376.69c-.6-.88-1.35-1.91-2.33-1.8-.76.09-1.31.86-1.63 1.65-1.27 3.2.25 7.11 2.69 9.27s5.56 3 8.58 3.74l3.11.79c1.23.31 3.7-.11 2.6-2.06-.74-1.31-3.2-2-4.35-2.82a32.32 32.32 0 0 1-8.67-8.77ZM102.61 402a20.12 20.12 0 0 1-10.79-4.56c-.61-.48-1.28-1.25-1-2a1.77 1.77 0 0 1 1.25-.95c3.67-1.23 7.42-2.47 11.25-2.31a13 13 0 0 1 5.27 1.36c1.29.65 4 2.26 4.34 4s-3 3.1-4.19 3.58a14.12 14.12 0 0 1-6.13.88Z" style="fill:#198754"/><path d="M102.61 402a20.12 20.12 0 0 1-10.79-4.56c-.61-.48-1.28-1.25-1-2a1.77 1.77 0 0 1 1.25-.95c3.67-1.23 7.42-2.47 11.25-2.31a13 13 0 0 1 5.27 1.36c1.29.65 4 2.26 4.34 4s-3 3.1-4.19 3.58a14.12 14.12 0 0 1-6.13.88Z" style="opacity:.1"/><path d="M117.93 392.41a33.47 33.47 0 0 0-11.5-.62 6.55 6.55 0 0 0-2.76.79 3.22 3.22 0 0 0-1.56 2.56 3.36 3.36 0 0 0 1.42 2.69 7.93 7.93 0 0 0 2.7 1.1c2.77.73 5.61 1.43 8.43 1.05a8.63 8.63 0 0 0 5.85-3.21c1.74-2.49-.51-3.9-2.58-4.36Z" style="fill:#198754"/><path d="M117.93 392.41a33.47 33.47 0 0 0-11.5-.62 6.55 6.55 0 0 0-2.76.79 3.22 3.22 0 0 0-1.56 2.56 3.36 3.36 0 0 0 1.42 2.69 7.93 7.93 0 0 0 2.7 1.1c2.77.73 5.61 1.43 8.43 1.05a8.63 8.63 0 0 0 5.85-3.21c1.74-2.49-.51-3.9-2.58-4.36Z" style="fill:#fff;opacity:.1"/><path d="M129.44 392.37a5.82 5.82 0 0 0 1.87-2.07 2.72 2.72 0 0 0-.17-2.8c-.88-1-5.74-2.49-7-2.77a4.86 4.86 0 0 0-3 .64c-1.39.65-2.77 1.35-4.12 2.09a6.38 6.38 0 0 0-1.88 1.39 2.78 2.78 0 0 0-.65 2.33 3.31 3.31 0 0 0 2.39 2.12 21.9 21.9 0 0 0 8.08 1.28c-.19-.04 3.27-1.28 4.48-2.21Z" style="fill:#198754"/><path d="M129.44 392.37a5.82 5.82 0 0 0 1.87-2.07 2.72 2.72 0 0 0-.17-2.8c-.88-1-5.74-2.49-7-2.77a4.86 4.86 0 0 0-3 .64c-1.39.65-2.77 1.35-4.12 2.09a6.38 6.38 0 0 0-1.88 1.39 2.78 2.78 0 0 0-.65 2.33 3.31 3.31 0 0 0 2.39 2.12 21.9 21.9 0 0 0 8.08 1.28c-.19-.04 3.27-1.28 4.48-2.21Z" style="opacity:.1"/><path d="M119.55 394.29a4.64 4.64 0 0 0-2.9 2.44 3.51 3.51 0 0 0 .57 3.85 4.23 4.23 0 0 0 2.55.85l3.33.33a2.68 2.68 0 0 0 2-.35c.77-.63.84-1.88.83-3a8.59 8.59 0 0 0-.37-3 2.16 2.16 0 0 0-2.41-1.65 26.61 26.61 0 0 0-3.6.53ZM125 370.5a2.28 2.28 0 0 0-.59-.36.38.38 0 0 1 .2 0 .19.19 0 0 1 .12 0 .26.26 0 0 1 .11.08l.09.12a.33.33 0 0 1 0 .12.05.05 0 0 1 .07.04Z" style="fill:#198754"/><path d="M125 370.5a2.28 2.28 0 0 0-.59-.36.38.38 0 0 1 .2 0 .19.19 0 0 1 .12 0 .26.26 0 0 1 .11.08l.09.12a.33.33 0 0 1 0 .12.05.05 0 0 1 .07.04Z" style="fill:#198754;opacity:.1"/><path d="M129.18 381.79a9.07 9.07 0 0 1-1.72 3 3.81 3.81 0 0 1-2.88 1.4h-.26a3.84 3.84 0 0 1-2.88-1.4 9.42 9.42 0 0 1-1.72-3 9.87 9.87 0 0 1-.71-4.68 8.09 8.09 0 0 1 2.34-4.49c.3 0 1.28-1.14 1.58-1.37l.09-.06.09-.08c.21-.16.49-.41.76-.62l.37-.25.11-.05a.24.24 0 0 1 .1-.05 2.28 2.28 0 0 1 .59.36c.37.27.74.61.93.75s1.28 1.37 1.59 1.37a8.08 8.08 0 0 1 2.33 4.49 9.75 9.75 0 0 1-.71 4.68Z" style="fill:#198754"/><path d="M124.45 370.14a.24.24 0 0 0-.1.05l-.11.05-.37.25c.09-.23.21-.38.39-.39a.36.36 0 0 1 .19.04Z" style="fill:#198754"/><g style="opacity:.2"><path d="M129.18 381.79a9.07 9.07 0 0 1-1.72 3 3.81 3.81 0 0 1-2.88 1.4h-.26a3.84 3.84 0 0 1-2.88-1.4 9.42 9.42 0 0 1-1.72-3 9.87 9.87 0 0 1-.71-4.68 8.09 8.09 0 0 1 2.34-4.49c.3 0 1.28-1.14 1.58-1.37s.58-.48.94-.76a2.35 2.35 0 0 1 .58-.35 2.13 2.13 0 0 1 .59.36c.37.27.74.61.93.75s1.28 1.37 1.59 1.37a8.08 8.08 0 0 1 2.33 4.49 9.75 9.75 0 0 1-.71 4.68Z" style="fill:#fff"/><path d="M124.45 370.14a2.35 2.35 0 0 0-.58.35c.09-.23.21-.38.39-.39a.36.36 0 0 1 .19.04Z" style="fill:#fff"/></g><path d="M125 370.5a2.13 2.13 0 0 0-.59-.36.38.38 0 0 1 .2 0c.21-.03.39.12.39.36Z" style="fill:#fff;opacity:.1"/><path style="fill:none;stroke:#263238;stroke-linecap:round;stroke-linejoin:round" d="M266.44 32.76V48.7h-3.94M262.5 48.7V32.76"/><path d="M262.5 46.3a35.08 35.08 0 0 0-35.08 35.08h70.16A35.09 35.09 0 0 0 262.5 46.3Z" style="fill:#fff"/><g style="clip-path:url(#b)"><path d="M256 46.91q1.61-.3 3.24-.45a35.08 35.08 0 0 1 31.83 34.92h-6.5A35.08 35.08 0 0 0 256 46.91Z" style="fill:#999"/></g><path d="M262.5 46.3a35.08 35.08 0 0 0-35.08 35.08h70.16A35.09 35.09 0 0 0 262.5 46.3Z" style="fill:none;stroke:#263238;stroke-linecap:round;stroke-linejoin:round"/></svg>