<svg xmlns="http://www.w3.org/2000/svg" viewBox="0 0 500 500"><path d="M439.86 258.52c6.22 4.59 34.75 4 41.17 0 .57-2.49.28-8-.61-15.3l-7.65 4.11 6.92-9.69c-1-7.06-2.42-15.2-4.07-23.54l-4.74 2.64 4.05-6.08c-.32-1.57-.64-3.13-1-4.69l-5.4 2.65 4.64-6.2c-1.38-6.31-2.84-12.49-4.32-18.15l-4.3 1.25s1.62-2.43 3.33-5c-1.51-5.58-3-10.54-4.44-14.46a3.2 3.2 0 0 0-6 0c-1.9 5.28-4 12.45-6 20.5l3.82 6.4-4.43-3.92c-.92 3.72-1.83 7.59-2.7 11.52l6.12 10.92-7.37-5.14c-1.22 5.77-2.35 11.56-3.35 17.1l6 5.94-6.63-2.13c-.13.68-.24 1.34-.35 2l6.13 8.25-6.85-3.75c-1.89 11.86-2.76 21.31-1.97 24.77Z" style="fill:#07801c"/><path d="M439.86 258.52c6.22 4.59 34.75 4 41.17 0 .57-2.49.28-8-.61-15.3l-7.65 4.11 6.92-9.69c-1-7.06-2.42-15.2-4.07-23.54l-4.74 2.64 4.05-6.08c-.32-1.57-.64-3.13-1-4.69l-5.4 2.65 4.64-6.2c-1.38-6.31-2.84-12.49-4.32-18.15l-4.3 1.25s1.62-2.43 3.33-5c-1.51-5.58-3-10.54-4.44-14.46a3.2 3.2 0 0 0-6 0c-1.9 5.28-4 12.45-6 20.5l3.82 6.4-4.43-3.92c-.92 3.72-1.83 7.59-2.7 11.52l6.12 10.92-7.37-5.14c-1.22 5.77-2.35 11.56-3.35 17.1l6 5.94-6.63-2.13c-.13.68-.24 1.34-.35 2l6.13 8.25-6.85-3.75c-1.89 11.86-2.76 21.31-1.97 24.77Z" style="fill:#fff;opacity:.2"/><path d="m458.94 232-8.69-16.35 8.83 10.83 1.37-50.74 1.06 30.87 6.18-8.93-6 14.51 1.07 31.27 11.79-10.87L462.93 248l1 42.94c0 1.82-6.18 1.82-6.18 0l1.2-59Z" style="fill:#37474f"/><path d="M408.39 209c6.6 4.86 36.81 4.18 43.62 0 .48-2 .39-6.07-.11-11.41l-7.85 2.84 7.3-7.85c-.83-6.85-2.15-15.14-3.77-23.89l-4.43 1.85 3.86-4.9-.51-2.58-10.5 5.37 9.08-12.43c-1.42-6.82-2.95-13.65-4.52-20.06l-6.85 5.73 5.93-9.38c-.43-1.71-.87-3.38-1.3-5l-6.07 3.3 5-7.29c-1.31-4.65-2.62-8.81-3.85-12.21a3.39 3.39 0 0 0-6.38 0c-1.85 5.1-3.84 11.88-5.82 19.5l3.09 7.13-4.37-2c-.48 1.94-1 3.93-1.42 5.94 2.07 6.35 4.65 14.31 4.65 14.47L417.49 146c-5.95 26.42-10.69 56.05-9.1 63Z" style="fill:#07801c"/><path d="M408.39 209c6.6 4.86 36.81 4.18 43.62 0 .48-2 .39-6.07-.11-11.41l-7.85 2.84 7.3-7.85c-.83-6.85-2.15-15.14-3.77-23.89l-4.43 1.85 3.86-4.9-.51-2.58-10.5 5.37 9.08-12.43c-1.42-6.82-2.95-13.65-4.52-20.06l-6.85 5.73 5.93-9.38c-.43-1.71-.87-3.38-1.3-5l-6.07 3.3 5-7.29c-1.31-4.65-2.62-8.81-3.85-12.21a3.39 3.39 0 0 0-6.38 0c-1.85 5.1-3.84 11.88-5.82 19.5l3.09 7.13-4.37-2c-.48 1.94-1 3.93-1.42 5.94 2.07 6.35 4.65 14.31 4.65 14.47L417.49 146c-5.95 26.42-10.69 56.05-9.1 63Z" style="opacity:.2"/><path d="m428.6 180.94-9.2-17.33 9.36 11.48 1.44-53.76 1.13 32.67 6.55-9.46-6.35 15.46 1.14 33.13 12.48-11.51-12.32 16.28 1.05 53.58c0 1.93-6.55 1.93-6.55 0l1.27-70.54Z" style="fill:#37474f"/><path d="M59 215.07c6.86 4.9 38.27 4.22 45.35 0a32.66 32.66 0 0 0 .13-8.39l-10.71 4.76 10.23-9.83c-.6-5.52-1.61-12.21-2.88-19.47l-3.92 2 3.57-4c-.73-4.1-1.55-8.35-2.44-12.65l-6.37 5 5.69-8.25c-.18-.9-.37-1.8-.56-2.69l-8.72 7 7.38-13c-1.36-6-2.8-12-4.24-17.48l-5.69 4.19c.14-.24 2.41-4 4.69-7.88-1.88-6.91-3.77-13-5.52-17.74a3.58 3.58 0 0 0-6.65 0c-1.67 4.49-3.46 10.23-5.25 16.74l3.47 7.39-4.14-4.92c-1.12 4.16-2.23 8.58-3.31 13.11l7.45 15.89-8.8-10.08c-.14.62-.29 1.25-.42 1.88l3.58 8.2-4.16-5.58c-1.52 6.92-2.92 13.89-4.11 20.47L73 191.75l-11.18-7.23c-.26 1.52-.5 3-.74 4.47l5.25 5.62-5.88-1.61c-1.55 10.56-2.21 18.81-1.45 22.07Z" style="fill:#07801c"/><path d="M59 215.07c6.86 4.9 38.27 4.22 45.35 0a32.66 32.66 0 0 0 .13-8.39l-10.71 4.76 10.23-9.83c-.6-5.52-1.61-12.21-2.88-19.47l-3.92 2 3.57-4c-.73-4.1-1.55-8.35-2.44-12.65l-6.37 5 5.69-8.25c-.18-.9-.37-1.8-.56-2.69l-8.72 7 7.38-13c-1.36-6-2.8-12-4.24-17.48l-5.69 4.19c.14-.24 2.41-4 4.69-7.88-1.88-6.91-3.77-13-5.52-17.74a3.58 3.58 0 0 0-6.65 0c-1.67 4.49-3.46 10.23-5.25 16.74l3.47 7.39-4.14-4.92c-1.12 4.16-2.23 8.58-3.31 13.11l7.45 15.89-8.8-10.08c-.14.62-.29 1.25-.42 1.88l3.58 8.2-4.16-5.58c-1.52 6.92-2.92 13.89-4.11 20.47L73 191.75l-11.18-7.23c-.26 1.52-.5 3-.74 4.47l5.25 5.62-5.88-1.61c-1.55 10.56-2.21 18.81-1.45 22.07Z" style="fill:#fff;opacity:.35000000000000003"/><path d="m80 189.24-9.56-18 9.73 11.92 1.5-55.86 1.16 34 6.81-9.84-6.6 16 1.19 34.43 13-12-12.8 17 1.09 48c0 2-6.81 2-6.81 0L80 189.24Z" style="fill:#37474f"/><path d="M25.62 263.75c6.53 4 35.57 4.66 41.91 0 .58-2.54.28-8.23-.63-15.69l-8.22 3.5 7.58-8.41c-.72-5.12-1.66-10.82-2.75-16.79l-5 2.21 4.7-4c-.26-1.38-.52-2.77-.79-4.18L54 225.25l7.55-9.15c-.93-4.64-1.93-9.31-3-13.86l-4.34 2.33 3.55-6.11c-1.08-4.44-3.14-12.4-4.23-16.3l-4.41 3.51 3.73-5.92c-1.1-3.8-2.19-7.21-3.22-10.08a3.26 3.26 0 0 0-6.13 0c-1.58 4.37-3.27 10-4.95 16.36l3.45 7.79-4.56-3.45c-1.18 4.68-2.35 9.64-3.49 14.72l5.75 14.5-6.89-9.22c-.4 1.93-.81 3.88-1.2 5.81l4.1 8-4.69-5c-1.13 5.74-2.14 11.36-3 16.61l9.38 14.73-10.15-9.7c-.24 1.58-.46 3.12-.66 4.59l7.08 8.69L26 250c-.71 6.53-.91 11.44-.38 13.75Z" style="fill:#07801c"/><path d="M25.62 263.75c6.53 4 35.57 4.66 41.91 0 .58-2.54.28-8.23-.63-15.69l-8.22 3.5 7.58-8.41c-.72-5.12-1.66-10.82-2.75-16.79l-5 2.21 4.7-4c-.26-1.38-.52-2.77-.79-4.18L54 225.25l7.55-9.15c-.93-4.64-1.93-9.31-3-13.86l-4.34 2.33 3.55-6.11c-1.08-4.44-3.14-12.4-4.23-16.3l-4.41 3.51 3.73-5.92c-1.1-3.8-2.19-7.21-3.22-10.08a3.26 3.26 0 0 0-6.13 0c-1.58 4.37-3.27 10-4.95 16.36l3.45 7.79-4.56-3.45c-1.18 4.68-2.35 9.64-3.49 14.72l5.75 14.5-6.89-9.22c-.4 1.93-.81 3.88-1.2 5.81l4.1 8-4.69-5c-1.13 5.74-2.14 11.36-3 16.61l9.38 14.73-10.15-9.7c-.24 1.58-.46 3.12-.66 4.59l7.08 8.69L26 250c-.71 6.53-.91 11.44-.38 13.75Z" style="fill:#fff;opacity:.2"/><path d="m35.69 227.83 8.79 12.45.93-26.87-4.75-16.07 4.92 11 1-28.79 1.12 41.55 4.94-5.9-4.79 11.35.63 23.58L58.68 240l-10.03 17 .68 30.6c0 1.86-6.29 1.86-6.29 0l1.17-39.3Z" style="fill:#37474f"/><path d="M95.47 222.19c5.49 3.39 29.88 3.92 35.2 0 .41-1.78.3-5.42-.19-10.24L125 213l5.08-4.4c-.23-1.87-.5-3.87-.82-6l-10.12 4 9.64-7.14c-1-6.43-2.36-13.6-3.86-20.74l-7.8 6.28 7.1-9.67c-.62-2.86-1.26-5.69-1.91-8.46l-6.36 4 5.6-7.15c-.61-2.47-1.22-4.87-1.83-7.16l-3.72 4.15 2.5-8.73c-1-3.33-1.9-6.31-2.8-8.79a2.73 2.73 0 0 0-5.15 0c-1.5 4.14-3.12 9.64-4.72 15.84l2.85 6.13-3.74-2.6c-1.2 4.83-2.37 9.94-3.46 15.11l5.75 11.86-6.68-7.31c-.5 2.48-1 4.95-1.43 7.37l3.72 5.58-4.29-2.5c-.92 5.2-1.7 10.13-2.27 14.45l6 9.46-6.72-3.58c-.4 4.31-.46 7.54-.09 9.19Z" style="fill:#07801c"/><path d="M95.47 222.19c5.49 3.39 29.88 3.92 35.2 0 .41-1.78.3-5.42-.19-10.24L125 213l5.08-4.4c-.23-1.87-.5-3.87-.82-6l-10.12 4 9.64-7.14c-1-6.43-2.36-13.6-3.86-20.74l-7.8 6.28 7.1-9.67c-.62-2.86-1.26-5.69-1.91-8.46l-6.36 4 5.6-7.15c-.61-2.47-1.22-4.87-1.83-7.16l-3.72 4.15 2.5-8.73c-1-3.33-1.9-6.31-2.8-8.79a2.73 2.73 0 0 0-5.15 0c-1.5 4.14-3.12 9.64-4.72 15.84l2.85 6.13-3.74-2.6c-1.2 4.83-2.37 9.94-3.46 15.11l5.75 11.86-6.68-7.31c-.5 2.48-1 4.95-1.43 7.37l3.72 5.58-4.29-2.5c-.92 5.2-1.7 10.13-2.27 14.45l6 9.46-6.72-3.58c-.4 4.31-.46 7.54-.09 9.19Z" style="opacity:.2"/><path d="m114.36 199.54 7.43-14-7.55 9.26-1.17-43.37-.9 26.39-5.29-7.64 5.12 12.43-.92 26.73-10.08-9.29 10 13.18-.84 42c0 1.56 5.28 1.56 5.28 0l-1-55.7Z" style="fill:#37474f"/><path d="M375.52 222.19c5.49 3.39 29.87 3.92 35.2 0 .4-1.78.29-5.42-.2-10.24l-5.46 1 5.09-4.4c-.24-1.87-.51-3.87-.82-6l-10.12 4 9.63-7.14c-1-6.43-2.35-13.6-3.85-20.74l-7.83 6.33 7.11-9.67c-.62-2.86-1.27-5.69-1.92-8.46l-6.36 4 5.61-7.15c-.61-2.47-1.22-4.87-1.83-7.16l-3.77 4.15 2.5-8.73c-.95-3.33-1.89-6.31-2.79-8.79a2.74 2.74 0 0 0-5.16 0c-1.5 4.14-3.12 9.64-4.72 15.84l2.86 6.13-3.75-2.6c-1.19 4.83-2.36 9.94-3.46 15.11l5.75 11.86-6.68-7.31c-.5 2.48-1 4.95-1.42 7.37l3.71 5.58-4.28-2.5c-.92 5.2-1.7 10.13-2.27 14.45l6 9.46-6.68-3.58c-.41 4.31-.47 7.54-.09 9.19Z" style="fill:#07801c"/><path d="M375.52 222.19c5.49 3.39 29.87 3.92 35.2 0 .4-1.78.29-5.42-.2-10.24l-5.46 1 5.09-4.4c-.24-1.87-.51-3.87-.82-6l-10.12 4 9.63-7.14c-1-6.43-2.35-13.6-3.85-20.74l-7.83 6.33 7.11-9.67c-.62-2.86-1.27-5.69-1.92-8.46l-6.36 4 5.61-7.15c-.61-2.47-1.22-4.87-1.83-7.16l-3.77 4.15 2.5-8.73c-.95-3.33-1.89-6.31-2.79-8.79a2.74 2.74 0 0 0-5.16 0c-1.5 4.14-3.12 9.64-4.72 15.84l2.86 6.13-3.75-2.6c-1.19 4.83-2.36 9.94-3.46 15.11l5.75 11.86-6.68-7.31c-.5 2.48-1 4.95-1.42 7.37l3.71 5.58-4.28-2.5c-.92 5.2-1.7 10.13-2.27 14.45l6 9.46-6.68-3.58c-.41 4.31-.47 7.54-.09 9.19Z" style="fill:#fff;opacity:.35000000000000003"/><path d="m394.41 199.54 7.42-14-7.55 9.26-1.16-43.37-.91 26.39-5.29-7.64 5.13 12.41-.92 26.73-10.08-9.29 9.95 13.2-.84 42c0 1.56 5.28 1.56 5.28 0l-1-55.7Z" style="fill:#37474f"/><path d="M58.28 356a5.89 5.89 0 0 1 3.21.57 33.37 33.37 0 0 1 5.24 3.71 10.52 10.52 0 0 0 5.81 2.51c2.15.07 4.46-1.26 4.85-3.37a3 3 0 0 1 .27-1.07 1.56 1.56 0 0 1 1.83-.47 9.33 9.33 0 0 1 1.76 1c2.17 1.29 4.89 1 7.38.63 2.07-.3 4.69-1.21 4.68-3.31 0-1.36-1.2-2.37-2.14-3.37s-1.7-2.58-.84-3.64a2.45 2.45 0 0 1 1.2-.73c2.59-.85 5.76.28 8-1.35a4.57 4.57 0 0 0 1.15-5.48 7 7 0 0 0-4.68-3.54c-1.74-.44-3.95-.64-4.6-2.32-.57-1.47.58-3 1.86-4s2.81-1.49 3.74-2.77a4.49 4.49 0 0 0 .13-4.64 5.7 5.7 0 0 0-3.91-2.68 8.58 8.58 0 0 1-2.37-.52 1.59 1.59 0 0 1-.88-2c.24-.42.73-.64 1-1a1.9 1.9 0 0 0-.7-2.47 9.63 9.63 0 0 0-2.65-1c-1.88-.63-2.84-1.62-2.29-3.52s3.25-1.84 4.06-3.74c.71-1.68-1.25-5.25-2.76-6.28s-3.34-1.45-5-2.23-3.24-2.15-3.38-4 1.27-3.44 2.41-4.92 2.1-3.55 1.11-5.13-3.08-1.61-4.8-2.16a7.77 7.77 0 0 1-4.72-4.26c-.46-1.05-.68-2.2-1.22-3.21-1.7-3.14-6-4.51-9.28-4.13a3.77 3.77 0 0 0-3.15 2.14 5.11 5.11 0 0 0-1.16 2.17c-.24 1.52.55 3.45-.87 4.61-2.18 1.75-5.5-.61-5.39 3.32a17 17 0 0 0 .74 4.9c.59 1.65 1.77 2.36.79 4.21-1.28 2.4-2.11 2.39-4.67 2.38-1.85 0-3.4-.1-4.76 1.3-2.38 2.47-1 4.71 1.16 6.61 2.41 2.16 1.13 3.11.81 5.92-.15 1.34.16 1.76-1.05 2.65-2.28 1.7-3.55 1.13-2.91 4.44.58 3-.32 2-2.94 3.12-2.33 1-3.87 3.51-5.75 5.07-1.21 1-3.06 1.79-3.17 3.55-.22 3.38 4 2.64 6 3.44 3.27 1.32 2.29 5.6-.25 7.2-2.7 1.69-6.63 2.32-6.85 6.19-.16 3 1.52 3.62 3.82 4.61 1.84.8 1.61 1 1.6 3.22 0 4.42 1.49 5.67 5.85 4.95 1.19-.19 3-.7 4.21-.34 1.66.5 1.1.91 1.15 2.3.12 3.57 4.27 2.57 6 1 2.04-1.75 4.57-3.8 7.32-4.07Z" style="fill:#07801c"/><path d="M58.28 356a5.89 5.89 0 0 1 3.21.57 33.37 33.37 0 0 1 5.24 3.71 10.52 10.52 0 0 0 5.81 2.51c2.15.07 4.46-1.26 4.85-3.37a3 3 0 0 1 .27-1.07 1.56 1.56 0 0 1 1.83-.47 9.33 9.33 0 0 1 1.76 1c2.17 1.29 4.89 1 7.38.63 2.07-.3 4.69-1.21 4.68-3.31 0-1.36-1.2-2.37-2.14-3.37s-1.7-2.58-.84-3.64a2.45 2.45 0 0 1 1.2-.73c2.59-.85 5.76.28 8-1.35a4.57 4.57 0 0 0 1.15-5.48 7 7 0 0 0-4.68-3.54c-1.74-.44-3.95-.64-4.6-2.32-.57-1.47.58-3 1.86-4s2.81-1.49 3.74-2.77a4.49 4.49 0 0 0 .13-4.64 5.7 5.7 0 0 0-3.91-2.68 8.58 8.58 0 0 1-2.37-.52 1.59 1.59 0 0 1-.88-2c.24-.42.73-.64 1-1a1.9 1.9 0 0 0-.7-2.47 9.63 9.63 0 0 0-2.65-1c-1.88-.63-2.84-1.62-2.29-3.52s3.25-1.84 4.06-3.74c.71-1.68-1.25-5.25-2.76-6.28s-3.34-1.45-5-2.23-3.24-2.15-3.38-4 1.27-3.44 2.41-4.92 2.1-3.55 1.11-5.13-3.08-1.61-4.8-2.16a7.77 7.77 0 0 1-4.72-4.26c-.46-1.05-.68-2.2-1.22-3.21-1.7-3.14-6-4.51-9.28-4.13a3.77 3.77 0 0 0-3.15 2.14 5.11 5.11 0 0 0-1.16 2.17c-.24 1.52.55 3.45-.87 4.61-2.18 1.75-5.5-.61-5.39 3.32a17 17 0 0 0 .74 4.9c.59 1.65 1.77 2.36.79 4.21-1.28 2.4-2.11 2.39-4.67 2.38-1.85 0-3.4-.1-4.76 1.3-2.38 2.47-1 4.71 1.16 6.61 2.41 2.16 1.13 3.11.81 5.92-.15 1.34.16 1.76-1.05 2.65-2.28 1.7-3.55 1.13-2.91 4.44.58 3-.32 2-2.94 3.12-2.33 1-3.87 3.51-5.75 5.07-1.21 1-3.06 1.79-3.17 3.55-.22 3.38 4 2.64 6 3.44 3.27 1.32 2.29 5.6-.25 7.2-2.7 1.69-6.63 2.32-6.85 6.19-.16 3 1.52 3.62 3.82 4.61 1.84.8 1.61 1 1.6 3.22 0 4.42 1.49 5.67 5.85 4.95 1.19-.19 3-.7 4.21-.34 1.66.5 1.1.91 1.15 2.3.12 3.57 4.27 2.57 6 1 2.04-1.75 4.57-3.8 7.32-4.07Z" style="opacity:.1"/><path d="M91.53 348.48c2-.65 4.32-.14 6.28-.61a24.24 24.24 0 0 0-3.52-.55 10 10 0 0 0-7.6 3 6.88 6.88 0 0 1 1.53 4.56c-4.94 1.34-9.8-5.28-14.51-3.26.29 2.39 0 5.6-2.31 6.13a3.8 3.8 0 0 1-3.6-1.75c-.85-1.12-1.37-2.46-2.22-3.57a7.57 7.57 0 0 0-10-1.47c-1.27.93-2.87 2.33-4.14 1.4s-.54-3.68-2-4.43c-1-.5-2.41.3-3.25-.45a2.25 2.25 0 0 1-.58-1.23c-.6-2.52-1.12-5.44.47-7.49 1.42-1.83 4.41-3 4.09-5.24-.28-1.95-2.76-2.54-4.72-2.77s-4.44-1.15-4.35-3.12 2.72-2.87 3.11-4.77c.16-.81-.11-1.71.26-2.45.56-1.12 2.15-1.16 3.09-2 1.67-1.48.37-4.26.85-6.44.33-1.55 1.59-2.77 2-4.3.83-3-2-6-4.86-7.2a18.44 18.44 0 0 1-3.41-1.47.39.39 0 0 0-.1-.08c.07 1.38 1.1 2.66 2.39 3.82 2.41 2.16 1.13 3.11.81 5.92-.15 1.34.16 1.76-1.05 2.65-2.28 1.7-3.55 1.13-2.91 4.44.58 3-.32 2-2.94 3.12-2.33 1-3.87 3.51-5.75 5.07-1.21 1-3.06 1.79-3.17 3.55-.22 3.38 4 2.64 6 3.44 3.27 1.32 2.29 5.6-.25 7.2-2.7 1.69-6.63 2.32-6.85 6.19-.16 3 1.52 3.62 3.82 4.61 1.84.8 1.61 1 1.6 3.22 0 4.42 1.49 5.67 5.85 4.95 1.19-.19 3-.7 4.21-.34 1.66.5 1.1.91 1.15 2.3.12 3.57 4.27 2.57 6 1 2-1.76 4.58-3.81 7.33-4.07a5.89 5.89 0 0 1 3.21.57 33.37 33.37 0 0 1 5.24 3.71 10.52 10.52 0 0 0 5.81 2.51c2.15.07 4.46-1.26 4.85-3.37a3 3 0 0 1 .27-1.07 1.56 1.56 0 0 1 1.83-.47 9.33 9.33 0 0 1 1.76 1c2.17 1.29 4.89 1 7.38.63 2.07-.3 4.69-1.21 4.68-3.31 0-1.37-1.2-2.37-2.14-3.37s-1.7-2.58-.84-3.64a2.45 2.45 0 0 1 1.2-.7Z" style="opacity:.2"/><path d="m51.48 319.58 11.9 23.59v-10.85l1.21-46.24 1.76 46.24v7.3l13.07-22.86-13.07 28.06v78.64a.73.73 0 0 1-.44.6 2.29 2.29 0 0 1-2.1 0 .71.71 0 0 1-.43-.6v-74.27Z"/><path d="M284.13 189.42a5.87 5.87 0 0 1 3.18.57 32.36 32.36 0 0 1 5.17 3.67 10.54 10.54 0 0 0 5.75 2.48c2.11.07 4.4-1.25 4.78-3.34a3.18 3.18 0 0 1 .27-1.06 1.54 1.54 0 0 1 1.81-.46 9.12 9.12 0 0 1 1.74 1c2.15 1.27 4.83 1 7.29.62 2.05-.29 4.64-1.2 4.63-3.27 0-1.35-1.19-2.35-2.11-3.33s-1.69-2.55-.84-3.6a2.48 2.48 0 0 1 1.2-.7c2.56-.84 5.69.27 7.85-1.33a4.52 4.52 0 0 0 1.14-5.42 6.86 6.86 0 0 0-4.61-3.51c-1.72-.44-3.91-.64-4.55-2.3-.56-1.45.57-3 1.84-3.91s2.81-1.51 3.69-2.79c2.26-3.26-.25-9-2.94-11.2-1.34-1.09-3-1.91-3.78-3.46-1.07-2.2.19-4.75.49-7.17a9.14 9.14 0 0 0-3.91-8.5c-1.68-1.12-4-2-4.26-4s1.48-3.44 1.7-5.31-1.2-3.65-2.84-4.65-3.55-1.49-5.23-2.44c-3.44-2-3.63-5.13-5.87-7.81-1.84-2.19-5.43-3-8.16-2.7a3.7 3.7 0 0 0-3.11 2.12 4.91 4.91 0 0 0-1.14 2.14c-.25 1.5.54 3.41-.87 4.55-2.15 1.74-5.44-.6-5.32 3.28a16.83 16.83 0 0 0 .72 4.84c.59 1.63 1.76 2.34.79 4.17-1.27 2.4-2.1 2.4-4.63 2.4-1.83 0-3.35-.1-4.7 1.29-2.35 2.43-.95 4.64 1.14 6.52 2.38 2.14 1.12 3.08.81 5.85-.15 1.33.16 1.74-1 2.63-2.25 1.67-3.51 1.11-2.88 4.38.58 3-.31 2-2.9 3.09-2.3 1-3.82 3.46-5.68 5-1.2 1-3 1.76-3.14 3.5-.21 3.34 3.93 2.61 5.91 3.4 3.22 1.31 2.26 5.53-.26 7.11s-6.55 2.3-6.76 6.12c-.16 2.93 1.5 3.58 3.78 4.56 1.81.78 1.58 1 1.58 3.18 0 4.37 1.47 5.6 5.77 4.89 1.18-.19 3-.69 4.16-.34 1.65.5 1.09.9 1.14 2.28.11 3.53 4.22 2.54 6 1 1.92-1.76 4.44-3.78 7.16-4.04Z" style="fill:#07801c"/><path d="M284.13 189.42a5.87 5.87 0 0 1 3.18.57 32.36 32.36 0 0 1 5.17 3.67 10.54 10.54 0 0 0 5.75 2.48c2.11.07 4.4-1.25 4.78-3.34a3.18 3.18 0 0 1 .27-1.06 1.54 1.54 0 0 1 1.81-.46 9.12 9.12 0 0 1 1.74 1c2.15 1.27 4.83 1 7.29.62 2.05-.29 4.64-1.2 4.63-3.27 0-1.35-1.19-2.35-2.11-3.33s-1.69-2.55-.84-3.6a2.48 2.48 0 0 1 1.2-.7c2.56-.84 5.69.27 7.85-1.33a4.52 4.52 0 0 0 1.14-5.42 6.86 6.86 0 0 0-4.61-3.51c-1.72-.44-3.91-.64-4.55-2.3-.56-1.45.57-3 1.84-3.91s2.81-1.51 3.69-2.79c2.26-3.26-.25-9-2.94-11.2-1.34-1.09-3-1.91-3.78-3.46-1.07-2.2.19-4.75.49-7.17a9.14 9.14 0 0 0-3.91-8.5c-1.68-1.12-4-2-4.26-4s1.48-3.44 1.7-5.31-1.2-3.65-2.84-4.65-3.55-1.49-5.23-2.44c-3.44-2-3.63-5.13-5.87-7.81-1.84-2.19-5.43-3-8.16-2.7a3.7 3.7 0 0 0-3.11 2.12 4.91 4.91 0 0 0-1.14 2.14c-.25 1.5.54 3.41-.87 4.55-2.15 1.74-5.44-.6-5.32 3.28a16.83 16.83 0 0 0 .72 4.84c.59 1.63 1.76 2.34.79 4.17-1.27 2.4-2.1 2.4-4.63 2.4-1.83 0-3.35-.1-4.7 1.29-2.35 2.43-.95 4.64 1.14 6.52 2.38 2.14 1.12 3.08.81 5.85-.15 1.33.16 1.74-1 2.63-2.25 1.67-3.51 1.11-2.88 4.38.58 3-.31 2-2.9 3.09-2.3 1-3.82 3.46-5.68 5-1.2 1-3 1.76-3.14 3.5-.21 3.34 3.93 2.61 5.91 3.4 3.22 1.31 2.26 5.53-.26 7.11s-6.55 2.3-6.76 6.12c-.16 2.93 1.5 3.58 3.78 4.56 1.81.78 1.58 1 1.58 3.18 0 4.37 1.47 5.6 5.77 4.89 1.18-.19 3-.69 4.16-.34 1.65.5 1.09.9 1.14 2.28.11 3.53 4.22 2.54 6 1 1.92-1.76 4.44-3.78 7.16-4.04Z" style="opacity:.1"/><path d="M317 182c2-.64 4.26-.14 6.21-.6a23.93 23.93 0 0 0-3.48-.55 9.87 9.87 0 0 0-7.51 3 6.84 6.84 0 0 1 1.51 4.51c-2.68.73-5.3-.88-7.6-2-1.16-.58-2.22-1.26-3.55-.94a4.72 4.72 0 0 0-3.09 2.53c-.63 1.34-.63 2.88-2.39 3.28a3.75 3.75 0 0 1-3.55-1.71c-.84-1.1-1.35-2.43-2.2-3.53a7.46 7.46 0 0 0-9.92-1.44c-1.26.91-2.84 2.29-4.1 1.38s-.53-3.64-2-4.38c-1-.49-2.38.29-3.22-.44a2.22 2.22 0 0 1-.56-1.22c-.59-2.49-1.11-5.38.46-7.4 1.4-1.81 4.36-2.92 4-5.18-.27-1.93-2.73-2.51-4.67-2.74s-4.38-1.14-4.29-3.09 2.69-2.83 3.07-4.7c.16-.81-.11-1.7.26-2.43.55-1.1 2.12-1.14 3.05-2 1.65-1.46.37-4.21.84-6.37.33-1.53 1.57-2.73 2-4.24.82-3-1.93-5.89-4.8-7.12a17.34 17.34 0 0 1-3.27-1.51l-.11-.08a6 6 0 0 0 2.36 3.77c2.38 2.14 1.12 3.08.81 5.85-.15 1.33.16 1.74-1 2.63-2.25 1.67-3.51 1.11-2.88 4.38.58 3-.31 2-2.9 3.09-2.3 1-3.82 3.46-5.68 5-1.2 1-3 1.76-3.14 3.5-.21 3.34 3.93 2.61 5.91 3.4 3.22 1.31 2.26 5.53-.26 7.11s-6.55 2.3-6.76 6.12c-.16 2.93 1.5 3.58 3.78 4.56 1.81.78 1.58 1 1.58 3.18 0 4.37 1.47 5.6 5.77 4.89 1.18-.19 3-.69 4.16-.34 1.65.5 1.09.9 1.14 2.28.11 3.53 4.22 2.54 6 1 2-1.74 4.52-3.76 7.24-4a5.87 5.87 0 0 1 3.18.57 32.36 32.36 0 0 1 5.17 3.67 10.54 10.54 0 0 0 5.75 2.48c2.11.07 4.4-1.25 4.78-3.34a3.18 3.18 0 0 1 .27-1.06 1.54 1.54 0 0 1 1.81-.46 9.12 9.12 0 0 1 1.74 1c2.15 1.27 4.83 1 7.29.62 2.05-.29 4.64-1.2 4.63-3.27 0-1.35-1.19-2.35-2.11-3.33s-1.69-2.55-.84-3.6A2.48 2.48 0 0 1 317 182Z" style="opacity:.2"/><path d="m277.41 153.43 11.76 23.31V166l1.2-45.69L292.1 166v7.21l12.9-22.57-12.9 27.72v70a.71.71 0 0 1-.43.6 2.29 2.29 0 0 1-2.07 0 .71.71 0 0 1-.43-.6v-65.68Z"/></svg>