<svg xmlns="http://www.w3.org/2000/svg" viewBox="0 0 500 500"><path d="M439.86 258.52c6.22 4.59 34.75 4 41.17 0 .57-2.49.28-8-.61-15.3l-7.65 4.11 6.92-9.69c-1-7.06-2.42-15.2-4.07-23.54l-4.74 2.64 4.05-6.08c-.32-1.57-.64-3.13-1-4.69l-5.4 2.65 4.64-6.2c-1.38-6.31-2.84-12.49-4.32-18.15l-4.3 1.25s1.62-2.43 3.33-5c-1.51-5.58-3-10.54-4.44-14.46a3.2 3.2 0 0 0-6 0c-1.9 5.28-4 12.45-6 20.5l3.82 6.4-4.43-3.92c-.92 3.72-1.83 7.59-2.7 11.52l6.12 10.92-7.37-5.14c-1.22 5.77-2.35 11.56-3.35 17.1l6 5.94-6.63-2.13c-.13.68-.24 1.34-.35 2l6.13 8.25-6.85-3.75c-1.89 11.86-2.76 21.31-1.97 24.77Z" style="fill:#043904"/><path d="M439.86 258.52c6.22 4.59 34.75 4 41.17 0 .57-2.49.28-8-.61-15.3l-7.65 4.11 6.92-9.69c-1-7.06-2.42-15.2-4.07-23.54l-4.74 2.64 4.05-6.08c-.32-1.57-.64-3.13-1-4.69l-5.4 2.65 4.64-6.2c-1.38-6.31-2.84-12.49-4.32-18.15l-4.3 1.25s1.62-2.43 3.33-5c-1.51-5.58-3-10.54-4.44-14.46a3.2 3.2 0 0 0-6 0c-1.9 5.28-4 12.45-6 20.5l3.82 6.4-4.43-3.92c-.92 3.72-1.83 7.59-2.7 11.52l6.12 10.92-7.37-5.14c-1.22 5.77-2.35 11.56-3.35 17.1l6 5.94-6.63-2.13c-.13.68-.24 1.34-.35 2l6.13 8.25-6.85-3.75c-1.89 11.86-2.76 21.31-1.97 24.77Z" style="fill:#fff;opacity:.2"/><path d="m458.94 232-8.69-16.35 8.83 10.83 1.37-50.74 1.06 30.87 6.18-8.93-6 14.51 1.07 31.27 11.79-10.87L462.93 248l1 42.94c0 1.82-6.18 1.82-6.18 0l1.2-59Z" style="fill:#37474f"/><path d="M408.39 209c6.6 4.86 36.81 4.18 43.62 0 .48-2 .39-6.07-.11-11.41l-7.85 2.84 7.3-7.85c-.83-6.85-2.15-15.14-3.77-23.89l-4.43 1.85 3.86-4.9-.51-2.58-10.5 5.37 9.08-12.43c-1.42-6.82-2.95-13.65-4.52-20.06l-6.85 5.73 5.93-9.38c-.43-1.71-.87-3.38-1.3-5l-6.07 3.3 5-7.29c-1.31-4.65-2.62-8.81-3.85-12.21a3.39 3.39 0 0 0-6.38 0c-1.85 5.1-3.84 11.88-5.82 19.5l3.09 7.13-4.37-2c-.48 1.94-1 3.93-1.42 5.94 2.07 6.35 4.65 14.31 4.65 14.47L417.49 146c-5.95 26.42-10.69 56.05-9.1 63Z" style="fill:#043904"/><path d="M408.39 209c6.6 4.86 36.81 4.18 43.62 0 .48-2 .39-6.07-.11-11.41l-7.85 2.84 7.3-7.85c-.83-6.85-2.15-15.14-3.77-23.89l-4.43 1.85 3.86-4.9-.51-2.58-10.5 5.37 9.08-12.43c-1.42-6.82-2.95-13.65-4.52-20.06l-6.85 5.73 5.93-9.38c-.43-1.71-.87-3.38-1.3-5l-6.07 3.3 5-7.29c-1.31-4.65-2.62-8.81-3.85-12.21a3.39 3.39 0 0 0-6.38 0c-1.85 5.1-3.84 11.88-5.82 19.5l3.09 7.13-4.37-2c-.48 1.94-1 3.93-1.42 5.94 2.07 6.35 4.65 14.31 4.65 14.47L417.49 146c-5.95 26.42-10.69 56.05-9.1 63Z" style="opacity:.2"/><path d="m428.6 180.94-9.2-17.33 9.36 11.48 1.44-53.76 1.13 32.67 6.55-9.46-6.35 15.46 1.14 33.13 12.48-11.51-12.32 16.28 1.05 53.58c0 1.93-6.55 1.93-6.55 0l1.27-70.54Z" style="fill:#37474f"/><path d="M59 215.07c6.86 4.9 38.27 4.22 45.35 0a32.66 32.66 0 0 0 .13-8.39l-10.71 4.76 10.23-9.83c-.6-5.52-1.61-12.21-2.88-19.47l-3.92 2 3.57-4c-.73-4.1-1.55-8.35-2.44-12.65l-6.37 5 5.69-8.25c-.18-.9-.37-1.8-.56-2.69l-8.72 7 7.38-13c-1.36-6-2.8-12-4.24-17.48l-5.69 4.19c.14-.24 2.41-4 4.69-7.88-1.88-6.91-3.77-13-5.52-17.74a3.58 3.58 0 0 0-6.65 0c-1.67 4.49-3.46 10.23-5.25 16.74l3.47 7.39-4.14-4.92c-1.12 4.16-2.23 8.58-3.31 13.11l7.45 15.89-8.8-10.08c-.14.62-.29 1.25-.42 1.88l3.58 8.2-4.16-5.58c-1.52 6.92-2.92 13.89-4.11 20.47L73 191.75l-11.18-7.23c-.26 1.52-.5 3-.74 4.47l5.25 5.62-5.88-1.61c-1.55 10.56-2.21 18.81-1.45 22.07Z" style="fill:#043904"/><path d="M59 215.07c6.86 4.9 38.27 4.22 45.35 0a32.66 32.66 0 0 0 .13-8.39l-10.71 4.76 10.23-9.83c-.6-5.52-1.61-12.21-2.88-19.47l-3.92 2 3.57-4c-.73-4.1-1.55-8.35-2.44-12.65l-6.37 5 5.69-8.25c-.18-.9-.37-1.8-.56-2.69l-8.72 7 7.38-13c-1.36-6-2.8-12-4.24-17.48l-5.69 4.19c.14-.24 2.41-4 4.69-7.88-1.88-6.91-3.77-13-5.52-17.74a3.58 3.58 0 0 0-6.65 0c-1.67 4.49-3.46 10.23-5.25 16.74l3.47 7.39-4.14-4.92c-1.12 4.16-2.23 8.58-3.31 13.11l7.45 15.89-8.8-10.08c-.14.62-.29 1.25-.42 1.88l3.58 8.2-4.16-5.58c-1.52 6.92-2.92 13.89-4.11 20.47L73 191.75l-11.18-7.23c-.26 1.52-.5 3-.74 4.47l5.25 5.62-5.88-1.61c-1.55 10.56-2.21 18.81-1.45 22.07Z" style="fill:#fff;opacity:.35000000000000003"/><path d="m80 189.24-9.56-18 9.73 11.92 1.5-55.86 1.16 34 6.81-9.84-6.6 16 1.19 34.43 13-12-12.8 17 1.09 48c0 2-6.81 2-6.81 0L80 189.24Z" style="fill:#37474f"/><path d="M25.62 263.75c6.53 4 35.57 4.66 41.91 0 .58-2.54.28-8.23-.63-15.69l-8.22 3.5 7.58-8.41c-.72-5.12-1.66-10.82-2.75-16.79l-5 2.21 4.7-4c-.26-1.38-.52-2.77-.79-4.18L54 225.25l7.55-9.15c-.93-4.64-1.93-9.31-3-13.86l-4.34 2.33 3.55-6.11c-1.08-4.44-3.14-12.4-4.23-16.3l-4.41 3.51 3.73-5.92c-1.1-3.8-2.19-7.21-3.22-10.08a3.26 3.26 0 0 0-6.13 0c-1.58 4.37-3.27 10-4.95 16.36l3.45 7.79-4.56-3.45c-1.18 4.68-2.35 9.64-3.49 14.72l5.75 14.5-6.89-9.22c-.4 1.93-.81 3.88-1.2 5.81l4.1 8-4.69-5c-1.13 5.74-2.14 11.36-3 16.61l9.38 14.73-10.15-9.7c-.24 1.58-.46 3.12-.66 4.59l7.08 8.69L26 250c-.71 6.53-.91 11.44-.38 13.75Z" style="fill:#043904"/><path d="M25.62 263.75c6.53 4 35.57 4.66 41.91 0 .58-2.54.28-8.23-.63-15.69l-8.22 3.5 7.58-8.41c-.72-5.12-1.66-10.82-2.75-16.79l-5 2.21 4.7-4c-.26-1.38-.52-2.77-.79-4.18L54 225.25l7.55-9.15c-.93-4.64-1.93-9.31-3-13.86l-4.34 2.33 3.55-6.11c-1.08-4.44-3.14-12.4-4.23-16.3l-4.41 3.51 3.73-5.92c-1.1-3.8-2.19-7.21-3.22-10.08a3.26 3.26 0 0 0-6.13 0c-1.58 4.37-3.27 10-4.95 16.36l3.45 7.79-4.56-3.45c-1.18 4.68-2.35 9.64-3.49 14.72l5.75 14.5-6.89-9.22c-.4 1.93-.81 3.88-1.2 5.81l4.1 8-4.69-5c-1.13 5.74-2.14 11.36-3 16.61l9.38 14.73-10.15-9.7c-.24 1.58-.46 3.12-.66 4.59l7.08 8.69L26 250c-.71 6.53-.91 11.44-.38 13.75Z" style="fill:#fff;opacity:.2"/><path d="m35.69 227.83 8.79 12.45.93-26.87-4.75-16.07 4.92 11 1-28.79 1.12 41.55 4.94-5.9-4.79 11.35.63 23.58L58.68 240l-10.03 17 .68 30.6c0 1.86-6.29 1.86-6.29 0l1.17-39.3Z" style="fill:#37474f"/><path d="M95.47 222.19c5.49 3.39 29.88 3.92 35.2 0 .41-1.78.3-5.42-.19-10.24L125 213l5.08-4.4c-.23-1.87-.5-3.87-.82-6l-10.12 4 9.64-7.14c-1-6.43-2.36-13.6-3.86-20.74l-7.8 6.28 7.1-9.67c-.62-2.86-1.26-5.69-1.91-8.46l-6.36 4 5.6-7.15c-.61-2.47-1.22-4.87-1.83-7.16l-3.72 4.15 2.5-8.73c-1-3.33-1.9-6.31-2.8-8.79a2.73 2.73 0 0 0-5.15 0c-1.5 4.14-3.12 9.64-4.72 15.84l2.85 6.13-3.74-2.6c-1.2 4.83-2.37 9.94-3.46 15.11l5.75 11.86-6.68-7.31c-.5 2.48-1 4.95-1.43 7.37l3.72 5.58-4.29-2.5c-.92 5.2-1.7 10.13-2.27 14.45l6 9.46-6.72-3.58c-.4 4.31-.46 7.54-.09 9.19Z" style="fill:#043904"/><path d="M95.47 222.19c5.49 3.39 29.88 3.92 35.2 0 .41-1.78.3-5.42-.19-10.24L125 213l5.08-4.4c-.23-1.87-.5-3.87-.82-6l-10.12 4 9.64-7.14c-1-6.43-2.36-13.6-3.86-20.74l-7.8 6.28 7.1-9.67c-.62-2.86-1.26-5.69-1.91-8.46l-6.36 4 5.6-7.15c-.61-2.47-1.22-4.87-1.83-7.16l-3.72 4.15 2.5-8.73c-1-3.33-1.9-6.31-2.8-8.79a2.73 2.73 0 0 0-5.15 0c-1.5 4.14-3.12 9.64-4.72 15.84l2.85 6.13-3.74-2.6c-1.2 4.83-2.37 9.94-3.46 15.11l5.75 11.86-6.68-7.31c-.5 2.48-1 4.95-1.43 7.37l3.72 5.58-4.29-2.5c-.92 5.2-1.7 10.13-2.27 14.45l6 9.46-6.72-3.58c-.4 4.31-.46 7.54-.09 9.19Z" style="opacity:.2"/><path d="m114.36 199.54 7.43-14-7.55 9.26-1.17-43.37-.9 26.39-5.29-7.64 5.12 12.43-.92 26.73-10.08-9.29 10 13.18-.84 42c0 1.56 5.28 1.56 5.28 0l-1-55.7Z" style="fill:#37474f"/><path d="M375.52 222.19c5.49 3.39 29.87 3.92 35.2 0 .4-1.78.29-5.42-.2-10.24l-5.46 1 5.09-4.4c-.24-1.87-.51-3.87-.82-6l-10.12 4 9.63-7.14c-1-6.43-2.35-13.6-3.85-20.74l-7.83 6.33 7.11-9.67c-.62-2.86-1.27-5.69-1.92-8.46l-6.36 4 5.61-7.15c-.61-2.47-1.22-4.87-1.83-7.16l-3.77 4.15 2.5-8.73c-.95-3.33-1.89-6.31-2.79-8.79a2.74 2.74 0 0 0-5.16 0c-1.5 4.14-3.12 9.64-4.72 15.84l2.86 6.13-3.75-2.6c-1.19 4.83-2.36 9.94-3.46 15.11l5.75 11.86-6.68-7.31c-.5 2.48-1 4.95-1.42 7.37l3.71 5.58-4.28-2.5c-.92 5.2-1.7 10.13-2.27 14.45l6 9.46-6.68-3.58c-.41 4.31-.47 7.54-.09 9.19Z" style="fill:#043904"/><path d="M375.52 222.19c5.49 3.39 29.87 3.92 35.2 0 .4-1.78.29-5.42-.2-10.24l-5.46 1 5.09-4.4c-.24-1.87-.51-3.87-.82-6l-10.12 4 9.63-7.14c-1-6.43-2.35-13.6-3.85-20.74l-7.83 6.33 7.11-9.67c-.62-2.86-1.27-5.69-1.92-8.46l-6.36 4 5.61-7.15c-.61-2.47-1.22-4.87-1.83-7.16l-3.77 4.15 2.5-8.73c-.95-3.33-1.89-6.31-2.79-8.79a2.74 2.74 0 0 0-5.16 0c-1.5 4.14-3.12 9.64-4.72 15.84l2.86 6.13-3.75-2.6c-1.19 4.83-2.36 9.94-3.46 15.11l5.75 11.86-6.68-7.31c-.5 2.48-1 4.95-1.42 7.37l3.71 5.58-4.28-2.5c-.92 5.2-1.7 10.13-2.27 14.45l6 9.46-6.68-3.58c-.41 4.31-.47 7.54-.09 9.19Z" style="fill:#fff;opacity:.35000000000000003"/><path d="m394.41 199.54 7.42-14-7.55 9.26-1.16-43.37-.91 26.39-5.29-7.64 5.13 12.41-.92 26.73-10.08-9.29 9.95 13.2-.84 42c0 1.56 5.28 1.56 5.28 0l-1-55.7Z" style="fill:#37474f"/><path d="M47 98.59c0-2.49-2.6-4.22-5.54-4.51-3.47-.34-5.93 1.28-6 4.15-2.27-1-4.65-.35-4.48 2.26-.58-.71-2.79-.69-3.58-.49a3.12 3.12 0 0 0-2 1.76 2.49 2.49 0 0 0-.21 1.34c-1.32-.45-4.33-.73-5.08.54-1.33 2.27 4 2.34 5.09 1.66.22 1.76 6 2 7.36.42 1.08 1.15 2.64 1.4 4.33 1.51 2.84.18 4.58-.84 6.8-2 2.41 2.14 6.57 2.18 8.74-.27a4.08 4.08 0 0 0 3.31.41c.8-.2 1-.56 1-.56a6.41 6.41 0 0 0 1.48.46c1.57.35 4.5 0 3.27-1.51a3.61 3.61 0 0 0-2.6-.67c-.68-1.42-3.44-2.76-5-1.56-.07-1.72-1.56-3.06-3.67-3.41-.76-.12-2.46-.23-3.22.47ZM90.17 75a7.13 7.13 0 0 0-2.53-.48c-.81-.07-1.07-.24-1.23-.43a5.85 5.85 0 0 0-7.23-2.24 4.6 4.6 0 0 0-5.45-3.24c.09-2.66-3.16-5.53-6.07-6.18s-5.23-.37-6.83 1.56c-1.71-3.5-8.4-4.48-12-2.63-2.09 1.06-3.85 2.16-4.72 4.16a8.75 8.75 0 0 0-.78 4 6.42 6.42 0 0 0-6.12-.9c-2 .83-2.19 2.44-2.29 4.07a6.92 6.92 0 0 0-3.7-.07A2.3 2.3 0 0 0 29.35 75c-1-.06-3.42.8-3.15 1.93S29.27 78 30.3 78a17.13 17.13 0 0 0 2.88-.48 4.07 4.07 0 0 0 1.5.3c1.76 0 2.5-.8 2.78-1.49.86 1.9 3.91 3.34 6.07 3.92 4 1.09 9.8.43 12.3-2.76A4.7 4.7 0 0 0 57 79a6.74 6.74 0 0 0 3.75 1.59c1.67.17 6.14.39 7.4-2.39.89 1.85 4.88 2.69 7.9 2.24a12 12 0 0 0 3.39-1.07 20.33 20.33 0 0 0 2-1.23A1.57 1.57 0 0 1 83.1 78a9.4 9.4 0 0 0 6.61 0c1.69-.72 2.04-2.21.46-3Z" style="fill:#455a64"/><circle cx="150.57" cy="61.88" r="46.34" transform="rotate(-7.02 150.524 61.845)" style="fill:#043904;opacity:.15"/><circle cx="150.57" cy="61.88" r="38.78" transform="rotate(-8.35 150.558 61.879)" style="fill:#043904;opacity:.15"/><circle cx="150.57" cy="61.88" r="31.02" transform="matrix(.97 -.23 .23 .97 -10.19 36.25)" style="fill:#043904"/><circle cx="150.57" cy="61.88" r="31.02" transform="matrix(.97 -.23 .23 .97 -10.19 36.25)" style="fill:#fff;opacity:.9500000000000001"/><path d="M139.13 76.75a1.8 1.8 0 0 0 1.32 1.71c.81.12 1.8-.54 2.38 0s.16 1.23.28 1.85a1.44 1.44 0 0 0 2.55.37c.22-.43.21-1 .45-1.39a1.28 1.28 0 0 1 2.32 1.07c-.24.66-.93 1-1.46 1.45a2.45 2.45 0 0 0-.91 2.12 1.61 1.61 0 0 0 1.66 1.41 6.16 6.16 0 0 0 1.33-.56 2.46 2.46 0 0 1 2.77.75c.24.3.4.66.65 1a2.3 2.3 0 0 0 3.09.17 2.82 2.82 0 0 0 .69-3.14c-.19-.46-.49-.87-.66-1.34a2.4 2.4 0 0 1 .64-2.66 1.88 1.88 0 0 1 2.6.26c.51.69.39 1.64.63 2.46s1.28 1.58 1.88 1 .2-1.5.77-1.91 1.22.1 1.43.67a7.34 7.34 0 0 1 .14 1.82c0 .61.37 1.3 1 1.4s1.23-.62 1.49-1.29.5-1.46 1.16-1.72 1.42.16 2.1 0c1.67-.48.87-3.53 2.4-4.36 1-.53 2.18.23 3.25 0 .7-.18 1.22-.79 1.87-1.12a4.27 4.27 0 0 1 1.1-.35 30.88 30.88 0 0 0 3.56-14.43 32.05 32.05 0 0 0-.26-3.94 9.53 9.53 0 0 0-1.86-3.39 32 32 0 0 1-2.68-2.79c-.54-.8-.84-1.75-1.44-2.51a2.18 2.18 0 0 0-2.53-.89 1.77 1.77 0 0 0-.84 1.73 2.85 2.85 0 0 0 1.11 1.8c.52.39 1.17.7 1.42 1.3A1.48 1.48 0 0 1 174 55a2 2 0 0 1-1.8.27c-1.06-.33-.37-1.26-.13-1.95.16-.45.12-1.06-.32-1.27s-.9.12-1.33.33a2.72 2.72 0 0 1-1.08.26 1.09 1.09 0 0 1-.47-.08c-.47-.23-.44-.92-.2-1.38a4.59 4.59 0 0 0 .73-1.38 1.57 1.57 0 0 0-.83-1.52 3.72 3.72 0 0 0-1.77-.41 2.18 2.18 0 0 1-1.82-.61c-.5-.44-.89-1-1.43-1.39a3.47 3.47 0 0 0-3.55-.32 3.52 3.52 0 0 0-1.92 3 2 2 0 0 1-.21 1.26 2.92 2.92 0 0 1-.76.52 1.78 1.78 0 0 0 .33 3c1.05.41 2.24-.18 3.32-.15 1.8 0 1.9 2.18.12 2.44-.54.07-1.54-.11-2.36 0s-1.35.35-1.3 1.25 1.21 1.74.64 2.42a.93.93 0 0 1-1.19 0 7.34 7.34 0 0 1-.94-.91 2 2 0 0 0-1.78-.56 1.27 1.27 0 0 0-1 1.46c.18.64 1 1.15.74 1.78s-.95.58-1.44.31-.84-.75-1.33-1c-1.13-.64-2.61 0-3.41 1.05s-.94 2.75.22 3.25c.71.31 1.51 0 2.27-.12s1.77.45 1.55 1.19c-.14.49-.74.68-1.07 1.08a1.51 1.51 0 0 0 .18 1.94 2.74 2.74 0 0 0 1.95.72c1.75 0 3.63-1.17 3.79-2.92.09-1-.29-2.07.32-2.82a2.25 2.25 0 0 1 1.88-.61 3.28 3.28 0 0 1 1.76.5 1.59 1.59 0 0 1 .69 1.6c-.14.59-.68 1-1.06 1.45s-.57 1.26-.09 1.62c.32.24.79.16 1.13.37.66.39.33 1.51-.37 1.83a3.72 3.72 0 0 1-2.26-.06 2.55 2.55 0 0 0-2.2.24c-.86.7-.55 2.13.16 3 .39.46.91.94.86 1.55a1.24 1.24 0 0 1-.82 1 1.82 1.82 0 0 1-2.35-1.32 10.26 10.26 0 0 1 0-1.24 2.36 2.36 0 0 0-1.53-2.12 1.87 1.87 0 0 0-2.28 1.07c-.17.5-.08 1.07-.3 1.56a1.58 1.58 0 0 1-2.55.21 2 2 0 0 1 .53-2.7c.68-.46 1.74-.7 1.81-1.52a1.12 1.12 0 0 0-.26-.76 1.75 1.75 0 0 0-2.86.4 3.07 3.07 0 0 1-.33.86c-.65.82-2.36 0-2.85.92-.23.46 0 1.05-.2 1.51s-1 .51-1.62.59a3.08 3.08 0 0 0-2.48 3.06Zm-19-21.07a4.76 4.76 0 0 0 1.15-.35c.68-.27 1.57-.44 2 .11.29.34.3.84.52 1.23a1.6 1.6 0 0 0 1.92.63 2.59 2.59 0 0 0 1.45-1.57 5.19 5.19 0 0 1 .77-1.82 1.51 1.51 0 0 1 2.55 1.45c-.25.89-1.24 1.36-1.7 2.17a1.9 1.9 0 0 0 .44 2.39 1.61 1.61 0 0 0 2.3-.44c.36-.68.26-1.73 1-2 .89-.34 1.45 1 2.23 1.49a1.58 1.58 0 0 0 2-2.42c-.31-.31-.76-.5-.94-.9-.36-.81.75-1.59 1.61-1.4a8.82 8.82 0 0 1 2.28 1.3 4.08 4.08 0 0 0 4.07-.12 2.55 2.55 0 0 0 1-1.08c.49-1.21-.42-2.73.27-3.82a1.49 1.49 0 0 1 2.65 1.33c-.26.7-1 1.1-1.36 1.76a2.46 2.46 0 0 0 1.14 3.13 5.63 5.63 0 0 0 3.61.43 1.87 1.87 0 0 0 1.13-.43c.81-.84-.32-2.2-.16-3.35.17-1.33 2-2 2.11-3.33.07-.72-.4-1.46-.2-2.16.39-1.31 2.64-1.23 3-2.54a1.52 1.52 0 0 0-.59-1.58 3.15 3.15 0 0 0-1.69-.55c-.8 0-1.81-.09-2.11-.83s.57-1.6 1.4-1.92a4.22 4.22 0 0 1 2.32-.33 2.14 2.14 0 0 1 1.7 1.47 7.49 7.49 0 0 0 .15.8 1.9 1.9 0 0 0 2 1 15.31 15.31 0 0 1 2.41-.32c2.25.19 3.57 3.09 5.83 3.22a.74.74 0 0 0 .63-.2.82.82 0 0 0 .09-.65 6.45 6.45 0 0 0-3.86-4.81c-1.28-.51-2.73-.61-3.93-1.28a21.15 21.15 0 0 1-2.31-1.81 3.4 3.4 0 0 0-2.73-.82c-1.12.27-1.8 1.37-2.48 2.3s-1.73 1.87-2.85 1.59a3 3 0 0 0-1-1.54c-.54-.32-1.42-.13-1.53.49-.08.41.21.8.29 1.21.18.93-.67 1.73-1.5 2.16a4.89 4.89 0 0 0-2.26 1.62 7 7 0 0 0-.42 1.19 2.75 2.75 0 0 1-1.91 1.86 1.77 1.77 0 0 1-2.09-1.34 2.82 2.82 0 0 1 .58-1.76 3.07 3.07 0 0 0 .65-1.76c0-.63-.68-1.25-1.26-1s-.62 1.33-1.17 1.82-1.49.19-2.2-.11-1.73-.45-2.12.22.14 1.36.3 2.06a2.13 2.13 0 0 1-3 2.23c-.6-1 1.3-2.14.89-3.25-.29-.77-1.43-.75-2.13-.32a2.3 2.3 0 0 1-1.14.53c-.68 0-1.1-.84-1-1.49a3.45 3.45 0 0 1 1.15-1.63c.46-.43 1.06-.89 1.64-.66.38.16.59.56.88.84A1.72 1.72 0 0 0 135 42c.32-.32.5-.77.87-1 .85-.64 2.18 0 3.09-.55a1.38 1.38 0 0 0 .37-1.94c-.25-.34-.69-.58-.76-1-.14-.76.78-1.34.74-2.15a2.73 2.73 0 0 0-1.1-1.87h-.05a31.12 31.12 0 0 0-13.81 11.88 2.82 2.82 0 0 0 .84 1.31 12 12 0 0 1 1.21.91 1 1 0 0 1 .11 1.37 1.18 1.18 0 0 1-.8.25 5 5 0 0 1-2.74-.77l-.25-.16a30.88 30.88 0 0 0-2.55 7.4Z" style="fill:#043904;opacity:.1"/><path d="M315.53 136.72a.9.9 0 0 1-.76 1 .92.92 0 0 1-1-.77.9.9 0 0 1 1.79-.26ZM247 137.45a.91.91 0 0 1 .53-1.16.91.91 0 1 1 .63 1.7.9.9 0 0 1-1.16-.54ZM409.89 106.58a.91.91 0 1 1-1.81 0 .91.91 0 0 1 1.81 0ZM400.84 144.17a.91.91 0 0 1-1.81 0 .91.91 0 1 1 1.81 0ZM287.15 35.59a.9.9 0 0 1-1.19.47.9.9 0 0 1 .71-1.66.91.91 0 0 1 .48 1.19ZM346 111.71a.59.59 0 0 1-.5.67.59.59 0 0 1-.17-1.17.6.6 0 0 1 .67.5ZM221.83 40.06a.91.91 0 0 1 1.79.28.91.91 0 1 1-1.79-.28ZM211.59 47.86a.59.59 0 1 1 .49.67.59.59 0 0 1-.49-.67ZM258.48 59.93a.59.59 0 1 1 1.16.18.59.59 0 0 1-1.16-.18ZM381.42 80a.59.59 0 1 1 .49.67.59.59 0 0 1-.49-.67ZM390.68 132.81a.59.59 0 0 1 .67-.49.58.58 0 0 1 .49.67.59.59 0 0 1-1.16-.18ZM138.8 132.22a.59.59 0 1 1 .49.67.59.59 0 0 1-.49-.67ZM299.42 37.09a.59.59 0 0 1-1.08-.46.59.59 0 0 1 1.08.46ZM287.62 47.85a.59.59 0 0 1-.78.31.59.59 0 0 1-.3-.77.58.58 0 0 1 .77-.31.6.6 0 0 1 .31.77ZM356.09 107a.39.39 0 0 1-.77 0 .39.39 0 1 1 .77 0ZM236.38 151.83a.58.58 0 0 1 .34-.76.59.59 0 1 1 .41 1.1.58.58 0 0 1-.75-.34ZM416 96.52a.59.59 0 1 1-.59-.59.58.58 0 0 1 .59.59ZM455.65 140.65a.59.59 0 1 1-.58-.59.58.58 0 0 1 .58.59ZM101.07 116.58a.59.59 0 1 1-.58-.59.58.58 0 0 1 .58.59Z" style="fill:#e0e0e0"/><path d="M264.66 105a2.13 2.13 0 0 1-1.38.82 2.09 2.09 0 0 1-1.55-.39 2.1 2.1 0 0 1 .94-3.76 2.13 2.13 0 0 1 1.56.4 2.08 2.08 0 0 1 .82 1.37 2.12 2.12 0 0 1-.39 1.56Z" style="fill:#043904"/><path d="M264.18 104.61a2.06 2.06 0 0 1-2.9.43 2.09 2.09 0 0 1-.43-2.9 2.11 2.11 0 0 1 1.37-.82 2.07 2.07 0 0 1 1.54.39 2.07 2.07 0 0 1 .42 2.9Z" style="fill:#043904;opacity:.9901979999999999"/><path d="M263.71 104.26a2.05 2.05 0 0 1-1.35.81 2.09 2.09 0 0 1-1.53-.39 2 2 0 0 1-.8-1.35 2 2 0 0 1 .38-1.52 2.05 2.05 0 0 1 1.35-.81 2.09 2.09 0 0 1 1.53.38 2 2 0 0 1 .8 1.36 2 2 0 0 1-.38 1.52Z" style="fill:#043904;opacity:.9803959999999999"/><path d="M263.24 103.91a2 2 0 0 1-2.85.42 2 2 0 0 1-.42-2.85 2 2 0 0 1 1.34-.8 2 2 0 0 1 1.51.38 2 2 0 0 1 .8 1.34 2.08 2.08 0 0 1-.38 1.51Z" style="fill:#043904;opacity:.970594"/><path d="M262.76 103.56a2 2 0 0 1-2.82.41 2 2 0 0 1-.42-2.82 2 2 0 1 1 3.24 2.41Z" style="fill:#043904;opacity:.960792"/><path d="M262.29 103.2a2 2 0 0 1-2.8.41 2 2 0 0 1-.41-2.79 2 2 0 0 1 1.31-.79 2 2 0 0 1 1.49.38 2 2 0 0 1 .41 2.79Z" style="fill:#043904;opacity:.9509900000000001"/><path d="M261.81 102.85a2 2 0 0 1-1.3.78 2 2 0 0 1-2.25-1.67 2 2 0 0 1 3.15-1.88 2 2 0 0 1 .77 1.3 1.93 1.93 0 0 1-.37 1.47Z" style="fill:#043904;opacity:.9411879999999999"/><path d="M261.34 102.5a2 2 0 0 1-2.75.4 2 2 0 0 1-.77-1.29 2 2 0 0 1 .37-1.45 1.91 1.91 0 0 1 1.29-.77 2 2 0 0 1 1.86 3.11Z" style="fill:#043904;opacity:.9313859999999999"/><path d="M260.86 102.14a2 2 0 0 1-1.27.77 2 2 0 0 1-1.44-.37 2 2 0 0 1-.77-1.27 1.94 1.94 0 0 1 .37-1.44 1.93 1.93 0 0 1 2.72-.4 1.92 1.92 0 0 1 .76 1.27 2 2 0 0 1-.37 1.44Z" style="fill:#043904;opacity:.921584"/><path d="M260.39 101.79a1.92 1.92 0 0 1-3.45-.87 1.94 1.94 0 0 1 .36-1.42 1.92 1.92 0 0 1 1.27-.76 1.89 1.89 0 0 1 1.42.36 1.92 1.92 0 0 1 .4 2.69Z" style="fill:#043904;opacity:.911782"/><path d="M259.92 101.44a1.91 1.91 0 0 1-1.26.74 1.86 1.86 0 0 1-1.41-.35 1.94 1.94 0 0 1-.75-1.25 1.91 1.91 0 0 1 .36-1.41 1.86 1.86 0 0 1 1.25-.75 1.91 1.91 0 0 1 1.41.35 1.88 1.88 0 0 1 .75 1.26 1.91 1.91 0 0 1-.35 1.41Z" style="fill:#043904;opacity:.9019800000000001"/><path d="M259.44 101.08a1.87 1.87 0 0 1-1.24.74 1.88 1.88 0 0 1-2.14-1.59 1.88 1.88 0 1 1 3.38.85Z" style="fill:#043904;opacity:.8921779999999999"/><path d="M259 100.73a1.87 1.87 0 0 1-2.61.38 1.82 1.82 0 0 1-.74-1.22 1.93 1.93 0 0 1 .35-1.38 1.87 1.87 0 0 1 1.23-.74 1.88 1.88 0 0 1 2.12 1.58 1.88 1.88 0 0 1-.35 1.38Z" style="fill:#043904;opacity:.8823759999999999"/><path d="M258.49 100.38a1.81 1.81 0 0 1-1.21.72 1.85 1.85 0 0 1-1.37-.34 1.87 1.87 0 0 1-.73-1.21 1.93 1.93 0 0 1 .35-1.38 1.85 1.85 0 0 1 1.21-.72 1.84 1.84 0 0 1 1.75 2.93Z" style="fill:#043904;opacity:.872574"/><path d="M258 100a1.8 1.8 0 0 1-1.2.71 1.82 1.82 0 0 1-1.36-.34 1.82 1.82 0 0 1-.37-2.56 1.82 1.82 0 0 1 1.2-.71 1.83 1.83 0 0 1 2.07 1.54A1.83 1.83 0 0 1 258 100Z" style="fill:#043904;opacity:.862772"/><path d="M257.54 99.67a1.76 1.76 0 0 1-1.18.71 1.82 1.82 0 0 1-2.06-1.52 1.84 1.84 0 0 1 .34-1.35 1.77 1.77 0 0 1 1.19-.7 1.79 1.79 0 0 1 2 1.52 1.78 1.78 0 0 1-.29 1.34Z" style="fill:#043904;opacity:.8529700000000001"/><path d="M257.07 99.32a1.8 1.8 0 0 1-2.5.37 1.79 1.79 0 1 1 2.13-2.87 1.73 1.73 0 0 1 .7 1.17 1.79 1.79 0 0 1-.33 1.33Z" style="fill:#043904;opacity:.8431679999999999"/><path d="M256.59 99a1.77 1.77 0 0 1-2.47.36 1.78 1.78 0 0 1-.7-1.16 1.76 1.76 0 0 1 1.5-2 1.74 1.74 0 0 1 1.31.33 1.81 1.81 0 0 1 .7 1.16 1.77 1.77 0 0 1-.34 1.31Z" style="fill:#043904;opacity:.8333659999999999"/><path d="M256.12 98.61a1.75 1.75 0 0 1-3.14-.79 1.74 1.74 0 0 1 1.48-2 1.75 1.75 0 0 1 1.66 2.77Z" style="fill:#043904;opacity:.823564"/><path d="M255.65 98.26a1.74 1.74 0 0 1-2.43.36 1.78 1.78 0 0 1-.68-1.14 1.74 1.74 0 0 1 1.47-2A1.74 1.74 0 0 1 256 97a1.75 1.75 0 0 1-.35 1.26Z" style="fill:#043904;opacity:.813762"/><path d="M255.17 97.91a1.68 1.68 0 0 1-1.12.67 1.71 1.71 0 0 1-1.27-.32 1.71 1.71 0 0 1-.36-2.4 1.78 1.78 0 0 1 1.13-.67 1.74 1.74 0 0 1 1.27.32 1.72 1.72 0 0 1 .35 2.4Z" style="fill:#043904;opacity:.8039600000000001"/><path d="M254.7 97.56a1.71 1.71 0 0 1-1.12.66 1.71 1.71 0 0 1-1.92-1.43 1.71 1.71 0 0 1 .32-1.26 1.69 1.69 0 0 1 2.37-.34 1.71 1.71 0 0 1 .35 2.37Z" style="fill:#043904;opacity:.7941579999999999"/><path d="M254.22 97.2a1.64 1.64 0 0 1-1.1.66 1.7 1.7 0 0 1-1.24-.31 1.73 1.73 0 0 1-.66-1.1 1.68 1.68 0 0 1 .32-1.25 1.68 1.68 0 0 1 2.34-.34 1.73 1.73 0 0 1 .66 1.1 1.66 1.66 0 0 1-.32 1.24Z" style="fill:#043904;opacity:.7843559999999999"/><path d="M253.75 96.85a1.63 1.63 0 0 1-1.09.65 1.66 1.66 0 0 1-1.57-2.63 1.73 1.73 0 0 1 1.09-.65 1.68 1.68 0 0 1 1.23.31 1.65 1.65 0 0 1 .65 1.09 1.68 1.68 0 0 1-.31 1.23Z" style="fill:#043904;opacity:.774554"/><path d="M253.27 96.5a1.64 1.64 0 0 1-2.93-.74 1.65 1.65 0 0 1 .31-1.22 1.64 1.64 0 1 1 2.62 2Z" style="fill:#043904;opacity:.764752"/><path d="M252.8 96.14a1.61 1.61 0 0 1-1.06.64 1.62 1.62 0 0 1-1.84-1.37 1.62 1.62 0 0 1 1.37-1.83 1.64 1.64 0 0 1 1.2.3 1.62 1.62 0 0 1 .33 2.26Z" style="fill:#043904;opacity:.75495"/><path d="M252.33 95.79a1.64 1.64 0 0 1-1.05.63 1.6 1.6 0 1 1-.47-3.16 1.57 1.57 0 0 1 1.19.3 1.54 1.54 0 0 1 .62 1 1.59 1.59 0 0 1-.29 1.23Z" style="fill:#043904;opacity:.745149"/><path d="M251.85 95.44a1.57 1.57 0 0 1-2.21.32 1.56 1.56 0 0 1-.62-1 1.58 1.58 0 0 1 .3-1.18 1.57 1.57 0 0 1 2.21-.32 1.57 1.57 0 0 1 .32 2.21Z" style="fill:#043904;opacity:.735347"/><path d="M251.38 95.09a1.57 1.57 0 1 1 .29-1.16 1.59 1.59 0 0 1-.29 1.16Z" style="fill:#043904;opacity:.725545"/><path d="M250.9 94.73a1.55 1.55 0 0 1-1 .61 1.58 1.58 0 0 1-1.14-.29 1.54 1.54 0 0 1 .69-2.76 1.51 1.51 0 0 1 1.15.29 1.53 1.53 0 0 1 .6 1 1.49 1.49 0 0 1-.3 1.15Z" style="fill:#043904;opacity:.715743"/><path d="M250.43 94.38a1.51 1.51 0 0 1-1 .6 1.55 1.55 0 0 1-1.13-.29 1.51 1.51 0 0 1-.6-1 1.57 1.57 0 0 1 .29-1.13 1.5 1.5 0 0 1 1-.59 1.51 1.51 0 0 1 1.13.28 1.54 1.54 0 0 1 .31 2.13Z" style="fill:#043904;opacity:.7059409999999999"/><path d="M250 94a1.49 1.49 0 0 1-1 .59 1.57 1.57 0 0 1-1.12-.28 1.54 1.54 0 0 1-.59-1 1.57 1.57 0 0 1 .28-1.12 1.54 1.54 0 0 1 1-.59 1.58 1.58 0 0 1 1.12.28A1.5 1.5 0 0 1 250 94Z" style="fill:#043904;opacity:.696139"/><path d="M249.48 93.67a1.5 1.5 0 0 1-1 .59 1.49 1.49 0 0 1-1.41-2.36 1.48 1.48 0 0 1 1-.58 1.45 1.45 0 0 1 1.11.28 1.52 1.52 0 0 1 .58 1 1.51 1.51 0 0 1-.28 1.07Z" style="fill:#043904;opacity:.686337"/><path d="M249 93.32a1.52 1.52 0 0 1-1 .58 1.46 1.46 0 0 1-1.38-2.33 1.45 1.45 0 0 1 1-.57 1.47 1.47 0 0 1 1.66 1.23 1.48 1.48 0 0 1-.28 1.09Z" style="fill:#043904;opacity:.676535"/><path d="M248.53 93a1.47 1.47 0 0 1-.95.57 1.47 1.47 0 0 1-1.64-1.22 1.46 1.46 0 0 1 .27-1.08 1.41 1.41 0 0 1 .95-.56 1.39 1.39 0 0 1 1.07.27 1.44 1.44 0 0 1 .3 2Z" style="fill:#043904;opacity:.666733"/><path d="M248.06 92.61a1.44 1.44 0 0 1-2 .3 1.45 1.45 0 0 1-.56-.94 1.42 1.42 0 0 1 .27-1.06 1.45 1.45 0 0 1 .94-.56 1.39 1.39 0 0 1 1 .27 1.43 1.43 0 0 1 .3 2Z" style="fill:#043904;opacity:.6569309999999999"/><path d="M247.58 92.26a1.41 1.41 0 0 1-2 .29 1.4 1.4 0 0 1-.55-.92 1.4 1.4 0 0 1 1.19-1.6 1.4 1.4 0 0 1 1 .26 1.45 1.45 0 0 1 .56.93 1.41 1.41 0 0 1-.2 1.04Z" style="fill:#043904;opacity:.647129"/><path d="M247.11 91.91a1.36 1.36 0 0 1-.91.54 1.33 1.33 0 0 1-1-.26 1.35 1.35 0 0 1-.55-.91 1.38 1.38 0 0 1 1.17-1.57 1.4 1.4 0 0 1 1.58 1.17 1.39 1.39 0 0 1-.29 1.03Z" style="fill:#043904;opacity:.637327"/><path d="M246.63 91.56a1.34 1.34 0 0 1-.9.53 1.36 1.36 0 0 1-1.55-1.15 1.35 1.35 0 0 1 .26-1 1.36 1.36 0 0 1 1.91-.28 1.34 1.34 0 0 1 .54.9 1.37 1.37 0 0 1-.26 1Z" style="fill:#043904;opacity:.627525"/><path d="M246.16 91.2a1.32 1.32 0 0 1-.89.53 1.35 1.35 0 0 1-1-.25 1.32 1.32 0 0 1-.53-.89 1.35 1.35 0 0 1 .25-1 1.37 1.37 0 0 1 .89-.53 1.35 1.35 0 0 1 1 .25 1.37 1.37 0 0 1 .53.89 1.34 1.34 0 0 1-.25 1Z" style="fill:#043904;opacity:.617723"/><path d="M245.69 90.85a1.35 1.35 0 0 1-.88.52 1.33 1.33 0 0 1-1-.25 1.31 1.31 0 0 1-.52-.87 1.33 1.33 0 0 1 .25-1 1.35 1.35 0 0 1 .87-.52 1.32 1.32 0 0 1 1 .25 1.29 1.29 0 0 1 .52.87 1.36 1.36 0 0 1-.24 1Z" style="fill:#043904;opacity:.6079209999999999"/><path d="M245.21 90.5a1.3 1.3 0 0 1-.86.51 1.31 1.31 0 0 1-1.49-1.11 1.31 1.31 0 0 1 1.14-1.48 1.31 1.31 0 0 1 1.49 1.1 1.3 1.3 0 0 1-.28.98Z" style="fill:#043904;opacity:.598119"/><path d="M244.74 90.14a1.29 1.29 0 0 1-1.81.27 1.27 1.27 0 0 1-.51-.85 1.29 1.29 0 0 1 .24-1 1.31 1.31 0 0 1 .85-.51 1.29 1.29 0 0 1 1 .25 1.28 1.28 0 0 1 .27 1.8Z" style="fill:#043904;opacity:.588317"/><path d="M244.26 89.79a1.28 1.28 0 0 1-.83.5 1.26 1.26 0 0 1-1-.24 1.28 1.28 0 0 1-.5-.83 1.26 1.26 0 0 1 .24-1 1.28 1.28 0 0 1 .84-.5 1.25 1.25 0 0 1 .99.28 1.28 1.28 0 0 1 .5.84 1.25 1.25 0 0 1-.24.95Z" style="fill:#043904;opacity:.578515"/><path d="M243.79 89.44a1.27 1.27 0 0 1-1.76.26 1.31 1.31 0 0 1-.49-.83 1.26 1.26 0 0 1 2-1.19 1.23 1.23 0 0 1 .49.83 1.26 1.26 0 0 1-.24.93Z" style="fill:#043904;opacity:.568713"/><path d="M243.31 89.09a1.23 1.23 0 0 1-.81.48 1.21 1.21 0 0 1-.91-.23 1.23 1.23 0 0 1-.26-1.73 1.21 1.21 0 0 1 .81-.48 1.18 1.18 0 0 1 .92.23 1.24 1.24 0 0 1 .49.81 1.25 1.25 0 0 1-.24.92Z" style="fill:#043904;opacity:.5589109999999999"/><path d="M242.84 88.73a1.23 1.23 0 0 1-.8.48 1.19 1.19 0 0 1-.9-.23 1.23 1.23 0 0 1-.48-.8 1.19 1.19 0 0 1 .23-.9 1.22 1.22 0 1 1 2 1.45Z" style="fill:#043904;opacity:.549109"/><path d="M242.37 88.38a1.22 1.22 0 0 1-.79.47 1.23 1.23 0 0 1-.89-.22 1.22 1.22 0 0 1-.47-.79 1.23 1.23 0 0 1 .22-.89 1.26 1.26 0 0 1 .79-.47 1.23 1.23 0 0 1 .89.22 1.26 1.26 0 0 1 .47.79 1.23 1.23 0 0 1-.22.89Z" style="fill:#043904;opacity:.539307"/><path d="M241.89 88a1.14 1.14 0 0 1-.77.46 1.22 1.22 0 0 1-.88-.22 1.16 1.16 0 0 1-.46-.78 1.2 1.2 0 0 1 .22-.87 1.14 1.14 0 0 1 .77-.46 1.18 1.18 0 0 1 .88.22 1.14 1.14 0 0 1 .46.77 1.18 1.18 0 0 1-.22.88Z" style="fill:#043904;opacity:.529505"/><path d="M241.42 87.67a1.14 1.14 0 0 1-.77.46 1.18 1.18 0 0 1-.86-.22 1.14 1.14 0 0 1-.45-.76 1.18 1.18 0 0 1 .22-.86 1.11 1.11 0 0 1 .76-.45 1.13 1.13 0 0 1 .86.21 1.17 1.17 0 0 1 .45.76 1.11 1.11 0 0 1-.21.86Z" style="fill:#043904;opacity:.519703"/><path d="M240.94 87.32a1.12 1.12 0 0 1-.75.45 1.16 1.16 0 0 1-.84-.21 1.14 1.14 0 0 1-.45-.75 1.14 1.14 0 0 1 1-1.3 1.16 1.16 0 0 1 1.3 1 1.12 1.12 0 0 1-.26.81Z" style="fill:#043904;opacity:.5099009999999999"/><path d="M240.47 87a1.11 1.11 0 0 1-.74.44 1.15 1.15 0 0 1-.83-.21 1.11 1.11 0 0 1-.44-.74 1.15 1.15 0 0 1 .21-.83 1.09 1.09 0 0 1 .74-.44 1.15 1.15 0 0 1 .83.21 1.13 1.13 0 0 1 .44.74 1.15 1.15 0 0 1-.21.83Z" style="fill:#043904;opacity:.500099"/><path d="M240 86.62a1.09 1.09 0 0 1-.72.43 1.11 1.11 0 0 1-.82-.21 1.09 1.09 0 0 1-.43-.72 1.07 1.07 0 0 1 .21-.82 1.09 1.09 0 0 1 .72-.43 1.1 1.1 0 0 1 1 1.75Z" style="fill:#043904;opacity:.490297"/><path d="M239.52 86.26a1.07 1.07 0 0 1-1.52.22 1.09 1.09 0 0 1-.22-1.51 1.14 1.14 0 0 1 .71-.43 1.09 1.09 0 0 1 .81.21 1 1 0 0 1 .42.71 1.07 1.07 0 0 1-.2.8Z" style="fill:#043904;opacity:.480495"/><path d="M239 85.91a1.06 1.06 0 0 1-.69.42 1.07 1.07 0 0 1-1.21-.9 1 1 0 0 1 .2-.79 1.08 1.08 0 0 1 .7-.42 1.05 1.05 0 0 1 1.2.9 1 1 0 0 1-.2.79Z" style="fill:#043904;opacity:.470693"/><path d="M238.57 85.56a1 1 0 0 1-1.68-1.25 1.06 1.06 0 0 1 .69-.41 1 1 0 0 1 .78.2 1 1 0 0 1 .21 1.46Z" style="fill:#043904;opacity:.460891"/><path d="M238.1 85.2a1 1 0 0 1-.68.41 1.06 1.06 0 0 1-.76-.2 1 1 0 0 1-.4-.67 1 1 0 0 1 .86-1.16 1 1 0 0 1 .77.19 1 1 0 0 1 .21 1.43Z" style="fill:#043904;opacity:.45108899999999996"/><path d="M237.62 84.85a1 1 0 0 1-.66.4 1.06 1.06 0 0 1-.75-.19 1 1 0 0 1-.39-.66 1 1 0 0 1 .19-.75 1 1 0 0 1 .66-.4 1.08 1.08 0 0 1 .75.19 1 1 0 0 1 .39.66 1 1 0 0 1-.19.75Z" style="fill:#043904;opacity:.441287"/><path d="M237.15 84.5a1 1 0 0 1-.65.39 1 1 0 0 1-.73-.19 1 1 0 0 1-.39-.65 1 1 0 0 1 .18-.73 1 1 0 0 1 .65-.39 1 1 0 0 1 1.12.84 1 1 0 0 1-.18.73Z" style="fill:#043904;opacity:.431485"/><path d="M236.67 84.15a1 1 0 0 1-.63.38 1 1 0 0 1-.72-.19 1 1 0 0 1-.2-1.35 1 1 0 0 1 .64-.38 1 1 0 0 1 1.09.82 1 1 0 0 1-.18.72Z" style="fill:#043904;opacity:.421683"/><path d="M236.2 83.79a.92.92 0 0 1-.62.37 1 1 0 0 1-.71-.17.92.92 0 0 1-.37-.63.95.95 0 0 1 .8-1.07.93.93 0 0 1 .7.17.94.94 0 0 1 .2 1.33Z" style="fill:#043904;opacity:.411881"/><path d="M235.72 83.44a.91.91 0 0 1-.61.36.92.92 0 0 1-.69-.17.94.94 0 0 1-.19-1.3.94.94 0 0 1 .61-.37 1 1 0 0 1 .69.18.92.92 0 0 1 .19 1.3Z" style="fill:#043904;opacity:.40207899999999996"/><path d="M235.25 83.09a.89.89 0 0 1-.6.35.87.87 0 0 1-.67-.17.89.89 0 0 1-.36-.6.87.87 0 0 1 .17-.67.92.92 0 0 1 .6-.36.91.91 0 0 1 1 .77.93.93 0 0 1-.14.68Z" style="fill:#043904;opacity:.392277"/><path d="M234.78 82.73a.89.89 0 1 1-.85-1.41.9.9 0 0 1 1 .75.87.87 0 0 1-.15.66Z" style="fill:#043904;opacity:.382475"/><path d="M234.3 82.38a.87.87 0 0 1-1.56-.39.84.84 0 0 1 .16-.65.86.86 0 0 1 .57-.34.84.84 0 0 1 .65.16.91.91 0 0 1 .35.57.89.89 0 0 1-.17.65Z" style="fill:#043904;opacity:.372673"/><path d="M233.83 82a.84.84 0 0 1-.56.33.87.87 0 0 1-.64-.16.86.86 0 0 1-.33-.56.85.85 0 0 1 .16-.63.87.87 0 0 1 .56-.34.85.85 0 0 1 .63.16.9.9 0 0 1 .34.56.87.87 0 0 1-.16.64Z" style="fill:#043904;opacity:.362871"/><path d="M233.35 81.67a.78.78 0 0 1-.55.33.84.84 0 0 1-.61-.15.82.82 0 0 1-.33-.55.85.85 0 0 1 .15-.62.82.82 0 0 1 .55-.33.85.85 0 0 1 .95.71.8.8 0 0 1-.16.61Z" style="fill:#043904;opacity:.35306899999999997"/><path d="M232.88 81.32a.81.81 0 0 1-.54.32.81.81 0 0 1-.6-.15.81.81 0 0 1-.32-.54.81.81 0 0 1 .15-.6.81.81 0 0 1 .54-.32.83.83 0 0 1 .6.15.81.81 0 0 1 .32.54.81.81 0 0 1-.15.6Z" style="fill:#043904;opacity:.343267"/><path d="M232.4 81a.81.81 0 0 1-.52.31.79.79 0 0 1-.59-.15.81.81 0 0 1-.31-.52.79.79 0 0 1 .15-.59.77.77 0 0 1 .52-.31.78.78 0 0 1 .59.14.77.77 0 0 1 .31.53.8.8 0 0 1-.15.59Z" style="fill:#043904;opacity:.333465"/><path d="M231.93 80.62a.78.78 0 0 1-.51.3.76.76 0 0 1-.88-.66.77.77 0 0 1 .65-.88.79.79 0 0 1 .89.66.81.81 0 0 1-.15.58Z" style="fill:#043904;opacity:.323663"/><path d="M231.46 80.26a.75.75 0 0 1-1.36-.34.76.76 0 0 1 .14-.56.73.73 0 0 1 .5-.3.77.77 0 0 1 .56.14.78.78 0 0 1 .3.5.76.76 0 0 1-.14.56Z" style="fill:#043904;opacity:.313861"/><path d="M231 79.91a.73.73 0 0 1-1 .15.67.67 0 0 1-.29-.48.69.69 0 0 1 .14-.55.74.74 0 1 1 1.18.88Z" style="fill:#043904;opacity:.30405899999999997"/><path d="M230.51 79.56a.77.77 0 0 1-.48.28.73.73 0 0 1-.53-.13.73.73 0 0 1-.15-1 .74.74 0 0 1 .47-.29.75.75 0 0 1 .54.14.73.73 0 0 1 .28.47.75.75 0 0 1-.13.53Z" style="fill:#043904;opacity:.294257"/><path d="M230 79.2a.68.68 0 0 1-.46.28.71.71 0 0 1-.52-.13.69.69 0 0 1-.27-.46.66.66 0 0 1 .13-.52.68.68 0 0 1 .46-.28.74.74 0 0 1 .52.13.69.69 0 0 1 .27.46.66.66 0 0 1-.13.52Z" style="fill:#043904;opacity:.284455"/><path d="M229.56 78.85a.69.69 0 0 1-.45.27.73.73 0 0 1-.51-.13.64.64 0 0 1-.26-.45.65.65 0 0 1 .12-.5.71.71 0 0 1 .45-.27.67.67 0 0 1 .51.13.69.69 0 0 1 .27.45.7.7 0 0 1-.13.5Z" style="fill:#043904;opacity:.274653"/><path d="M229.08 78.5a.65.65 0 0 1-.92.13.6.6 0 0 1-.26-.43.62.62 0 0 1 .12-.49.64.64 0 0 1 .44-.26.63.63 0 0 1 .49.12.72.72 0 0 1 .26.44.68.68 0 0 1-.13.49Z" style="fill:#043904;opacity:.264851"/><path d="M228.61 78.15a.66.66 0 0 1-.42.25.68.68 0 0 1-.48-.12.64.64 0 0 1-.25-.43.58.58 0 0 1 .12-.47.65.65 0 0 1 .42-.26.68.68 0 0 1 .48.12.64.64 0 0 1 .25.43.7.7 0 0 1-.12.48Z" style="fill:#043904;opacity:.25505"/><path d="M228.14 77.79a.66.66 0 0 1-.42.25.64.64 0 0 1-.46-.12.64.64 0 0 1-.13-.87.64.64 0 0 1 .41-.25.67.67 0 0 1 .47.12.62.62 0 0 1 .24.41.58.58 0 0 1-.11.46Z" style="fill:#043904;opacity:.245248"/><path d="M227.66 77.44a.64.64 0 0 1-.4.24.63.63 0 0 1-.45-.12.57.57 0 0 1-.23-.39.56.56 0 0 1 .11-.45.57.57 0 0 1 .4-.24.62.62 0 0 1 .45.11.59.59 0 0 1 .23.4.56.56 0 0 1-.11.45Z" style="fill:#043904;opacity:.235446"/><path d="M227.19 77.09a.63.63 0 0 1-.39.23.6.6 0 0 1-.43-.11.59.59 0 0 1-.23-.39.52.52 0 0 1 .11-.43.58.58 0 0 1 .82-.12.63.63 0 0 1 .23.38.64.64 0 0 1-.11.44Z" style="fill:#043904;opacity:.22564399999999998"/><path d="M226.71 76.73a.53.53 0 0 1-.37.23.57.57 0 0 1-.42-.11.54.54 0 0 1-.22-.37.53.53 0 0 1 .1-.42.59.59 0 0 1 .37-.23.61.61 0 0 1 .43.11.56.56 0 0 1 .11.79Z" style="fill:#043904;opacity:.21584199999999998"/><path d="M226.24 76.38a.55.55 0 0 1-.36.22.56.56 0 0 1-.41-.11.54.54 0 0 1-.21-.36.49.49 0 0 1 .1-.4.55.55 0 0 1 .77-.12.58.58 0 0 1 .21.36.54.54 0 0 1-.1.41Z" style="fill:#043904;opacity:.20604000000000003"/><path d="M225.76 76a.54.54 0 0 1-.34.21.58.58 0 0 1-.4-.1.55.55 0 0 1-.2-.35.53.53 0 0 1 .09-.39.54.54 0 0 1 .35-.21.53.53 0 0 1 .4.1.52.52 0 0 1 .2.35.52.52 0 0 1-.1.39Z" style="fill:#043904;opacity:.196238"/><path d="M225.29 75.68a.5.5 0 0 1-.71.1.44.44 0 0 1-.2-.34.49.49 0 0 1 .09-.37.5.5 0 0 1 .34-.2.49.49 0 0 1 .37.09.48.48 0 0 1 .21.34.59.59 0 0 1-.1.38Z" style="fill:#043904;opacity:.186436"/><path d="M224.82 75.32a.5.5 0 0 1-.33.2.52.52 0 0 1-.36-.1.48.48 0 0 1-.2-.32.51.51 0 0 1 .1-.36.48.48 0 0 1 .32-.2.47.47 0 0 1 .36.1.46.46 0 0 1 .2.32.52.52 0 0 1-.09.36Z" style="fill:#043904;opacity:.17663399999999999"/><path d="M224.34 75a.46.46 0 0 1-.31.18.48.48 0 0 1-.35-.08.51.51 0 0 1-.19-.31.53.53 0 0 1 .09-.35.47.47 0 0 1 .31-.19.44.44 0 0 1 .35.09.46.46 0 0 1 .1.66Z" style="fill:#043904;opacity:.16683199999999998"/><path d="M223.87 74.62a.48.48 0 0 1-.64.09.45.45 0 0 1-.18-.3.47.47 0 0 1 .09-.33.42.42 0 0 1 .3-.18.43.43 0 0 1 .33.08.47.47 0 0 1 .18.3.46.46 0 0 1-.08.34Z" style="fill:#043904;opacity:.15703"/><path d="M223.39 74.26a.38.38 0 0 1-.28.17.43.43 0 0 1-.33-.08.46.46 0 0 1-.17-.28.45.45 0 0 1 .09-.32.38.38 0 0 1 .28-.17.41.41 0 0 1 .32.08.38.38 0 0 1 .17.28.41.41 0 0 1-.08.32Z" style="fill:#043904;opacity:.147228"/><path d="M222.92 73.91a.41.41 0 0 1-.27.16.42.42 0 0 1-.31-.07.41.41 0 0 1-.09-.58.46.46 0 0 1 .27-.17.43.43 0 0 1 .31.08.44.44 0 0 1 .17.27.48.48 0 0 1-.08.31Z" style="fill:#043904;opacity:.137426"/><path d="M222.44 73.56a.37.37 0 0 1-.26.15.39.39 0 0 1-.29-.07.4.4 0 0 1-.16-.26.38.38 0 0 1 .08-.29.37.37 0 0 1 .26-.16.38.38 0 0 1 .29.07.43.43 0 0 1 .16.26.41.41 0 0 1-.08.3Z" style="fill:#043904;opacity:.127624"/><path d="M222 73.2a.33.33 0 0 1-.25.15.35.35 0 0 1-.28-.07.41.41 0 0 1-.15-.25.38.38 0 0 1 .07-.27.38.38 0 0 1 .53-.08.37.37 0 0 1 .15.25.38.38 0 0 1-.07.27Z" style="fill:#043904;opacity:.117822"/><path d="M221.49 72.85a.31.31 0 0 1-.23.14.37.37 0 0 1-.27-.06.45.45 0 0 1-.14-.24.35.35 0 0 1 .07-.26.38.38 0 0 1 .24-.15.36.36 0 0 1 .26.07.33.33 0 0 1 .14.24.31.31 0 0 1-.07.26Z" style="fill:#043904;opacity:.10802"/><path d="M221 72.5a.32.32 0 0 1-.22.13.36.36 0 0 1-.25-.06.38.38 0 0 1-.14-.22.35.35 0 0 1 .29-.39.32.32 0 0 1 .32.04.34.34 0 0 1 .07.47Z" style="fill:#043904;opacity:.098218"/><path d="M220.55 72.15a.35.35 0 0 1-.21.12.34.34 0 0 1-.24-.06.33.33 0 0 1-.1-.21.31.31 0 0 1 .27-.36.34.34 0 0 1 .24.06.36.36 0 0 1 .13.21.35.35 0 0 1-.09.24Z" style="fill:#043904;opacity:.088416"/><path d="M220.07 71.79a.28.28 0 0 1-.2.12.31.31 0 0 1-.22-.06.31.31 0 0 1-.12-.19.32.32 0 0 1 .06-.23.31.31 0 0 1 .2-.11.33.33 0 0 1 .22.05.32.32 0 0 1 .12.2.29.29 0 0 1-.06.22Z" style="fill:#043904;opacity:.078614"/><path d="M219.6 71.44a.29.29 0 0 1-.19.11.31.31 0 0 1-.21 0 .29.29 0 0 1-.11-.19.27.27 0 0 1 .06-.21.31.31 0 0 1 .18-.11.3.3 0 0 1 .32.24.3.3 0 0 1-.05.16Z" style="fill:#043904;opacity:.068812"/><path d="M219.12 71.09a.27.27 0 0 1-.17.1.25.25 0 0 1-.19 0 .25.25 0 0 1-.11-.17.29.29 0 0 1 0-.2.3.3 0 0 1 .17-.1.29.29 0 0 1 .2 0 .27.27 0 0 1 .1.17.29.29 0 0 1 0 .2Z" style="fill:#043904;opacity:.05901000000000001"/><path d="M218.65 70.73a.23.23 0 0 1-.16.1.26.26 0 0 1-.28-.21.25.25 0 0 1 0-.18.24.24 0 0 1 .16-.09.28.28 0 0 1 .18 0 .26.26 0 0 1 .09.16.22.22 0 0 1 .01.22Z" style="fill:#043904;opacity:.049207999999999995"/><path d="M218.17 70.38a.19.19 0 0 1-.14.09.25.25 0 0 1-.17 0 .24.24 0 0 1-.09-.15.22.22 0 0 1 0-.17.18.18 0 0 1 .23-.15.21.21 0 0 1 .17 0 .21.21 0 0 1 .09.15.19.19 0 0 1-.09.23Z" style="fill:#043904;opacity:.039406"/><path d="M217.7 70a.22.22 0 0 1-.13.08.23.23 0 0 1-.16 0 .22.22 0 0 1-.08-.13.23.23 0 0 1 0-.16.22.22 0 0 1 .14-.08.26.26 0 0 1 .15 0 .22.22 0 0 1 .08.14.2.2 0 0 1 0 .15Z" style="fill:#043904;opacity:.029604"/><path d="M217.23 69.68a.27.27 0 0 1-.13.07.15.15 0 0 1-.13 0 .17.17 0 0 1-.08-.12.23.23 0 0 1 0-.14.24.24 0 0 1 .12-.07.18.18 0 0 1 .14 0 .16.16 0 0 1 .07.12.22.22 0 0 1 .01.14Z" style="fill:#043904;opacity:.019802"/><path d="M216.45 69.25a.28.28 0 0 1 0-.13.17.17 0 0 1 .11-.06.15.15 0 0 1 .13 0 .14.14 0 0 1 .06.11.13.13 0 0 1 0 .12.14.14 0 0 1-.11.07.17.17 0 0 1-.12 0 .19.19 0 0 1-.07-.11Z" style="fill:#043904;opacity:.01"/><path d="M263.85 104.37a1.09 1.09 0 1 1-.22-1.53 1.09 1.09 0 0 1 .22 1.53Z" style="fill:#fafafa"/><path d="M263.66 95.88a1.19 1.19 0 1 1-.24-1.65 1.18 1.18 0 0 1 .24 1.65Z" style="fill:#043904"/><path d="M263.46 95.73a1.23 1.23 0 0 1-.77.46 1.2 1.2 0 0 1-.87-.22 1.14 1.14 0 0 1-.46-.77 1.11 1.11 0 0 1 .22-.87 1.14 1.14 0 0 1 .77-.46 1.21 1.21 0 0 1 .87.22 1.18 1.18 0 0 1 .46.77 1.2 1.2 0 0 1-.22.87Z" style="fill:#043904;opacity:.9901979999999999"/><path d="M263.25 95.58a1.17 1.17 0 0 1-.76.45 1.14 1.14 0 0 1-.86-.22 1.16 1.16 0 0 1-.46-.76 1.17 1.17 0 0 1 1-1.32 1.16 1.16 0 0 1 .83.27 1.14 1.14 0 0 1 .46.76 1.2 1.2 0 0 1-.21.82Z" style="fill:#043904;opacity:.9803959999999999"/><path d="M263.05 95.42a1.13 1.13 0 0 1-.76.45 1.1 1.1 0 0 1-.85-.21 1.13 1.13 0 0 1-.45-.76 1.11 1.11 0 0 1 .21-.85 1.17 1.17 0 0 1 .76-.45 1.14 1.14 0 0 1 .85.21 1.13 1.13 0 0 1 .45.76 1.1 1.1 0 0 1-.21.85Z" style="fill:#043904;opacity:.970594"/><path d="M262.84 95.27a1.12 1.12 0 0 1-1.59.23 1.12 1.12 0 0 1-.45-.74 1.15 1.15 0 0 1 .22-.85 1.16 1.16 0 0 1 .74-.45 1.15 1.15 0 0 1 .85.22 1.16 1.16 0 0 1 .45.75 1.13 1.13 0 0 1-.22.84Z" style="fill:#043904;opacity:.960792"/><path d="M262.64 95.12a1.13 1.13 0 0 1-.74.44 1.12 1.12 0 0 1-.84-.21 1.13 1.13 0 0 1-.44-.74 1.08 1.08 0 0 1 .21-.84 1.09 1.09 0 0 1 .74-.44 1.12 1.12 0 0 1 1.28 1 1.16 1.16 0 0 1-.21.79Z" style="fill:#043904;opacity:.9509900000000001"/><path d="M262.43 95a1.11 1.11 0 0 1-.73.43 1.06 1.06 0 0 1-.83-.21 1.09 1.09 0 0 1-.44-.73 1.15 1.15 0 0 1 .21-.83 1.11 1.11 0 0 1 1.56-.23 1.12 1.12 0 0 1 .23 1.57Z" style="fill:#043904;opacity:.9411879999999999"/><path d="M262.23 94.81a1.1 1.1 0 0 1-1.55.23 1.12 1.12 0 0 1-.23-1.55 1.11 1.11 0 0 1 .73-.43 1.07 1.07 0 0 1 .82.21 1.11 1.11 0 0 1 .23 1.54Z" style="fill:#043904;opacity:.9313859999999999"/><path d="M262 94.66a1.09 1.09 0 0 1-.72.43 1.06 1.06 0 0 1-.81-.21 1.1 1.1 0 0 1-.43-.71 1.08 1.08 0 0 1 .21-.82 1.1 1.1 0 0 1 .71-.43 1.12 1.12 0 0 1 .82.21 1.09 1.09 0 0 1 .22 1.53Z" style="fill:#043904;opacity:.921584"/><path d="M261.82 94.51a1.08 1.08 0 0 1-.72.42 1.07 1.07 0 0 1-.8-.2 1.14 1.14 0 0 1-.43-.71 1.09 1.09 0 0 1 .92-1.23 1.07 1.07 0 0 1 .8.2 1.1 1.1 0 0 1 .43.71 1.08 1.08 0 0 1-.2.81Z" style="fill:#043904;opacity:.911782"/><path d="M261.61 94.35a1.07 1.07 0 0 1-.7.43 1.11 1.11 0 0 1-.8-.2 1.08 1.08 0 0 1-.42-.71 1.07 1.07 0 0 1 .2-.8 1.08 1.08 0 0 1 1.5-.22 1.08 1.08 0 0 1 .42.71 1 1 0 0 1-.2.79Z" style="fill:#043904;opacity:.9019800000000001"/><path d="M261.41 94.2a1.06 1.06 0 0 1-.7.42 1 1 0 0 1-.79-.2 1.08 1.08 0 0 1-.42-.7 1.05 1.05 0 0 1 .9-1.2 1 1 0 0 1 .79.2 1.08 1.08 0 0 1 .42.69 1.12 1.12 0 0 1-.2.79Z" style="fill:#043904;opacity:.8921779999999999"/><path d="M261.2 94.05a1.06 1.06 0 0 1-1.47.22 1.09 1.09 0 0 1-.41-.7 1 1 0 0 1 .2-.77 1 1 0 0 1 .69-.42 1.08 1.08 0 0 1 .78.2 1 1 0 0 1 .41.69 1.05 1.05 0 0 1-.2.78Z" style="fill:#043904;opacity:.8823759999999999"/><path d="M261 93.9a1 1 0 0 1-.69.41 1.09 1.09 0 0 1-.77-.2 1 1 0 0 1-.41-.68 1 1 0 0 1 .2-.77 1 1 0 0 1 .68-.41 1 1 0 0 1 1 1.65Z" style="fill:#043904;opacity:.872574"/><path d="M260.79 93.74a1 1 0 0 1-.67.41 1.07 1.07 0 0 1-.77-.19 1 1 0 0 1-.4-.68 1 1 0 0 1 .19-.76 1 1 0 0 1 1.44-.22 1 1 0 0 1 .21 1.44Z" style="fill:#043904;opacity:.862772"/><path d="M260.59 93.59a1 1 0 0 1-1.43.21 1 1 0 0 1-.4-.67 1 1 0 0 1 .19-.75 1 1 0 0 1 .67-.4 1 1 0 0 1 .76.19 1 1 0 0 1 .4.67 1.08 1.08 0 0 1-.19.75Z" style="fill:#043904;opacity:.8529700000000001"/><path d="M260.38 93.44a1 1 0 0 1-.66.39 1 1 0 0 1-.75-.18 1 1 0 0 1-.39-.67 1 1 0 0 1 1.59-1 1 1 0 0 1 .4.66 1 1 0 0 1-.19.8Z" style="fill:#043904;opacity:.8431679999999999"/><path d="M260.18 93.29a1 1 0 0 1-.66.39 1.05 1.05 0 0 1-.74-.19 1 1 0 0 1-.39-.65 1 1 0 0 1 .84-1.13 1 1 0 0 1 .74.18 1 1 0 0 1 .39.66 1 1 0 0 1-.18.74Z" style="fill:#043904;opacity:.8333659999999999"/><path d="M260 93.13a1 1 0 0 1-.65.39 1 1 0 0 1-.73-.18 1 1 0 0 1-.38-.65 1 1 0 0 1 .18-.73 1 1 0 0 1 .65-.39.94.94 0 0 1 .73.19.92.92 0 0 1 .38.64 1 1 0 0 1-.18.73Z" style="fill:#043904;opacity:.823564"/><path d="M259.77 93a.94.94 0 0 1-.64.38 1 1 0 0 1-.73-.18 1 1 0 0 1-.38-.64 1 1 0 0 1 .82-1.1 1 1 0 0 1 .73.18 1 1 0 0 1 .38.64 1 1 0 0 1-.18.72Z" style="fill:#043904;opacity:.813762"/><path d="M259.56 92.83a1 1 0 0 1-.63.38 1 1 0 0 1-.72-.18.94.94 0 0 1-.37-.64.93.93 0 0 1 .18-.71 1 1 0 0 1 .63-.38 1 1 0 0 1 .71.18 1 1 0 0 1 .38.63.94.94 0 0 1-.18.72Z" style="fill:#043904;opacity:.8039600000000001"/><path d="M259.36 92.68a1 1 0 0 1-.63.37 1 1 0 0 1-1.08-.8.92.92 0 0 1 .18-.71.9.9 0 0 1 .62-.37 1 1 0 0 1 .71.17 1 1 0 0 1 .37.63 1 1 0 0 1-.17.71Z" style="fill:#043904;opacity:.7941579999999999"/><path d="M259.15 92.52a.9.9 0 0 1-.62.37.94.94 0 0 1-.7-.17 1 1 0 0 1-.37-.62 1 1 0 0 1 .18-.7 1 1 0 0 1 .62-.37 1 1 0 0 1 1.07.79 1 1 0 0 1-.18.7Z" style="fill:#043904;opacity:.7843559999999999"/><path d="M258.94 92.37a.92.92 0 0 1-.61.37 1 1 0 0 1-.69-.18.93.93 0 0 1 1.11-1.49.92.92 0 0 1 .19 1.3Z" style="fill:#043904;opacity:.774554"/><path d="M258.74 92.22a1 1 0 0 1-.6.36 1 1 0 0 1-.69-.17 1 1 0 0 1-.36-.61.9.9 0 0 1 .18-.68.91.91 0 0 1 .6-.36.93.93 0 0 1 .68.17.93.93 0 0 1 .19 1.29Z" style="fill:#043904;opacity:.764752"/><path d="M258.53 92.07a.85.85 0 0 1-.59.35.9.9 0 0 1-.68-.17.87.87 0 0 1-.35-.59.89.89 0 0 1 .17-.68.87.87 0 0 1 .59-.35.89.89 0 0 1 .68.17.85.85 0 0 1 .35.59.9.9 0 0 1-.17.68Z" style="fill:#043904;opacity:.75495"/><path d="M258.33 91.91a.87.87 0 0 1-.59.35.9.9 0 0 1-.67-.16 1 1 0 0 1-.35-.59.91.91 0 0 1 .17-.67.87.87 0 0 1 .59-.35.91.91 0 0 1 .67.17 1 1 0 0 1 .35.59.9.9 0 0 1-.17.66Z" style="fill:#043904;opacity:.745149"/><path d="M258.12 91.76a.87.87 0 0 1-1.23.18.85.85 0 0 1-.35-.58.89.89 0 0 1 .16-.66 1 1 0 0 1 .58-.35.9.9 0 0 1 1 .75.89.89 0 0 1-.16.66Z" style="fill:#043904;opacity:.735347"/><path d="M257.92 91.61a.86.86 0 0 1-.58.34.87.87 0 0 1-.82-1.39.86.86 0 0 1 .57-.34.86.86 0 0 1 1 .74.86.86 0 0 1-.17.65Z" style="fill:#043904;opacity:.725545"/><path d="M257.71 91.45a.8.8 0 0 1-.56.34.83.83 0 0 1-.64-.16.82.82 0 0 1-.34-.57.84.84 0 0 1 .16-.64.9.9 0 0 1 .57-.34.85.85 0 0 1 .64.17.87.87 0 0 1 .34.56.84.84 0 0 1-.17.64Z" style="fill:#043904;opacity:.715743"/><path d="M257.51 91.3a.86.86 0 0 1-.56.34.84.84 0 0 1-.63-.16.86.86 0 0 1-.34-.56.87.87 0 0 1 .16-.64.86.86 0 0 1 .56-.33.86.86 0 0 1 1 .72.85.85 0 0 1-.19.63Z" style="fill:#043904;opacity:.7059409999999999"/><path d="M257.3 91.15a.8.8 0 0 1-.55.33.85.85 0 0 1-.95-.71.81.81 0 0 1 .15-.63.9.9 0 0 1 .56-.33.84.84 0 0 1 .62.16.82.82 0 0 1 .33.55.85.85 0 0 1-.16.63Z" style="fill:#043904;opacity:.696139"/><path d="M257.1 91a.85.85 0 0 1-.55.32.84.84 0 0 1-.61-.15.82.82 0 0 1-.33-.55.8.8 0 0 1 .16-.61.78.78 0 0 1 .54-.33.88.88 0 0 1 .62.15.85.85 0 0 1 .32.55.83.83 0 0 1-.15.62Z" style="fill:#043904;opacity:.686337"/><path d="M256.89 90.84a.8.8 0 0 1-1.14.17.86.86 0 0 1-.33-.54.84.84 0 0 1 .7-.93.82.82 0 0 1 .61.16.81.81 0 0 1 .32.54.79.79 0 0 1-.16.6Z" style="fill:#043904;opacity:.676535"/><path d="M256.69 90.69a.81.81 0 0 1-.53.32.81.81 0 0 1-.6-.15.83.83 0 0 1-.32-.53.81.81 0 0 1 .68-.92.81.81 0 0 1 .6.15.81.81 0 0 1 .32.53.81.81 0 0 1-.15.6Z" style="fill:#043904;opacity:.666733"/><path d="M256.48 90.54a.77.77 0 0 1-.52.31.8.8 0 0 1-.23-1.58.8.8 0 0 1 .59.15.77.77 0 0 1 .31.53.8.8 0 0 1-.15.59Z" style="fill:#043904;opacity:.6569309999999999"/><path d="M256.28 90.39a.78.78 0 0 1-1.1.16.78.78 0 0 1-.16-1.1.75.75 0 0 1 .51-.31.8.8 0 0 1 .59.15.77.77 0 0 1 .31.51.85.85 0 0 1-.15.59Z" style="fill:#043904;opacity:.647129"/><path d="M256.07 90.23a.73.73 0 0 1-.51.31.75.75 0 0 1-.57-.15.77.77 0 0 1-.31-.51.75.75 0 0 1 .15-.57.79.79 0 0 1 .51-.31.75.75 0 0 1 .57.15.79.79 0 0 1 .31.51.75.75 0 0 1-.15.57Z" style="fill:#043904;opacity:.637327"/><path d="M255.87 90.08a.76.76 0 0 1-1.37-.34.74.74 0 0 1 .14-.57.77.77 0 0 1 1.23.91Z" style="fill:#043904;opacity:.627525"/><path d="M255.66 89.93a.69.69 0 0 1-.49.29.71.71 0 0 1-.56-.14.73.73 0 0 1-.3-.49.77.77 0 0 1 .14-.56.78.78 0 0 1 .5-.3.74.74 0 0 1 .85.64.72.72 0 0 1-.14.56Z" style="fill:#043904;opacity:.617723"/><path d="M255.46 89.78a.76.76 0 0 1-.49.29.73.73 0 0 1-.55-.14.74.74 0 0 1-.15-1 .76.76 0 0 1 .48-.29.69.69 0 0 1 .55.14.74.74 0 0 1 .3.48.82.82 0 0 1-.14.52Z" style="fill:#043904;opacity:.6079209999999999"/><path d="M255.25 89.62a.74.74 0 0 1-.48.29.72.72 0 0 1-.54-.14.74.74 0 0 1-.29-.48.72.72 0 0 1 .14-.54.74.74 0 0 1 .48-.29.76.76 0 0 1 .54.14.74.74 0 0 1 .29.48.71.71 0 0 1-.14.54Z" style="fill:#043904;opacity:.598119"/><path d="M255.05 89.47a.72.72 0 0 1-1.29-.32.7.7 0 0 1 .13-.54.69.69 0 0 1 .47-.28.7.7 0 0 1 .54.13.73.73 0 0 1 .15 1Z" style="fill:#043904;opacity:.588317"/><path d="M254.84 89.32a.72.72 0 0 1-.46.28.74.74 0 0 1-.53-.14.68.68 0 0 1-.28-.46.71.71 0 0 1 .6-.81.78.78 0 0 1 .53.13.71.71 0 0 1 .27.47.69.69 0 0 1-.13.53Z" style="fill:#043904;opacity:.578515"/><path d="M254.64 89.17a.73.73 0 0 1-.46.27.69.69 0 0 1-.79-.59.69.69 0 0 1 .58-.79.66.66 0 0 1 .52.13.68.68 0 0 1 .28.46.77.77 0 0 1-.13.52Z" style="fill:#043904;opacity:.568713"/><path d="M254.43 89a.67.67 0 0 1-.45.27.64.64 0 0 1-.51-.13.68.68 0 0 1-.14-1 .71.71 0 0 1 .45-.27.73.73 0 0 1 .51.13.71.71 0 0 1 .27.45.67.67 0 0 1-.13.55Z" style="fill:#043904;opacity:.5589109999999999"/><path d="M254.23 88.86a.67.67 0 0 1-.95.14.69.69 0 0 1-.27-.45.7.7 0 0 1 .13-.5.64.64 0 0 1 .45-.26.68.68 0 0 1 .64 1.07Z" style="fill:#043904;opacity:.549109"/><path d="M254 88.71a.72.72 0 0 1-.44.26.68.68 0 0 1-.49-.13.62.62 0 0 1-.26-.43.65.65 0 0 1 .12-.5.72.72 0 0 1 .44-.26.69.69 0 0 1 .76.56.7.7 0 0 1-.13.5Z" style="fill:#043904;opacity:.539307"/><path d="M253.82 88.55a.64.64 0 0 1-.43.26.62.62 0 0 1-.49-.12.7.7 0 0 1-.26-.43.68.68 0 0 1 .13-.49.62.62 0 0 1 .43-.25.61.61 0 0 1 .48.12.65.65 0 0 1 .26.43.68.68 0 0 1-.12.48Z" style="fill:#043904;opacity:.529505"/><path d="M253.61 88.4a.62.62 0 0 1-.42.25.6.6 0 0 1-.48-.12.65.65 0 0 1-.13-.9.66.66 0 0 1 .42-.25.68.68 0 0 1 .48.12.64.64 0 0 1 .25.42.6.6 0 0 1-.12.48Z" style="fill:#043904;opacity:.519703"/><path d="M253.41 88.25a.69.69 0 0 1-.42.25.67.67 0 0 1-.47-.12.66.66 0 0 1-.25-.42.67.67 0 0 1 .12-.47.61.61 0 0 1 .42-.24.62.62 0 0 1 .47.11.63.63 0 0 1 .24.42.62.62 0 0 1-.11.47Z" style="fill:#043904;opacity:.5099009999999999"/><path d="M253.2 88.1a.62.62 0 0 1-.41.24.6.6 0 0 1-.46-.12.59.59 0 0 1-.24-.4.62.62 0 0 1 .11-.47.65.65 0 0 1 .41-.24.64.64 0 0 1 .71.53.66.66 0 0 1-.12.46Z" style="fill:#043904;opacity:.500099"/><path d="M253 87.94a.59.59 0 0 1-.41.24.58.58 0 0 1-.45-.11.63.63 0 0 1-.24-.4.61.61 0 0 1 .12-.45.61.61 0 0 1 .85-.13.59.59 0 0 1 .24.4.6.6 0 0 1-.11.45Z" style="fill:#043904;opacity:.490297"/><path d="M252.79 87.79a.65.65 0 0 1-.39.24.61.61 0 0 1-.45-.12.57.57 0 0 1-.23-.39.55.55 0 0 1 .11-.44.57.57 0 0 1 .39-.24.6.6 0 0 1 .45.11.59.59 0 0 1 .23.4.55.55 0 0 1-.11.44Z" style="fill:#043904;opacity:.480495"/><path d="M252.59 87.64a.59.59 0 0 1-1.06-.27.56.56 0 0 1 .11-.43.59.59 0 0 1 .39-.23.53.53 0 0 1 .43.11.6.6 0 0 1 .24.38.64.64 0 0 1-.11.44Z" style="fill:#043904;opacity:.470693"/><path d="M252.38 87.49a.57.57 0 0 1-.38.22.56.56 0 0 1-.43-.11.54.54 0 0 1-.22-.37.55.55 0 0 1 .1-.43.59.59 0 0 1 .38-.23.56.56 0 0 1 .43.11.55.55 0 0 1 .23.38.57.57 0 0 1-.11.43Z" style="fill:#043904;opacity:.460891"/><path d="M252.18 87.33a.61.61 0 0 1-.38.23.6.6 0 0 1-.42-.11.57.57 0 0 1-.22-.37.53.53 0 0 1 .11-.42.56.56 0 0 1 .37-.23.6.6 0 0 1 .42.11.57.57 0 0 1 .22.37.57.57 0 0 1-.1.42Z" style="fill:#043904;opacity:.45108899999999996"/><path d="M252 87.18a.55.55 0 0 1-.37.22.56.56 0 0 1-.41-.1.65.65 0 0 1-.22-.37.56.56 0 0 1 .11-.41.55.55 0 0 1 .36-.22.58.58 0 0 1 .42.1.56.56 0 0 1 .21.37.55.55 0 0 1-.1.41Z" style="fill:#043904;opacity:.441287"/><path d="M251.76 87a.5.5 0 0 1-.35.21.55.55 0 0 1-.41-.1.54.54 0 0 1-.21-.36.53.53 0 0 1 .1-.4.55.55 0 0 1 .36-.22.54.54 0 0 1 .4.11.52.52 0 0 1 .11.76Z" style="fill:#043904;opacity:.431485"/><path d="M251.56 86.88a.56.56 0 0 1-.35.21.58.58 0 0 1-.4-.1.58.58 0 0 1-.21-.36.56.56 0 0 1 .1-.39.54.54 0 0 1 .35-.21.53.53 0 0 1 .4.1.52.52 0 0 1 .21.35.53.53 0 0 1-.1.4Z" style="fill:#043904;opacity:.421683"/><path d="M251.35 86.72a.5.5 0 0 1-.34.21.52.52 0 0 1-.39-.1.55.55 0 0 1-.2-.34.54.54 0 0 1 .44-.6.56.56 0 0 1 .39.1.55.55 0 0 1 .2.35.48.48 0 0 1-.1.38Z" style="fill:#043904;opacity:.411881"/><path d="M251.15 86.57a.52.52 0 0 1-.34.2.53.53 0 0 1-.38-.09.55.55 0 0 1-.2-.34.48.48 0 0 1 .1-.38.5.5 0 0 1 .33-.2.51.51 0 0 1 .38.09.52.52 0 0 1 .21.34.58.58 0 0 1-.1.38Z" style="fill:#043904;opacity:.40207899999999996"/><path d="M250.94 86.42a.45.45 0 0 1-.32.19.52.52 0 0 1-.38-.09.51.51 0 0 1-.1-.7.5.5 0 0 1 .33-.2.55.55 0 0 1 .37.1.5.5 0 0 1 .2.33.47.47 0 0 1-.1.37Z" style="fill:#043904;opacity:.392277"/><path d="M250.74 86.27a.53.53 0 0 1-.32.19.49.49 0 0 1-.37-.09.53.53 0 0 1-.19-.33.48.48 0 0 1 .09-.36.49.49 0 0 1 .33-.19.48.48 0 0 1 .36.09.5.5 0 0 1 .1.69Z" style="fill:#043904;opacity:.382475"/><path d="M250.53 86.11a.45.45 0 0 1-.31.19.48.48 0 0 1-.36-.09.46.46 0 0 1-.18-.31.47.47 0 0 1 .09-.36.48.48 0 0 1 .31-.19.53.53 0 0 1 .36.09.48.48 0 0 1 .18.32.45.45 0 0 1-.09.35Z" style="fill:#043904;opacity:.372673"/><path d="M250.33 86a.46.46 0 0 1-.31.18.45.45 0 0 1-.53-.39.45.45 0 0 1 .09-.35.5.5 0 0 1 .31-.18.48.48 0 0 1 .53.39.49.49 0 0 1-.09.35Z" style="fill:#043904;opacity:.362871"/><path d="M250.12 85.81a.44.44 0 0 1-.63.09.39.39 0 0 1-.18-.3.46.46 0 0 1 .08-.34.47.47 0 0 1 .3-.18.46.46 0 0 1 .34.09.45.45 0 0 1 .18.3.42.42 0 0 1-.09.34Z" style="fill:#043904;opacity:.35306899999999997"/><path d="M249.92 85.65a.45.45 0 0 1-.29.18.42.42 0 0 1-.33-.08.47.47 0 0 1-.18-.3.44.44 0 0 1 .08-.33.42.42 0 0 1 .3-.17.44.44 0 0 1 .33.08.4.4 0 0 1 .17.29.42.42 0 0 1-.08.33Z" style="fill:#043904;opacity:.343267"/><path d="M249.71 85.5a.38.38 0 0 1-.28.17.41.41 0 0 1-.32-.08.43.43 0 0 1-.18-.28.49.49 0 0 1 .07-.31.43.43 0 0 1 .6-.09.42.42 0 0 1 .17.29.41.41 0 0 1-.06.3Z" style="fill:#043904;opacity:.333465"/><path d="M249.51 85.35a.46.46 0 0 1-.28.17.43.43 0 0 1-.31-.08.43.43 0 0 1-.09-.6.4.4 0 0 1 .28-.16.39.39 0 0 1 .31.08.46.46 0 0 1 .17.28.44.44 0 0 1-.08.31Z" style="fill:#043904;opacity:.323663"/><path d="M249.3 85.2a.4.4 0 0 1-.27.16.42.42 0 0 1-.3-.08.44.44 0 0 1-.17-.27.45.45 0 0 1 .08-.31.45.45 0 0 1 .27-.16.43.43 0 0 1 .31.08.45.45 0 0 1 .16.27.39.39 0 0 1-.08.31Z" style="fill:#043904;opacity:.313861"/><path d="M249.1 85a.38.38 0 0 1-.27.16.38.38 0 0 1-.29-.07.38.38 0 0 1-.16-.27.4.4 0 1 1 .79-.11.38.38 0 0 1-.07.29Z" style="fill:#043904;opacity:.30405899999999997"/><path d="M248.89 84.89a.33.33 0 0 1-.25.15.34.34 0 0 1-.29-.07.39.39 0 1 1 .54-.08Z" style="fill:#043904;opacity:.294257"/><path d="M248.69 84.74a.41.41 0 0 1-.25.15.4.4 0 0 1-.28-.07.38.38 0 0 1-.08-.53.33.33 0 0 1 .25-.15.35.35 0 0 1 .28.07.38.38 0 0 1 .08.53Z" style="fill:#043904;opacity:.284455"/><path d="M248.48 84.59a.35.35 0 0 1-.24.14.38.38 0 0 1-.27-.07.41.41 0 0 1-.15-.24.38.38 0 0 1 .07-.27.41.41 0 0 1 .24-.15.4.4 0 0 1 .28.07.38.38 0 0 1 .07.52Z" style="fill:#043904;opacity:.274653"/><path d="M248.28 84.43a.35.35 0 0 1-.24.14.31.31 0 0 1-.26-.06.35.35 0 0 1-.14-.24.35.35 0 0 1 .06-.26.35.35 0 0 1 .24-.14.34.34 0 0 1 .26.06.35.35 0 0 1 .14.24.3.3 0 0 1-.06.26Z" style="fill:#043904;opacity:.264851"/><path d="M248.07 84.28a.35.35 0 0 1-.23.14.33.33 0 0 1-.25-.07.31.31 0 0 1-.14-.23.33.33 0 0 1 .07-.25.32.32 0 0 1 .22-.14.35.35 0 0 1 .26.07.35.35 0 0 1 .14.22.35.35 0 0 1-.07.26Z" style="fill:#043904;opacity:.25505"/><path d="M247.87 84.13a.34.34 0 0 1-.47.07.32.32 0 0 1-.13-.22.33.33 0 0 1 .28-.38.29.29 0 0 1 .25.06.32.32 0 0 1 .13.22.36.36 0 0 1-.06.25Z" style="fill:#043904;opacity:.245248"/><path d="M247.66 84a.3.3 0 0 1-.21.12.27.27 0 0 1-.24-.06.32.32 0 0 1-.13-.21.35.35 0 0 1 .06-.24.32.32 0 0 1 .21-.13.37.37 0 0 1 .25.06.3.3 0 0 1 .12.21.33.33 0 0 1-.06.25Z" style="fill:#043904;opacity:.235446"/><path d="M247.46 83.82a.36.36 0 0 1-.21.13.32.32 0 0 1-.23-.06.3.3 0 0 1-.12-.21.28.28 0 0 1 0-.23.33.33 0 0 1 .21-.12.28.28 0 0 1 .23 0 .39.39 0 0 1 .13.21.32.32 0 0 1-.01.28Z" style="fill:#043904;opacity:.22564399999999998"/><path d="M247.25 83.67a.28.28 0 0 1-.2.12.3.3 0 0 1-.22-.06.28.28 0 0 1-.12-.2.31.31 0 0 1 .06-.22.28.28 0 0 1 .2-.12.31.31 0 0 1 .22.06.28.28 0 0 1 .12.2.31.31 0 0 1-.06.22Z" style="fill:#043904;opacity:.21584199999999998"/><path d="M247.05 83.52a.31.31 0 0 1-.19.11.28.28 0 0 1-.22 0 .39.39 0 0 1-.12-.19.29.29 0 0 1 .06-.22.31.31 0 0 1 .19-.11.25.25 0 0 1 .22 0 .31.31 0 0 1 .11.19.34.34 0 0 1-.05.22Z" style="fill:#043904;opacity:.20604000000000003"/><path d="M246.84 83.37a.31.31 0 0 1-.18.11.27.27 0 0 1-.21-.06.27.27 0 0 1-.11-.18.31.31 0 0 1 0-.21.28.28 0 0 1 .39-.06.27.27 0 0 1 .11.19.28.28 0 0 1 0 .21Z" style="fill:#043904;opacity:.196238"/><path d="M246.64 83.21a.27.27 0 1 1-.44-.32.27.27 0 0 1 .18-.1.28.28 0 0 1 .31.22.29.29 0 0 1-.05.2Z" style="fill:#043904;opacity:.186436"/><path d="M246.43 83.06a.23.23 0 0 1-.17.1.26.26 0 0 1-.19 0 .26.26 0 0 1 0-.36.27.27 0 0 1 .17-.1.27.27 0 0 1 .19 0 .27.27 0 0 1 .1.17.27.27 0 0 1-.1.19Z" style="fill:#043904;opacity:.17663399999999999"/><path d="M246.23 82.91a.22.22 0 0 1-.17.09.23.23 0 0 1-.18 0 .27.27 0 0 1-.1-.16.26.26 0 0 1 .05-.19.27.27 0 0 1 .16-.1.32.32 0 0 1 .19 0 .26.26 0 0 1 .09.16.26.26 0 0 1-.04.2Z" style="fill:#043904;opacity:.16683199999999998"/><path d="M246 82.75a.22.22 0 0 1-.15.1.23.23 0 0 1-.18 0 .21.21 0 0 1-.09-.15.23.23 0 0 1 0-.18.26.26 0 0 1 .16-.09.25.25 0 0 1 .17 0 .27.27 0 0 1 .1.16.26.26 0 0 1-.01.16Z" style="fill:#043904;opacity:.15703"/><path d="M245.82 82.6a.24.24 0 0 1-.15.09.25.25 0 0 1-.17 0 .24.24 0 0 1-.09-.15.25.25 0 0 1 0-.17.24.24 0 0 1 .15-.09.26.26 0 0 1 .17.05.22.22 0 0 1 .09.14.25.25 0 0 1 0 .13Z" style="fill:#043904;opacity:.147228"/><path d="M245.61 82.45a.16.16 0 0 1-.14.08.19.19 0 0 1-.16 0 .16.16 0 0 1-.08-.14.2.2 0 0 1 0-.16.22.22 0 0 1 .14-.08.2.2 0 0 1 .16 0 .22.22 0 0 1 .08.14.19.19 0 0 1 0 .16Z" style="fill:#043904;opacity:.137426"/><path d="M245.41 82.3a.29.29 0 0 1-.14.08.26.26 0 0 1-.15 0 .22.22 0 0 1-.08-.14.21.21 0 0 1 0-.15.22.22 0 0 1 .13-.08.24.24 0 0 1 .15 0 .17.17 0 0 1 .08.14.21.21 0 0 1 .01.15Z" style="fill:#043904;opacity:.127624"/><path d="M245.2 82.14a.18.18 0 0 1-.13.08.18.18 0 0 1-.14 0 .15.15 0 0 1-.07-.12.21.21 0 0 1 0-.15.21.21 0 0 1 .13-.07.15.15 0 0 1 .14 0 .2.2 0 0 1 .08.12.23.23 0 0 1-.01.14Z" style="fill:#043904;opacity:.117822"/><path d="M245 82a.17.17 0 0 1-.12.07.17.17 0 0 1-.14 0 .19.19 0 0 1-.07-.12.22.22 0 0 1 0-.14.29.29 0 0 1 .12-.07.23.23 0 0 1 .14 0 .19.19 0 0 1 .07.12.21.21 0 0 1 0 .14Z" style="fill:#043904;opacity:.10802"/><path d="M244.79 81.84a.19.19 0 0 1-.11.07.2.2 0 0 1-.13 0 .18.18 0 0 1-.07-.11.17.17 0 0 1 0-.12.14.14 0 0 1 .11-.07.16.16 0 0 1 .13 0 .17.17 0 0 1 .06.11.15.15 0 0 1 .01.12Z" style="fill:#043904;opacity:.098218"/><path d="M244.59 81.69a.24.24 0 0 1-.11.06.18.18 0 0 1-.12 0 .2.2 0 0 1-.06-.11.11.11 0 0 1 0-.11.14.14 0 0 1 .1-.07.21.21 0 0 1 .12 0 .14.14 0 0 1 .06.11.17.17 0 0 1 .01.12Z" style="fill:#043904;opacity:.088416"/><path d="M244.38 81.53a.11.11 0 0 1-.1.06.11.11 0 0 1-.11 0 .15.15 0 0 1-.06-.09.2.2 0 0 1 0-.11.12.12 0 0 1 .1-.06.11.11 0 0 1 .11 0 .15.15 0 0 1 .06.09.2.2 0 0 1 0 .11Z" style="fill:#043904;opacity:.078614"/><path d="M244.17 81.38a.15.15 0 0 1-.09.06.19.19 0 0 1-.1 0 .11.11 0 0 1 0-.09.12.12 0 0 1 0-.1.24.24 0 0 1 .09-.06.2.2 0 0 1 .11 0 .11.11 0 0 1 0 .09.1.1 0 0 1-.01.1Z" style="fill:#043904;opacity:.068812"/><path d="M244 81.23a.14.14 0 0 1-.08 0 .17.17 0 0 1-.1 0 .22.22 0 0 1 0-.08.14.14 0 0 1 0-.09.1.1 0 0 1 .08 0 .1.1 0 0 1 .09 0 .1.1 0 0 1 .05.08.12.12 0 0 1-.04.09Z" style="fill:#043904;opacity:.05901000000000001"/><path d="M243.76 81.08a.08.08 0 0 1-.07 0 .1.1 0 0 1-.09 0 .12.12 0 0 1 0-.08.08.08 0 0 1 0-.08.11.11 0 0 1 .08 0h.08a.14.14 0 0 1 0 .08.16.16 0 0 1 0 .08Z" style="fill:#043904;opacity:.049207999999999995"/><path d="M243.56 80.92a.08.08 0 0 1-.07 0 .08.08 0 0 1-.08 0s0 0 0-.06a.19.19 0 0 1 0-.08.1.1 0 0 1 .07 0 .08.08 0 0 1 .08 0s0 0 0 .07a.1.1 0 0 1 0 .07Z" style="fill:#043904;opacity:.039406"/><path d="M243.35 80.77a.09.09 0 0 1-.06 0h-.07a.07.07 0 0 1 0-.06.08.08 0 0 1 0-.07h.14a.11.11 0 0 1 0 .06.06.06 0 0 1-.01.07Z" style="fill:#043904;opacity:.029604"/><path d="M243.15 80.62a.06.06 0 0 1-.06 0 .07.07 0 0 1-.06 0 .07.07 0 0 1 0-.06.07.07 0 0 1 .06 0 .07.07 0 0 1 0 .06.07.07 0 0 1 .06 0Z" style="fill:#043904;opacity:.019802"/><path d="M242.82 80.43s0-.07.06-.08a.08.08 0 0 1 .08.06.14.14 0 0 1 0 .06.07.07 0 0 1-.06 0 .08.08 0 0 1-.08-.04Z" style="fill:#043904;opacity:.01"/><g style="opacity:.6000000000000001"><path d="M330.88 91.92a12.79 12.79 0 1 1 12.79-12.79 12.79 12.79 0 0 1-12.79 12.79Zm0-25.27a12.49 12.49 0 1 0 12.49 12.48 12.5 12.5 0 0 0-12.49-12.48Z" style="fill:#043904"/></g><g style="opacity:.5"><path d="M330.88 93.7a14.57 14.57 0 1 1 14.57-14.57 14.58 14.58 0 0 1-14.57 14.57Zm0-28.81a14.25 14.25 0 1 0 14.25 14.24 14.26 14.26 0 0 0-14.25-14.24Z" style="fill:#043904"/></g><g style="opacity:.30000000000000004"><path d="M330.88 95.58a16.45 16.45 0 1 1 16.45-16.45 16.47 16.47 0 0 1-16.45 16.45Zm0-32.56A16.12 16.12 0 1 0 347 79.13 16.13 16.13 0 0 0 330.88 63Z" style="fill:#043904"/></g><g style="opacity:.1"><path d="M330.88 97.66a18.53 18.53 0 1 1 18.53-18.53 18.55 18.55 0 0 1-18.53 18.53Zm0-36.71a18.19 18.19 0 1 0 18.19 18.18A18.21 18.21 0 0 0 330.88 61Z" style="fill:#043904"/></g><circle cx="330.88" cy="79.13" r="10.84" transform="rotate(-45 330.888 79.132)" style="fill:#043904"/><circle cx="330.88" cy="79.13" r="10.84" transform="rotate(-45 330.888 79.132)" style="fill:#fff;opacity:.7000000000000001"/><g style="opacity:.2"><path d="m329.67 72.63-.24-.54a33.22 33.22 0 0 0-1.92-3.26 11.4 11.4 0 0 0-1.89.83c.66 1 1.49 1.94 2.07 2.94a13.76 13.76 0 0 1 1 2.39 4.05 4.05 0 0 0 .46 1 1.38 1.38 0 0 0 .89.59.37.37 0 0 0 .18 0c.13-.06.16-.22.17-.36a7.93 7.93 0 0 0-.72-3.59Z" style="fill:#043904"/><path d="M338.82 86.51c-1.83-1.79-5.25-5.12-6.69-6.63-1.09-1.14-2.59-1.66-3.69-2.76a6.44 6.44 0 0 1-1.35-2.85c-.16-.57-.47-2.38-1.33-2.18 0 .3.15 1-.17 1.18s-.56-.4-.66-.57-1.1-1.79-1.08-1.81a11.91 11.91 0 0 0-.89.85c1 1.76 2.49 4.58 2.84 5.17.51.86 0 1.81-.64.88-.4-.57-2.17-2.82-3.45-4.43a11.06 11.06 0 0 0-1 2.1c1 1.48 2.16 3.29 3.8 4.13a2 2 0 0 0 1.77.1 5.48 5.48 0 0 1 1.06-.63 1.91 1.91 0 0 1 1.43.5c.87.63 1.72 1.3 2.53 2a6.69 6.69 0 0 1 1.13 1.06.79.79 0 0 1-.07 1c0 .11-.4.09-.45.08a1.37 1.37 0 0 1-.4-.24c-.36-.24-.74-.45-1.11-.68s-.66-.35-.94-.18a1.06 1.06 0 0 0 .37.79 16.83 16.83 0 0 0 2.39 2.15 2 2 0 0 0 .53.3.68.68 0 0 0 .59-.07c.17-.13.25-.35.44-.46a.56.56 0 0 1 .56 0c.39.23.69.65 1.06.92a15.5 15.5 0 0 1 1.76 1.77 11 11 0 0 0 1.66-1.49ZM330.88 90a10.85 10.85 0 0 0 4-.74c-1.79-1.61-4.62-4.12-5.47-4.67s-1.28.27-1.72.79a1.71 1.71 0 0 1-.82.64.94.94 0 0 1-1-.91 1.56 1.56 0 0 1 .43-1 3.08 3.08 0 0 0 .71-.91 2.06 2.06 0 0 0-.45-1.7c-.13-.2-.28-.43-.52-.48s-.61.22-.85.45a4.78 4.78 0 0 1-.93.75 1.27 1.27 0 0 1-.71.25 1.47 1.47 0 0 1-.75-.34 6.38 6.38 0 0 1-1.43-1.36l-.66-.86c-.12-.16-.61-.63-.61-.82v.1A10.84 10.84 0 0 0 330.88 90ZM335.31 69.24a3.64 3.64 0 0 0 1 2.39c.43.58.89 1.15 1.35 1.71s1 1 1 1.57a1.43 1.43 0 0 1-.62 1 5.2 5.2 0 0 1-.88.59c-.25.14-.56.31-.56.6s.25.45.48.58c.87.51 1.76 1 2.66 1.46a5.38 5.38 0 0 1 1.23.66c.23.2.37.49.61.7a6.33 6.33 0 0 0 .1-1.38 10.82 10.82 0 0 0-6.37-9.88Z" style="fill:#043904"/><path d="M335.25 75.73a3.74 3.74 0 0 1 .42-.27c.33-.17.7-.36.78-.72s-.37-.87-.79-1.12l-1.3-.8a2.2 2.2 0 0 1-.59-.45 2.08 2.08 0 0 1-.39-.68 14.46 14.46 0 0 1-.67-2c-.07-.24-.21-1.33-.58-1.37a10.23 10.23 0 0 0-1.25-.08 11.9 11.9 0 0 0-1.34.09c.22 0 .72 1.31.79 1.51a16.08 16.08 0 0 1 .8 2.64c.17.89 1.27 1.33 2 1.81a.55.55 0 0 1 .24.26.47.47 0 0 1-.06.41 11.69 11.69 0 0 1-.73 1.15 1.73 1.73 0 0 0-.3 1.29 2.2 2.2 0 0 0 .72 1c2.31 2.21 4.76 4.34 7 6.66a10.77 10.77 0 0 0 1.15-2.24c.07-.22-1.19-1.23-1.36-1.37-.74-.59-1.58-1.07-2.32-1.68l-2.09-1.68a2 2 0 0 1-.74-.91 1.25 1.25 0 0 1 .24-1.08 1.92 1.92 0 0 1 .37-.37Z" style="fill:#043904"/></g><g style="opacity:.2"><path d="M332.1 85.64c.07.19.16.37.24.54a33.22 33.22 0 0 0 1.92 3.26 11.4 11.4 0 0 0 1.89-.83c-.66-1-1.49-1.94-2.07-3a12.64 12.64 0 0 1-1-2.38 3.89 3.89 0 0 0-.46-1 1.38 1.38 0 0 0-.9-.59.33.33 0 0 0-.17 0c-.13.06-.16.22-.17.36a8 8 0 0 0 .72 3.64Z" style="fill:#fff"/><path d="M322.94 71.76c1.84 1.78 5.26 5.12 6.7 6.63 1.09 1.14 2.59 1.66 3.69 2.76a6.32 6.32 0 0 1 1.34 2.85c.17.57.48 2.38 1.34 2.17 0-.29-.15-1 .17-1.17s.56.39.66.57 1.1 1.79 1.08 1.81a11.91 11.91 0 0 0 .89-.85c-1-1.76-2.49-4.58-2.84-5.17-.52-.86 0-1.81.64-.89.4.58 2.16 2.83 3.44 4.44a10 10 0 0 0 1-2.1c-1-1.48-2.15-3.29-3.79-4.13a2 2 0 0 0-1.77-.1c-.37.19-.66.53-1.07.62a1.83 1.83 0 0 1-1.42-.5 34.7 34.7 0 0 1-2.53-2 7.23 7.23 0 0 1-1.14-1.07.81.81 0 0 1 .08-1c0-.1.39-.08.45-.07a1.52 1.52 0 0 1 .4.24c.36.24.74.45 1.11.68s.65.35.94.17a1.05 1.05 0 0 0-.37-.78 16.83 16.83 0 0 0-2.39-2.15 1.91 1.91 0 0 0-.54-.3.68.68 0 0 0-.59.07c-.17.13-.25.35-.43.46a.58.58 0 0 1-.57 0c-.39-.23-.68-.65-1.06-.92a16.24 16.24 0 0 1-1.78-1.73 11.06 11.06 0 0 0-1.64 1.46ZM330.88 68.29a10.84 10.84 0 0 0-3.95.75c1.78 1.61 4.62 4.12 5.47 4.67s1.27-.27 1.72-.79a1.67 1.67 0 0 1 .82-.64.94.94 0 0 1 1 .91 1.57 1.57 0 0 1-.44 1 3.21 3.21 0 0 0-.7.91 2 2 0 0 0 .45 1.69 1 1 0 0 0 .52.49c.33.07.61-.22.85-.46a5.13 5.13 0 0 1 .93-.74 1.22 1.22 0 0 1 .71-.25 1.47 1.47 0 0 1 .75.34 6.15 6.15 0 0 1 1.43 1.36l.66.85c.12.16.61.64.61.83v-.11a10.84 10.84 0 0 0-10.83-10.81ZM326.46 89a3.64 3.64 0 0 0-1-2.39q-.66-.87-1.35-1.71c-.36-.44-1-1-1-1.58a1.44 1.44 0 0 1 .63-1 5.2 5.2 0 0 1 .88-.59c.25-.14.56-.31.56-.6s-.25-.45-.48-.59c-.87-.51-1.76-1-2.66-1.45a5.67 5.67 0 0 1-1.24-.66c-.22-.2-.36-.5-.61-.7a7 7 0 0 0-.1 1.37 10.85 10.85 0 0 0 6.37 9.9Z" style="fill:#fff"/><path d="M326.52 82.54a3.78 3.78 0 0 1-.43.26c-.32.18-.69.37-.77.73s.36.86.78 1.12l1.31.8a2.59 2.59 0 0 1 .59.44 2.24 2.24 0 0 1 .39.69 14.82 14.82 0 0 1 .67 1.94c.07.25.2 1.34.58 1.38a10.19 10.19 0 0 0 1.24.07 11.94 11.94 0 0 0 1.35-.08c-.22 0-.72-1.31-.79-1.51a17.49 17.49 0 0 1-.81-2.64c-.16-.89-1.26-1.33-1.95-1.81a.69.69 0 0 1-.25-.26.55.55 0 0 1 .06-.41c.2-.41.5-.76.74-1.15a1.77 1.77 0 0 0 .3-1.29 2.28 2.28 0 0 0-.72-1c-2.32-2.21-4.76-4.35-6.95-6.66a10.53 10.53 0 0 0-1.15 2.24c-.08.21 1.19 1.23 1.35 1.36.75.6 1.59 1.08 2.33 1.68l2.08 1.69a2 2 0 0 1 .75.91 1.25 1.25 0 0 1-.22 1.06 2.4 2.4 0 0 1-.48.44Z" style="fill:#fff"/></g><path d="M341.6 80.76c-.8 4-8 7.69-13.82 5.21-6.16-2.64-7.32-11-4.3-14.75a10.84 10.84 0 1 0 18.12 9.54Z" style="opacity:.05"/><path d="M335.62 72.25a2.52 2.52 0 1 1-2.52-2.52 2.51 2.51 0 0 1 2.52 2.52ZM337.42 75a1.16 1.16 0 1 1-1.16-1.15 1.15 1.15 0 0 1 1.16 1.15Z" style="fill:#fff;opacity:.6000000000000001"/><path d="M320 79.13a10.85 10.85 0 0 0 20.07 5.7c-.25.39-3.31 5.21-10.89 3.82-7.89-1.44-9.18-9.51-9-11.22a10.73 10.73 0 0 0-.18 1.7Z" style="opacity:.05"/><path d="M210.44 114.59a5.38 5.38 0 1 1 5.38-5.38 5.38 5.38 0 0 1-5.38 5.38Zm0-10.26a4.88 4.88 0 1 0 4.88 4.88 4.89 4.89 0 0 0-4.88-4.88Z" style="fill:#043904"/><path d="M210.44 107.71a1.51 1.51 0 0 1 0 3 1.51 1.51 0 1 1 0-3Z" style="fill:#043904"/><path d="M210.44 107.71a1.51 1.51 0 0 1 0 3 1.51 1.51 0 1 1 0-3Z" style="fill:#fff;opacity:.8"/><path d="M361.2 54.71a5.39 5.39 0 1 1 5.38-5.39 5.39 5.39 0 0 1-5.38 5.39Zm0-10.27a4.89 4.89 0 1 0 4.88 4.88 4.89 4.89 0 0 0-4.88-4.88Z" style="fill:#043904"/><path d="M361.2 47.82a1.51 1.51 0 1 1-1.51 1.5 1.5 1.5 0 0 1 1.51-1.5Z" style="fill:#043904"/><path d="M361.2 47.82a1.51 1.51 0 1 1-1.51 1.5 1.5 1.5 0 0 1 1.51-1.5Z" style="fill:#fff;opacity:.8"/><path d="M58.28 356a5.89 5.89 0 0 1 3.21.57 33.37 33.37 0 0 1 5.24 3.71 10.52 10.52 0 0 0 5.81 2.51c2.15.07 4.46-1.26 4.85-3.37a3 3 0 0 1 .27-1.07 1.56 1.56 0 0 1 1.83-.47 9.33 9.33 0 0 1 1.76 1c2.17 1.29 4.89 1 7.38.63 2.07-.3 4.69-1.21 4.68-3.31 0-1.36-1.2-2.37-2.14-3.37s-1.7-2.58-.84-3.64a2.45 2.45 0 0 1 1.2-.73c2.59-.85 5.76.28 8-1.35a4.57 4.57 0 0 0 1.15-5.48 7 7 0 0 0-4.68-3.54c-1.74-.44-3.95-.64-4.6-2.32-.57-1.47.58-3 1.86-4s2.81-1.49 3.74-2.77a4.49 4.49 0 0 0 .13-4.64 5.7 5.7 0 0 0-3.91-2.68 8.58 8.58 0 0 1-2.37-.52 1.59 1.59 0 0 1-.88-2c.24-.42.73-.64 1-1a1.9 1.9 0 0 0-.7-2.47 9.63 9.63 0 0 0-2.65-1c-1.88-.63-2.84-1.62-2.29-3.52s3.25-1.84 4.06-3.74c.71-1.68-1.25-5.25-2.76-6.28s-3.34-1.45-5-2.23-3.24-2.15-3.38-4 1.27-3.44 2.41-4.92 2.1-3.55 1.11-5.13-3.08-1.61-4.8-2.16a7.77 7.77 0 0 1-4.72-4.26c-.46-1.05-.68-2.2-1.22-3.21-1.7-3.14-6-4.51-9.28-4.13a3.77 3.77 0 0 0-3.15 2.14 5.11 5.11 0 0 0-1.16 2.17c-.24 1.52.55 3.45-.87 4.61-2.18 1.75-5.5-.61-5.39 3.32a17 17 0 0 0 .74 4.9c.59 1.65 1.77 2.36.79 4.21-1.28 2.4-2.11 2.39-4.67 2.38-1.85 0-3.4-.1-4.76 1.3-2.38 2.47-1 4.71 1.16 6.61 2.41 2.16 1.13 3.11.81 5.92-.15 1.34.16 1.76-1.05 2.65-2.28 1.7-3.55 1.13-2.91 4.44.58 3-.32 2-2.94 3.12-2.33 1-3.87 3.51-5.75 5.07-1.21 1-3.06 1.79-3.17 3.55-.22 3.38 4 2.64 6 3.44 3.27 1.32 2.29 5.6-.25 7.2-2.7 1.69-6.63 2.32-6.85 6.19-.16 3 1.52 3.62 3.82 4.61 1.84.8 1.61 1 1.6 3.22 0 4.42 1.49 5.67 5.85 4.95 1.19-.19 3-.7 4.21-.34 1.66.5 1.1.91 1.15 2.3.12 3.57 4.27 2.57 6 1 2.04-1.75 4.57-3.8 7.32-4.07Z" style="fill:#043904"/><path d="M58.28 356a5.89 5.89 0 0 1 3.21.57 33.37 33.37 0 0 1 5.24 3.71 10.52 10.52 0 0 0 5.81 2.51c2.15.07 4.46-1.26 4.85-3.37a3 3 0 0 1 .27-1.07 1.56 1.56 0 0 1 1.83-.47 9.33 9.33 0 0 1 1.76 1c2.17 1.29 4.89 1 7.38.63 2.07-.3 4.69-1.21 4.68-3.31 0-1.36-1.2-2.37-2.14-3.37s-1.7-2.58-.84-3.64a2.45 2.45 0 0 1 1.2-.73c2.59-.85 5.76.28 8-1.35a4.57 4.57 0 0 0 1.15-5.48 7 7 0 0 0-4.68-3.54c-1.74-.44-3.95-.64-4.6-2.32-.57-1.47.58-3 1.86-4s2.81-1.49 3.74-2.77a4.49 4.49 0 0 0 .13-4.64 5.7 5.7 0 0 0-3.91-2.68 8.58 8.58 0 0 1-2.37-.52 1.59 1.59 0 0 1-.88-2c.24-.42.73-.64 1-1a1.9 1.9 0 0 0-.7-2.47 9.63 9.63 0 0 0-2.65-1c-1.88-.63-2.84-1.62-2.29-3.52s3.25-1.84 4.06-3.74c.71-1.68-1.25-5.25-2.76-6.28s-3.34-1.45-5-2.23-3.24-2.15-3.38-4 1.27-3.44 2.41-4.92 2.1-3.55 1.11-5.13-3.08-1.61-4.8-2.16a7.77 7.77 0 0 1-4.72-4.26c-.46-1.05-.68-2.2-1.22-3.21-1.7-3.14-6-4.51-9.28-4.13a3.77 3.77 0 0 0-3.15 2.14 5.11 5.11 0 0 0-1.16 2.17c-.24 1.52.55 3.45-.87 4.61-2.18 1.75-5.5-.61-5.39 3.32a17 17 0 0 0 .74 4.9c.59 1.65 1.77 2.36.79 4.21-1.28 2.4-2.11 2.39-4.67 2.38-1.85 0-3.4-.1-4.76 1.3-2.38 2.47-1 4.71 1.16 6.61 2.41 2.16 1.13 3.11.81 5.92-.15 1.34.16 1.76-1.05 2.65-2.28 1.7-3.55 1.13-2.91 4.44.58 3-.32 2-2.94 3.12-2.33 1-3.87 3.51-5.75 5.07-1.21 1-3.06 1.79-3.17 3.55-.22 3.38 4 2.64 6 3.44 3.27 1.32 2.29 5.6-.25 7.2-2.7 1.69-6.63 2.32-6.85 6.19-.16 3 1.52 3.62 3.82 4.61 1.84.8 1.61 1 1.6 3.22 0 4.42 1.49 5.67 5.85 4.95 1.19-.19 3-.7 4.21-.34 1.66.5 1.1.91 1.15 2.3.12 3.57 4.27 2.57 6 1 2.04-1.75 4.57-3.8 7.32-4.07Z" style="opacity:.1"/><path d="M91.53 348.48c2-.65 4.32-.14 6.28-.61a24.24 24.24 0 0 0-3.52-.55 10 10 0 0 0-7.6 3 6.88 6.88 0 0 1 1.53 4.56c-4.94 1.34-9.8-5.28-14.51-3.26.29 2.39 0 5.6-2.31 6.13a3.8 3.8 0 0 1-3.6-1.75c-.85-1.12-1.37-2.46-2.22-3.57a7.57 7.57 0 0 0-10-1.47c-1.27.93-2.87 2.33-4.14 1.4s-.54-3.68-2-4.43c-1-.5-2.41.3-3.25-.45a2.25 2.25 0 0 1-.58-1.23c-.6-2.52-1.12-5.44.47-7.49 1.42-1.83 4.41-3 4.09-5.24-.28-1.95-2.76-2.54-4.72-2.77s-4.44-1.15-4.35-3.12 2.72-2.87 3.11-4.77c.16-.81-.11-1.71.26-2.45.56-1.12 2.15-1.16 3.09-2 1.67-1.48.37-4.26.85-6.44.33-1.55 1.59-2.77 2-4.3.83-3-2-6-4.86-7.2a18.44 18.44 0 0 1-3.41-1.47.39.39 0 0 0-.1-.08c.07 1.38 1.1 2.66 2.39 3.82 2.41 2.16 1.13 3.11.81 5.92-.15 1.34.16 1.76-1.05 2.65-2.28 1.7-3.55 1.13-2.91 4.44.58 3-.32 2-2.94 3.12-2.33 1-3.87 3.51-5.75 5.07-1.21 1-3.06 1.79-3.17 3.55-.22 3.38 4 2.64 6 3.44 3.27 1.32 2.29 5.6-.25 7.2-2.7 1.69-6.63 2.32-6.85 6.19-.16 3 1.52 3.62 3.82 4.61 1.84.8 1.61 1 1.6 3.22 0 4.42 1.49 5.67 5.85 4.95 1.19-.19 3-.7 4.21-.34 1.66.5 1.1.91 1.15 2.3.12 3.57 4.27 2.57 6 1 2-1.76 4.58-3.81 7.33-4.07a5.89 5.89 0 0 1 3.21.57 33.37 33.37 0 0 1 5.24 3.71 10.52 10.52 0 0 0 5.81 2.51c2.15.07 4.46-1.26 4.85-3.37a3 3 0 0 1 .27-1.07 1.56 1.56 0 0 1 1.83-.47 9.33 9.33 0 0 1 1.76 1c2.17 1.29 4.89 1 7.38.63 2.07-.3 4.69-1.21 4.68-3.31 0-1.37-1.2-2.37-2.14-3.37s-1.7-2.58-.84-3.64a2.45 2.45 0 0 1 1.2-.7Z" style="opacity:.2"/><path d="m51.48 319.58 11.9 23.59v-10.85l1.21-46.24 1.76 46.24v7.3l13.07-22.86-13.07 28.06v78.64a.73.73 0 0 1-.44.6 2.29 2.29 0 0 1-2.1 0 .71.71 0 0 1-.43-.6v-74.27Z"/><path d="M284.13 189.42a5.87 5.87 0 0 1 3.18.57 32.36 32.36 0 0 1 5.17 3.67 10.54 10.54 0 0 0 5.75 2.48c2.11.07 4.4-1.25 4.78-3.34a3.18 3.18 0 0 1 .27-1.06 1.54 1.54 0 0 1 1.81-.46 9.12 9.12 0 0 1 1.74 1c2.15 1.27 4.83 1 7.29.62 2.05-.29 4.64-1.2 4.63-3.27 0-1.35-1.19-2.35-2.11-3.33s-1.69-2.55-.84-3.6a2.48 2.48 0 0 1 1.2-.7c2.56-.84 5.69.27 7.85-1.33a4.52 4.52 0 0 0 1.14-5.42 6.86 6.86 0 0 0-4.61-3.51c-1.72-.44-3.91-.64-4.55-2.3-.56-1.45.57-3 1.84-3.91s2.81-1.51 3.69-2.79c2.26-3.26-.25-9-2.94-11.2-1.34-1.09-3-1.91-3.78-3.46-1.07-2.2.19-4.75.49-7.17a9.14 9.14 0 0 0-3.91-8.5c-1.68-1.12-4-2-4.26-4s1.48-3.44 1.7-5.31-1.2-3.65-2.84-4.65-3.55-1.49-5.23-2.44c-3.44-2-3.63-5.13-5.87-7.81-1.84-2.19-5.43-3-8.16-2.7a3.7 3.7 0 0 0-3.11 2.12 4.91 4.91 0 0 0-1.14 2.14c-.25 1.5.54 3.41-.87 4.55-2.15 1.74-5.44-.6-5.32 3.28a16.83 16.83 0 0 0 .72 4.84c.59 1.63 1.76 2.34.79 4.17-1.27 2.4-2.1 2.4-4.63 2.4-1.83 0-3.35-.1-4.7 1.29-2.35 2.43-.95 4.64 1.14 6.52 2.38 2.14 1.12 3.08.81 5.85-.15 1.33.16 1.74-1 2.63-2.25 1.67-3.51 1.11-2.88 4.38.58 3-.31 2-2.9 3.09-2.3 1-3.82 3.46-5.68 5-1.2 1-3 1.76-3.14 3.5-.21 3.34 3.93 2.61 5.91 3.4 3.22 1.31 2.26 5.53-.26 7.11s-6.55 2.3-6.76 6.12c-.16 2.93 1.5 3.58 3.78 4.56 1.81.78 1.58 1 1.58 3.18 0 4.37 1.47 5.6 5.77 4.89 1.18-.19 3-.69 4.16-.34 1.65.5 1.09.9 1.14 2.28.11 3.53 4.22 2.54 6 1 1.92-1.76 4.44-3.78 7.16-4.04Z" style="fill:#043904"/><path d="M284.13 189.42a5.87 5.87 0 0 1 3.18.57 32.36 32.36 0 0 1 5.17 3.67 10.54 10.54 0 0 0 5.75 2.48c2.11.07 4.4-1.25 4.78-3.34a3.18 3.18 0 0 1 .27-1.06 1.54 1.54 0 0 1 1.81-.46 9.12 9.12 0 0 1 1.74 1c2.15 1.27 4.83 1 7.29.62 2.05-.29 4.64-1.2 4.63-3.27 0-1.35-1.19-2.35-2.11-3.33s-1.69-2.55-.84-3.6a2.48 2.48 0 0 1 1.2-.7c2.56-.84 5.69.27 7.85-1.33a4.52 4.52 0 0 0 1.14-5.42 6.86 6.86 0 0 0-4.61-3.51c-1.72-.44-3.91-.64-4.55-2.3-.56-1.45.57-3 1.84-3.91s2.81-1.51 3.69-2.79c2.26-3.26-.25-9-2.94-11.2-1.34-1.09-3-1.91-3.78-3.46-1.07-2.2.19-4.75.49-7.17a9.14 9.14 0 0 0-3.91-8.5c-1.68-1.12-4-2-4.26-4s1.48-3.44 1.7-5.31-1.2-3.65-2.84-4.65-3.55-1.49-5.23-2.44c-3.44-2-3.63-5.13-5.87-7.81-1.84-2.19-5.43-3-8.16-2.7a3.7 3.7 0 0 0-3.11 2.12 4.91 4.91 0 0 0-1.14 2.14c-.25 1.5.54 3.41-.87 4.55-2.15 1.74-5.44-.6-5.32 3.28a16.83 16.83 0 0 0 .72 4.84c.59 1.63 1.76 2.34.79 4.17-1.27 2.4-2.1 2.4-4.63 2.4-1.83 0-3.35-.1-4.7 1.29-2.35 2.43-.95 4.64 1.14 6.52 2.38 2.14 1.12 3.08.81 5.85-.15 1.33.16 1.74-1 2.63-2.25 1.67-3.51 1.11-2.88 4.38.58 3-.31 2-2.9 3.09-2.3 1-3.82 3.46-5.68 5-1.2 1-3 1.76-3.14 3.5-.21 3.34 3.93 2.61 5.91 3.4 3.22 1.31 2.26 5.53-.26 7.11s-6.55 2.3-6.76 6.12c-.16 2.93 1.5 3.58 3.78 4.56 1.81.78 1.58 1 1.58 3.18 0 4.37 1.47 5.6 5.77 4.89 1.18-.19 3-.69 4.16-.34 1.65.5 1.09.9 1.14 2.28.11 3.53 4.22 2.54 6 1 1.92-1.76 4.44-3.78 7.16-4.04Z" style="opacity:.1"/><path d="M317 182c2-.64 4.26-.14 6.21-.6a23.93 23.93 0 0 0-3.48-.55 9.87 9.87 0 0 0-7.51 3 6.84 6.84 0 0 1 1.51 4.51c-2.68.73-5.3-.88-7.6-2-1.16-.58-2.22-1.26-3.55-.94a4.72 4.72 0 0 0-3.09 2.53c-.63 1.34-.63 2.88-2.39 3.28a3.75 3.75 0 0 1-3.55-1.71c-.84-1.1-1.35-2.43-2.2-3.53a7.46 7.46 0 0 0-9.92-1.44c-1.26.91-2.84 2.29-4.1 1.38s-.53-3.64-2-4.38c-1-.49-2.38.29-3.22-.44a2.22 2.22 0 0 1-.56-1.22c-.59-2.49-1.11-5.38.46-7.4 1.4-1.81 4.36-2.92 4-5.18-.27-1.93-2.73-2.51-4.67-2.74s-4.38-1.14-4.29-3.09 2.69-2.83 3.07-4.7c.16-.81-.11-1.7.26-2.43.55-1.1 2.12-1.14 3.05-2 1.65-1.46.37-4.21.84-6.37.33-1.53 1.57-2.73 2-4.24.82-3-1.93-5.89-4.8-7.12a17.34 17.34 0 0 1-3.27-1.51l-.11-.08a6 6 0 0 0 2.36 3.77c2.38 2.14 1.12 3.08.81 5.85-.15 1.33.16 1.74-1 2.63-2.25 1.67-3.51 1.11-2.88 4.38.58 3-.31 2-2.9 3.09-2.3 1-3.82 3.46-5.68 5-1.2 1-3 1.76-3.14 3.5-.21 3.34 3.93 2.61 5.91 3.4 3.22 1.31 2.26 5.53-.26 7.11s-6.55 2.3-6.76 6.12c-.16 2.93 1.5 3.58 3.78 4.56 1.81.78 1.58 1 1.58 3.18 0 4.37 1.47 5.6 5.77 4.89 1.18-.19 3-.69 4.16-.34 1.65.5 1.09.9 1.14 2.28.11 3.53 4.22 2.54 6 1 2-1.74 4.52-3.76 7.24-4a5.87 5.87 0 0 1 3.18.57 32.36 32.36 0 0 1 5.17 3.67 10.54 10.54 0 0 0 5.75 2.48c2.11.07 4.4-1.25 4.78-3.34a3.18 3.18 0 0 1 .27-1.06 1.54 1.54 0 0 1 1.81-.46 9.12 9.12 0 0 1 1.74 1c2.15 1.27 4.83 1 7.29.62 2.05-.29 4.64-1.2 4.63-3.27 0-1.35-1.19-2.35-2.11-3.33s-1.69-2.55-.84-3.6A2.48 2.48 0 0 1 317 182Z" style="opacity:.2"/><path d="m277.41 153.43 11.76 23.31V166l1.2-45.69L292.1 166v7.21l12.9-22.57-12.9 27.72v70a.71.71 0 0 1-.43.6 2.29 2.29 0 0 1-2.07 0 .71.71 0 0 1-.43-.6v-65.68Z"/><path d="M416.17 357.91c1 9.47 6.86 20.1 6.86 20.1l-2.27-.51c-5.25-12.1-4.59-19.59-4.59-19.59Z" style="fill:#043904"/><path d="M416.17 357.91c1 9.47 6.86 20.1 6.86 20.1l-2.27-.51c-5.25-12.1-4.59-19.59-4.59-19.59Z" style="opacity:.15"/><path d="m421.83 377.66.05.09-1.12-.25c-5.25-12.1-4.59-19.59-4.59-19.59-.17 4.79 3.18 15.19 5.66 19.75Z" style="opacity:.15"/><path d="M423 378a59.73 59.73 0 0 1-.85-16.26c.88-7.92 3.75-12.23 3.75-12.23s-4 3.6-5.54 12.29a50.29 50.29 0 0 0-.33 15.53Z" style="fill:#043904"/><path d="M423 378a59.73 59.73 0 0 1-.85-16.26c.88-7.92 3.75-12.23 3.75-12.23s-4 3.6-5.54 12.29a50.29 50.29 0 0 0-.33 15.53Z" style="opacity:.2"/><path d="m421.47 377.66-1.41-.32a50.29 50.29 0 0 1 .33-15.53c1.51-8.69 5.54-12.29 5.54-12.29-3.66 4.37-6.75 15.92-4.46 28.14Z" style="opacity:.1"/><path d="M423 378s-.73-7.07 5.8-15.18a24.22 24.22 0 0 0-8.07 14.67Z" style="fill:#043904"/><path d="M421.83 377.66v.08l-1.07-.24a24.22 24.22 0 0 1 8.07-14.67c-3.15 3.41-6.65 8.64-7 14.83Z" style="opacity:.1"/><path d="M402.21 381.19s-6-6.35-5.35-13.72c0 0 .29 6.19 6.32 11.55a30.57 30.57 0 0 1-1.93-10.54c-.06-6.59 1.58-10.43 3.09-12.05-1.7 3.49-2.12 7.79-1.71 12.49a22.4 22.4 0 0 0 5.1 12.56Z"/><path style="opacity:.2" d="m392.44 398.28 7.81 2.22 2.59 4.38 10.85.49 4.43-3.33 4.19 1.51 4.88.27-.61 3.17 8.22 1.22 2.69-2.21 5.16-1.21 6.46-8-4.32-2.59-3.53-.7-3.16-5.35-9.67-2.96-8-3.96-24.28 5.19-9.82 6.98 6.11 4.88z"/><path d="m381.76 391-.23-.24a1 1 0 0 1-.28-.52c0-.32.28-.57.56-.73a4.44 4.44 0 0 1 1.74-.55c.35 0 .82-.17.78-.51a.72.72 0 0 0-.1-.24 5 5 0 0 1-.63-3.17 1.07 1.07 0 0 1 .54-.93 1.06 1.06 0 0 1 .61 0 14.19 14.19 0 0 1 2.39.69 11.72 11.72 0 0 1-.09-4.57 2.07 2.07 0 0 1 .86-1.54c.74-.38 1.61.16 2.27.67l1.39 1.08a10.43 10.43 0 0 1 1.72-3 1.35 1.35 0 0 1 1-.63c.58 0 .87.69 1 1.24.22.72.44 1.44.65 2.15a8.07 8.07 0 0 1 3.14-1.39 1.56 1.56 0 0 1 1.24.14 1.54 1.54 0 0 1 .44.67 7.84 7.84 0 0 1 .77 2.07 3.26 3.26 0 0 1 4.28 1.11 4.12 4.12 0 0 1-.46 4.61 5.7 5.7 0 0 1-4.35 1.89 1.87 1.87 0 0 1 .51 2.18 3.51 3.51 0 0 1-1.65 1.69 6.86 6.86 0 0 1-8.29-1.44c.27.32-2.07 1.3-2.3 1.35a8.23 8.23 0 0 1-7.51-2.08Z" style="fill:#263238"/><path style="fill:#043904" d="m411.15 371.44-10.39 7.79-3.35 5.38 7.1.62 9.2 3.62 2.01-5.79-4.4-5.38-.17-6.24z"/><path style="opacity:.30000000000000004" d="m411.15 371.44-10.39 7.79-3.35 5.38 7.1.62 9.2 3.62 2.01-5.79-4.4-5.38-.17-6.24z"/><path style="fill:#043904" d="m411.15 371.44 6.62-.14 1.79 6.59-3.84 5.17-4.4-5.38-.17-6.24z"/><path style="opacity:.35000000000000003" d="m411.15 371.44 6.62-.14 1.79 6.59-3.84 5.17-4.4-5.38-.17-6.24z"/><path style="fill:#043904" d="m427.78 377.89 1.21 5.18-4.85-1.25-5.55 3.3-2.37 3.37-1.62 6.41-1.48 8.97-3.27-7.44 3.86-7.58 3.96-5.03 6.08-2.55 4.03-3.38z"/><path style="fill:#043904" d="m422.92 398.21 7.67-7.31-3.8-5.92-3.87 13.23z"/><g style="opacity:.5"><path d="m427.78 377.89 1.21 5.18-4.85-1.25-5.55 3.3-2.37 3.37-1.62 6.41-1.48 8.97-3.27-7.44 3.86-7.58 3.96-5.03 6.08-2.55 4.03-3.38z"/><path d="m422.92 398.21 7.67-7.31-3.8-5.92-3.87 13.23z"/></g><path style="fill:#043904" d="m405.09 375.98-3.65 4.8-.75 2.6 3.92-.05 9.1 5.52-9.2-3.62-7.1-.62 3.35-5.38 4.33-3.25zM417.77 371.3l.25 6.37-3.44 3.99 1.14 1.4 3.84-5.17-1.79-6.59z"/><path style="fill:#043904" d="m409.85 396.43-5.07-.61-10.4-2.55-6.75-4.36 2.11-3.61 3.79-.87-3.01 1.57-.32 2.46 3.68 2.47 15.31 4.09 4.52-6.17-3.86 7.58z"/><g style="opacity:.25"><path d="m405.09 375.98-3.65 4.8-.75 2.6 3.92-.05 9.1 5.52-9.2-3.62-7.1-.62 3.35-5.38 4.33-3.25zM417.77 371.3l.25 6.37-3.44 3.99 1.14 1.4 3.84-5.17-1.79-6.59z"/><path d="m409.85 396.43-5.07-.61-10.4-2.55-6.75-4.36 2.11-3.61 3.79-.87-3.01 1.57-.32 2.46 3.68 2.47 15.31 4.09 4.52-6.17-3.86 7.58z"/></g><path style="fill:#043904" d="m400.76 379.23-7.23 5.2-3.01 1.57-.32 2.46 3.68 2.47 15.31 4.09 1.27-1.74-5.5-4.42-3.83.56-3.72-4.81 3.35-5.38z"/><path style="opacity:.35000000000000003" d="m400.76 379.23-7.23 5.2-3.01 1.57-.32 2.46 3.68 2.47 15.31 4.09 1.27-1.74-5.5-4.42-3.83.56-3.72-4.81 3.35-5.38z"/><path style="fill:#043904" d="m417.77 371.3 10.01 6.59-4.03 3.38-6.08 2.55-3.96 5.03 2.01-5.79 3.84-5.17-1.79-6.59z"/><path style="fill:#043904" d="m424.14 381.82-5.55 3.3-2.37 3.37-1.62 6.41 2.12 5.73 6.2-2.42 3.87-13.23-2.65-3.16zM397.41 384.61l3.72 4.81 3.83-.56-.45-3.63-7.1-.62zM393.12 397l3.25.58 1.46-1.87 6.95.11-10.4-2.55-1.26 3.73z"/><g style="opacity:.45"><path d="m417.77 371.3 10.01 6.59-4.03 3.38-6.08 2.55-3.96 5.03 2.01-5.79 3.84-5.17-1.79-6.59z"/><path d="m424.14 381.82-5.55 3.3-2.37 3.37-1.62 6.41 2.12 5.73 6.2-2.42 3.87-13.23-2.65-3.16zM397.41 384.61l3.72 4.81 3.83-.56-.45-3.63-7.1-.62zM393.12 397l3.25.58 1.46-1.87 6.95.11-10.4-2.55-1.26 3.73z"/></g><path style="fill:#043904" d="m407.73 396.18-2.95-.36-2.58 3.47 3.08 3.54 2.45-6.65z"/><path style="opacity:.35000000000000003" d="m407.73 396.18-2.95-.36-2.58 3.47 3.08 3.54 2.45-6.65z"/><path style="fill:#043904" d="m428.99 383.07 4.1 4.82-2.5 3.01-3.8-5.92-2.65-3.16 4.85 1.25zM413.12 403.87l3.6-3.24-2.12-5.73-1.48 8.97zM413.71 388.85l-3.25 4.43-5.5-4.42-.45-3.63 9.2 3.62zM387.63 388.91l-1.3 4.49 6.79 3.6 1.26-3.73-6.75-4.36zM413.12 403.87l-7.84-1.04 2.45-6.65 2.12.25 3.27 7.44zM396.37 397.58l5.83 1.71 2.58-3.47-6.95-.11-1.46 1.87z"/><g style="opacity:.4"><path d="m428.99 383.07 4.1 4.82-2.5 3.01-3.8-5.92-2.65-3.16 4.85 1.25zM413.12 403.87l3.6-3.24-2.12-5.73-1.48 8.97zM413.71 388.85l-3.25 4.43-5.5-4.42-.45-3.63 9.2 3.62zM387.63 388.91l-1.3 4.49 6.79 3.6 1.26-3.73-6.75-4.36zM413.12 403.87l-7.84-1.04 2.45-6.65 2.12.25 3.27 7.44zM396.37 397.58l5.83 1.71 2.58-3.47-6.95-.11-1.46 1.87z"/></g><path style="opacity:.35000000000000003" d="m428.99 383.07-1.21-5.18-10.01-6.59-6.62.14-10.39 7.79-7.23 5.2-3.79.87-2.11 3.61-1.3 4.49 6.79 3.6 3.25.58 5.83 1.71 3.08 3.54 7.84 1.04 3.6-3.24 6.2-2.42 7.67-7.31 2.5-3.01-4.1-4.82z"/><path d="M444 395.2s7.21-7 6.81-15.43c0 0-.64 7.07-7.82 12.9a34.87 34.87 0 0 0 2.74-12c.41-7.55-1.28-12-2.93-13.95 1.78 4.07 2 9 1.34 14.38a25.7 25.7 0 0 1-6.48 14.12Z" style="fill:#263238"/><path style="fill:#043904" d="m433.57 387.31-5.72 4.29-1.85 2.96 3.91.34 5.07 2 1.1-3.2-2.42-2.96-.09-3.43z"/><path style="opacity:.30000000000000004" d="m433.57 387.31-5.72 4.29-1.85 2.96 3.91.34 5.07 2 1.1-3.2-2.42-2.96-.09-3.43z"/><path style="fill:#043904" d="m433.57 387.31 3.64-.08.99 3.63-2.12 2.84-2.42-2.96-.09-3.43z"/><path style="opacity:.35000000000000003" d="m433.57 387.31 3.64-.08.99 3.63-2.12 2.84-2.42-2.96-.09-3.43z"/><path style="fill:#043904" d="m442.72 390.86.67 2.85-2.67-.69-3.06 1.82-1.3 1.85-.9 3.54-.81 4.93-1.8-4.09 2.13-4.17 2.17-2.77 3.36-1.41 2.21-1.86z"/><path style="fill:#043904" d="m440.05 402.05 4.22-4.03-2.09-3.26-2.13 7.29z"/><g style="opacity:.5"><path d="m442.72 390.86.67 2.85-2.67-.69-3.06 1.82-1.3 1.85-.9 3.54-.81 4.93-1.8-4.09 2.13-4.17 2.17-2.77 3.36-1.41 2.21-1.86z"/><path d="m440.05 402.05 4.22-4.03-2.09-3.26-2.13 7.29z"/></g><path style="fill:#043904" d="m430.23 389.81-2.01 2.64-.41 1.43 2.15-.03 5.02 3.05-5.07-2-3.91-.34 1.85-2.96 2.38-1.79zM437.21 387.23l.14 3.51-1.9 2.19.63.77 2.12-2.84-.99-3.63zM432.85 401.07l-2.79-.34-5.73-1.4-3.71-2.4 1.16-1.99 2.09-.48-1.66.86-.17 1.36 2.02 1.36 8.43 2.25 2.49-3.39-2.13 4.17z"/><g style="opacity:.25"><path d="m430.23 389.81-2.01 2.64-.41 1.43 2.15-.03 5.02 3.05-5.07-2-3.91-.34 1.85-2.96 2.38-1.79zM437.21 387.23l.14 3.51-1.9 2.19.63.77 2.12-2.84-.99-3.63zM432.85 401.07l-2.79-.34-5.73-1.4-3.71-2.4 1.16-1.99 2.09-.48-1.66.86-.17 1.36 2.02 1.36 8.43 2.25 2.49-3.39-2.13 4.17z"/></g><path style="fill:#043904" d="m427.85 391.6-3.98 2.86-1.66.86-.17 1.36 2.02 1.36 8.43 2.25.7-.96-3.03-2.43-2.11.31-2.05-2.65 1.85-2.96z"/><path style="opacity:.35000000000000003" d="m427.85 391.6-3.98 2.86-1.66.86-.17 1.36 2.02 1.36 8.43 2.25.7-.96-3.03-2.43-2.11.31-2.05-2.65 1.85-2.96z"/><path style="fill:#043904" d="m437.21 387.23 5.51 3.63-2.21 1.86-3.36 1.41-2.17 2.77 1.1-3.2 2.12-2.84-.99-3.63z"/><path style="fill:#043904" d="m440.72 393.02-3.06 1.82-1.3 1.85-.9 3.54 1.17 3.15 3.42-1.33 2.13-7.29-1.46-1.74zM426 394.56l2.05 2.65 2.11-.31-.25-2-3.91-.34zM423.64 401.38l1.79.32.8-1.03 3.83.06-5.73-1.4-.69 2.05z"/><g style="opacity:.45"><path d="m437.21 387.23 5.51 3.63-2.21 1.86-3.36 1.41-2.17 2.77 1.1-3.2 2.12-2.84-.99-3.63z"/><path d="m440.72 393.02-3.06 1.82-1.3 1.85-.9 3.54 1.17 3.15 3.42-1.33 2.13-7.29-1.46-1.74zM426 394.56l2.05 2.65 2.11-.31-.25-2-3.91-.34zM423.64 401.38l1.79.32.8-1.03 3.83.06-5.73-1.4-.69 2.05z"/></g><path style="fill:#043904" d="m431.68 400.93-1.62-.2-1.42 1.91 1.69 1.95 1.35-3.66z"/><path style="opacity:.35000000000000003" d="m431.68 400.93-1.62-.2-1.42 1.91 1.69 1.95 1.35-3.66z"/><path style="fill:#043904" d="m443.39 393.71 2.26 2.66-1.38 1.65-2.09-3.26-1.46-1.74 2.67.69zM434.65 405.16l1.98-1.78-1.17-3.15-.81 4.93zM434.98 396.9l-1.79 2.43-3.03-2.43-.25-2 5.07 2zM420.62 396.93l-.72 2.47 3.74 1.98.69-2.05-3.71-2.4z"/><path style="fill:#043904" d="m434.65 405.16-4.32-.57 1.35-3.66 1.17.14 1.8 4.09zM425.43 401.7l3.21.94 1.42-1.91-3.83-.06-.8 1.03z"/><g style="opacity:.4"><path d="m443.39 393.71 2.26 2.66-1.38 1.65-2.09-3.26-1.46-1.74 2.67.69zM434.65 405.16l1.98-1.78-1.17-3.15-.81 4.93zM434.98 396.9l-1.79 2.43-3.03-2.43-.25-2 5.07 2zM420.62 396.93l-.72 2.47 3.74 1.98.69-2.05-3.71-2.4z"/><path d="m434.65 405.16-4.32-.57 1.35-3.66 1.17.14 1.8 4.09zM425.43 401.7l3.21.94 1.42-1.91-3.83-.06-.8 1.03z"/></g><path style="opacity:.2" d="m443.39 393.71-.67-2.85-5.51-3.63-3.64.08-5.72 4.29-3.98 2.86-2.09.48-1.16 1.99-.72 2.47 3.74 1.98 1.79.32 3.21.94 1.69 1.95 4.32.57 1.98-1.78 3.42-1.33 4.22-4.03 1.38-1.65-2.26-2.66z"/></svg>